<?xml version="1.0" standalone="no"?>
<!DOCTYPE svg PUBLIC "-//W3C//DTD SVG 20010904//EN"
 "http://www.w3.org/TR/2001/REC-SVG-20010904/DTD/svg10.dtd">
<svg version="1.0" xmlns="http://www.w3.org/2000/svg"
 width="128.000000pt" height="128.000000pt" viewBox="0 0 128.000000 128.000000"
 preserveAspectRatio="xMidYMid meet">

<g transform="translate(0.000000,128.000000) scale(0.100000,-0.100000)"
fill="#000000" stroke="none">
<path d="M505 1264 c-244 -52 -438 -249 -489 -497 -20 -96 -20 -158 0 -254 52
-252 246 -446 496 -497 97 -20 159 -20 256 0 250 51 444 245 496 497 20 96 20
158 0 255 -71 347 -411 569 -759 496z m315 -94 c393 -134 506 -637 210 -929
-63 -63 -187 -134 -223 -129 -21 3 -22 9 -27 118 -3 63 -11 125 -18 137 -16
29 -15 33 8 33 38 0 127 41 158 72 61 64 84 170 58 261 -9 30 -22 60 -30 66
-11 9 -13 26 -9 64 3 29 0 65 -6 81 -10 24 -15 27 -39 22 -15 -4 -49 -18 -75
-31 -42 -21 -54 -23 -90 -15 -54 12 -140 12 -194 0 -36 -8 -48 -6 -90 15 -26
13 -60 27 -75 31 -24 5 -29 2 -39 -22 -6 -16 -9 -52 -6 -81 4 -38 2 -55 -9
-64 -8 -6 -21 -36 -30 -66 -26 -91 -3 -197 58 -261 31 -31 120 -72 158 -72 11
0 20 -1 20 -2 0 -2 -7 -21 -14 -43 -10 -29 -21 -41 -42 -47 -49 -14 -85 2
-140 58 -37 39 -59 54 -78 54 -33 0 -33 -13 -1 -34 14 -9 36 -39 50 -67 33
-64 73 -89 143 -89 l53 0 -3 -57 c-3 -51 -6 -58 -25 -61 -13 -2 -55 14 -95 35
-153 80 -265 238 -290 412 -41 283 141 556 418 626 83 21 230 14 314 -15z"/>
</g>
</svg>
