<?xml version="1.0" encoding="UTF-8"?>
<!DOCTYPE svg PUBLIC "-//W3C//DTD SVG 1.1//EN" "http://www.w3.org/Graphics/SVG/1.1/DTD/svg11.dtd">
<svg xmlns="http://www.w3.org/2000/svg" version="1.1" width="186px" height="185px" style="shape-rendering:geometricPrecision; text-rendering:geometricPrecision; image-rendering:optimizeQuality; fill-rule:evenodd; clip-rule:evenodd" xmlns:xlink="http://www.w3.org/1999/xlink">
<g><path style="opacity:1" fill="#592d28" d="M 51.5,-0.5 C 79.1667,-0.5 106.833,-0.5 134.5,-0.5C 142.901,7.23643 150.234,15.9031 156.5,25.5C 155.064,27.3185 153.397,27.6518 151.5,26.5C 152.025,25.8076 152.692,25.3076 153.5,25C 152.151,24.2276 151.318,23.0609 151,21.5C 150.667,21.8333 150.333,22.1667 150,22.5C 149.626,21.5838 149.126,20.7504 148.5,20C 141.439,18.0908 134.439,15.7575 127.5,13C 128.93,11.1197 128.596,9.61974 126.5,8.5C 123.148,13.7414 120.481,13.5747 118.5,8C 116.024,7.57644 113.691,6.7431 111.5,5.5C 107.659,6.79361 103.825,6.79361 100,5.5C 94.865,8.42279 90.1983,7.75612 86,3.5C 85.6924,4.30806 85.1924,4.97473 84.5,5.5C 82.0475,2.91235 79.8808,3.24569 78,6.5C 76.2151,5.75992 74.3817,5.09326 72.5,4.5C 69.0205,6.81243 66.0205,9.64577 63.5,13C 60.8333,13.3333 58.1667,13.6667 55.5,14C 52.9333,16.0969 49.9333,17.4302 46.5,18C 44.0266,19.925 44.0266,21.7583 46.5,23.5C 44.4257,25.8277 43.4257,25.1611 43.5,21.5C 39.4651,23.2058 36.7984,26.2058 35.5,30.5C 32.234,30.4326 30.734,32.0992 31,35.5C 30.6667,34.5 30.3333,33.5 30,32.5C 28.0528,33.1097 26.2194,33.9431 24.5,35C 27.6279,37.2486 27.7946,39.4152 25,41.5C 23.6152,40.4495 22.6152,39.1161 22,37.5C 21.51,38.7932 21.3433,40.1266 21.5,41.5C 17.551,41.6932 17.551,42.1932 21.5,43C 20.0563,44.7635 19.0563,46.7635 18.5,49C 20.8333,49.3333 23.1667,49.6667 25.5,50C 23.5359,51.451 22.2026,53.2843 21.5,55.5C 18.889,58.3727 16.0557,61.0394 13,63.5C 12.5172,64.448 12.3505,65.448 12.5,66.5C 8.1759,71.1251 3.84257,75.7918 -0.5,80.5C -0.5,71.5 -0.5,62.5 -0.5,53.5C 7.86304,44.1401 17.1964,35.8068 27.5,28.5C 29.0174,28.4894 30.1841,27.8228 31,26.5C 31.7175,27.4506 32.5509,27.6172 33.5,27C 32.4464,25.6124 32.2797,24.1124 33,22.5C 35.2089,20.6266 37.0422,18.46 38.5,16C 39.7932,15.51 41.1266,15.3433 42.5,15.5C 42.9856,12.2891 43.9856,9.28908 45.5,6.5C 47.5,4.16667 49.5,1.83333 51.5,-0.5 Z"/></g>
<g><path style="opacity:1" fill="#5f2d29" d="M 156.5,25.5 C 160.134,28.984 164.134,31.984 168.5,34.5C 170.968,37.8792 173.968,40.5459 177.5,42.5C 179.86,45.5272 182.527,48.1938 185.5,50.5C 185.5,58.5 185.5,66.5 185.5,74.5C 178.946,69.3606 172.946,63.5273 167.5,57C 166.207,56.51 164.873,56.3433 163.5,56.5C 162.162,54.3302 160.328,52.6635 158,51.5C 157.808,49.4233 157.308,47.4233 156.5,45.5C 155.817,45.8627 155.15,46.1961 154.5,46.5C 153.699,44.0393 154.699,42.206 157.5,41C 151.298,35.2992 145.631,29.1326 140.5,22.5C 136.779,21.1113 133.112,20.6113 129.5,21C 122.9,18.4567 116.233,16.1233 109.5,14C 106.225,13.0714 103.225,13.5714 100.5,15.5C 97.8333,12.8333 95.1667,12.8333 92.5,15.5C 90.1927,14.1703 87.8593,12.837 85.5,11.5C 80.9927,13.5025 76.326,15.0025 71.5,16C 69.8089,17.4054 67.9755,18.5721 66,19.5C 65.6667,19.1667 65.3333,18.8333 65,18.5C 64.0268,22.0161 62.5268,22.3495 60.5,19.5C 58.3745,20.7857 56.0411,21.6191 53.5,22C 52.1196,23.9252 50.6196,25.7585 49,27.5C 47.4313,27.1528 45.598,26.9861 43.5,27C 44.1667,28 44.8333,29 45.5,30C 44.0494,29.7374 42.7161,29.9041 41.5,30.5C 39.0359,36.9669 35.0359,42.3003 29.5,46.5C 30.1667,47.5 30.8333,48.5 31.5,49.5C 28.4415,50.6876 25.7749,52.3543 23.5,54.5C 22.8333,54.8333 22.1667,55.1667 21.5,55.5C 22.2026,53.2843 23.5359,51.451 25.5,50C 23.1667,49.6667 20.8333,49.3333 18.5,49C 19.0563,46.7635 20.0563,44.7635 21.5,43C 17.551,42.1932 17.551,41.6932 21.5,41.5C 21.3433,40.1266 21.51,38.7932 22,37.5C 22.6152,39.1161 23.6152,40.4495 25,41.5C 27.7946,39.4152 27.6279,37.2486 24.5,35C 26.2194,33.9431 28.0528,33.1097 30,32.5C 30.3333,33.5 30.6667,34.5 31,35.5C 30.734,32.0992 32.234,30.4326 35.5,30.5C 36.7984,26.2058 39.4651,23.2058 43.5,21.5C 43.4257,25.1611 44.4257,25.8277 46.5,23.5C 44.0266,21.7583 44.0266,19.925 46.5,18C 49.9333,17.4302 52.9333,16.0969 55.5,14C 58.1667,13.6667 60.8333,13.3333 63.5,13C 66.0205,9.64577 69.0205,6.81243 72.5,4.5C 74.3817,5.09326 76.2151,5.75992 78,6.5C 79.8808,3.24569 82.0475,2.91235 84.5,5.5C 85.1924,4.97473 85.6924,4.30806 86,3.5C 90.1983,7.75612 94.865,8.42279 100,5.5C 103.825,6.79361 107.659,6.79361 111.5,5.5C 113.691,6.7431 116.024,7.57644 118.5,8C 120.481,13.5747 123.148,13.7414 126.5,8.5C 128.596,9.61974 128.93,11.1197 127.5,13C 134.439,15.7575 141.439,18.0908 148.5,20C 149.126,20.7504 149.626,21.5838 150,22.5C 150.333,22.1667 150.667,21.8333 151,21.5C 151.318,23.0609 152.151,24.2276 153.5,25C 152.692,25.3076 152.025,25.8076 151.5,26.5C 153.397,27.6518 155.064,27.3185 156.5,25.5 Z"/></g>
<g><path style="opacity:1" fill="#ba9643" d="M 136.5,-0.5 C 144.5,-0.5 152.5,-0.5 160.5,-0.5C 160.721,0.734849 161.388,1.73485 162.5,2.5C 161.167,3.16667 159.833,3.83333 158.5,4.5C 159.066,5.29133 159.899,5.29133 161,4.5C 161.251,5.98568 162.585,6.98568 165,7.5C 165.436,4.71644 166.936,3.54977 169.5,4C 167.503,5.15314 167.17,6.65314 168.5,8.5C 170.04,10.4372 172.04,11.6039 174.5,12C 173.207,12.49 171.873,12.6567 170.5,12.5C 170.671,15.7973 170.005,16.1306 168.5,13.5C 168.709,12.914 169.043,12.414 169.5,12C 168.354,11.3551 167.354,10.5217 166.5,9.5C 164.998,13.374 164.331,13.0407 164.5,8.5C 163.5,8.5 162.5,8.5 161.5,8.5C 161.708,10.9201 161.374,13.2534 160.5,15.5C 160.846,16.6956 161.346,16.6956 162,15.5C 162.524,7.58766 163.358,7.58766 164.5,15.5C 162.576,17.0087 161.409,19.0087 161,21.5C 160.346,20.3044 159.846,20.3044 159.5,21.5C 161.58,22.5282 161.914,23.8615 160.5,25.5C 155.624,21.6069 152.291,16.6069 150.5,10.5C 146.795,9.12266 144.461,6.456 143.5,2.5C 140.519,2.81763 138.185,1.81763 136.5,-0.5 Z"/></g>
<g><path style="opacity:1" fill="#682d29" d="M 154.5,46.5 C 153.292,47.782 151.958,47.782 150.5,46.5C 151.833,45.5 151.833,44.5 150.5,43.5C 137.229,39.947 124.729,34.6137 113,27.5C 112.167,27.8333 111.333,28.1667 110.5,28.5C 113.129,29.8026 115.463,31.4692 117.5,33.5C 116.113,33.8072 114.446,33.8072 112.5,33.5C 110.973,33.573 109.973,32.9063 109.5,31.5C 107.849,29.8762 105.849,28.5429 103.5,27.5C 92.4909,25.2254 82.3242,27.2254 73,33.5C 71.3736,32.9818 69.707,32.6484 68,32.5C 62.0218,33.1825 56.8551,35.5158 52.5,39.5C 44.2975,43.4278 36.6309,48.0944 29.5,53.5C 29.1667,53.5 28.8333,53.5 28.5,53.5C 26.7839,53.6287 25.1172,53.962 23.5,54.5C 25.7749,52.3543 28.4415,50.6876 31.5,49.5C 30.8333,48.5 30.1667,47.5 29.5,46.5C 35.0359,42.3003 39.0359,36.9669 41.5,30.5C 42.7161,29.9041 44.0494,29.7374 45.5,30C 44.8333,29 44.1667,28 43.5,27C 45.598,26.9861 47.4313,27.1528 49,27.5C 50.6196,25.7585 52.1196,23.9252 53.5,22C 56.0411,21.6191 58.3745,20.7857 60.5,19.5C 62.5268,22.3495 64.0268,22.0161 65,18.5C 65.3333,18.8333 65.6667,19.1667 66,19.5C 67.9755,18.5721 69.8089,17.4054 71.5,16C 76.326,15.0025 80.9927,13.5025 85.5,11.5C 87.8593,12.837 90.1927,14.1703 92.5,15.5C 95.1667,12.8333 97.8333,12.8333 100.5,15.5C 103.225,13.5714 106.225,13.0714 109.5,14C 116.233,16.1233 122.9,18.4567 129.5,21C 133.112,20.6113 136.779,21.1113 140.5,22.5C 145.631,29.1326 151.298,35.2992 157.5,41C 154.699,42.206 153.699,44.0393 154.5,46.5 Z"/></g>
<g><path style="opacity:1" fill="#5e3619" d="M 45.5,6.5 C 43.9856,9.28908 42.9856,12.2891 42.5,15.5C 41.1266,15.3433 39.7932,15.51 38.5,16C 37.0422,18.46 35.2089,20.6266 33,22.5C 32.2797,24.1124 32.4464,25.6124 33.5,27C 32.5509,27.6172 31.7175,27.4506 31,26.5C 30.1841,27.8228 29.0174,28.4894 27.5,28.5C 33.0226,20.7956 39.0226,13.4622 45.5,6.5 Z"/></g>
<g><path style="opacity:1" fill="#b59343" d="M -0.5,-0.5 C 16.8333,-0.5 34.1667,-0.5 51.5,-0.5C 49.5,1.83333 47.5,4.16667 45.5,6.5C 39.0226,13.4622 33.0226,20.7956 27.5,28.5C 17.1964,35.8068 7.86304,44.1401 -0.5,53.5C -0.5,35.5 -0.5,17.5 -0.5,-0.5 Z"/></g>
<g><path style="opacity:1" fill="#b38c3d" d="M 160.5,-0.5 C 168.833,-0.5 177.167,-0.5 185.5,-0.5C 185.5,15.8333 185.5,32.1667 185.5,48.5C 183.098,46.0908 180.431,44.0908 177.5,42.5C 173.968,40.5459 170.968,37.8792 168.5,34.5C 167.058,33.1805 166.392,31.5138 166.5,29.5C 163.122,30.1089 161.122,28.7756 160.5,25.5C 161.914,23.8615 161.58,22.5282 159.5,21.5C 159.846,20.3044 160.346,20.3044 161,21.5C 161.409,19.0087 162.576,17.0087 164.5,15.5C 163.358,7.58766 162.524,7.58766 162,15.5C 161.346,16.6956 160.846,16.6956 160.5,15.5C 161.374,13.2534 161.708,10.9201 161.5,8.5C 162.5,8.5 163.5,8.5 164.5,8.5C 164.331,13.0407 164.998,13.374 166.5,9.5C 167.354,10.5217 168.354,11.3551 169.5,12C 169.043,12.414 168.709,12.914 168.5,13.5C 170.005,16.1306 170.671,15.7973 170.5,12.5C 171.873,12.6567 173.207,12.49 174.5,12C 172.04,11.6039 170.04,10.4372 168.5,8.5C 167.17,6.65314 167.503,5.15314 169.5,4C 166.936,3.54977 165.436,4.71644 165,7.5C 162.585,6.98568 161.251,5.98568 161,4.5C 159.899,5.29133 159.066,5.29133 158.5,4.5C 159.833,3.83333 161.167,3.16667 162.5,2.5C 161.388,1.73485 160.721,0.734849 160.5,-0.5 Z"/></g>
<g><path style="opacity:1" fill="#ad864d" d="M 134.5,-0.5 C 135.167,-0.5 135.833,-0.5 136.5,-0.5C 138.185,1.81763 140.519,2.81763 143.5,2.5C 144.461,6.456 146.795,9.12266 150.5,10.5C 152.291,16.6069 155.624,21.6069 160.5,25.5C 161.122,28.7756 163.122,30.1089 166.5,29.5C 166.392,31.5138 167.058,33.1805 168.5,34.5C 164.134,31.984 160.134,28.984 156.5,25.5C 150.234,15.9031 142.901,7.23643 134.5,-0.5 Z"/></g>
<g><path style="opacity:1" fill="#77321e" d="M 109.5,31.5 C 95.4765,26.1676 82.4765,28.0009 70.5,37C 66.651,40.6818 62.9844,44.5151 59.5,48.5C 59.8333,48.8333 60.1667,49.1667 60.5,49.5C 65.1834,46.8277 70.1834,45.1611 75.5,44.5C 70.3899,46.5545 65.3899,48.8879 60.5,51.5C 57.683,51.1995 57.0163,49.8661 58.5,47.5C 57.8333,47.1667 57.1667,46.8333 56.5,46.5C 53.4249,48.0662 50.7583,50.2329 48.5,53C 47.552,53.4828 46.552,53.6495 45.5,53.5C 48.8076,50.5285 52.141,47.5285 55.5,44.5C 59.625,41.5474 63.625,38.3807 67.5,35C 62.2796,35.5717 57.2796,37.0717 52.5,39.5C 56.8551,35.5158 62.0218,33.1825 68,32.5C 69.707,32.6484 71.3736,32.9818 73,33.5C 82.3242,27.2254 92.4909,25.2254 103.5,27.5C 105.849,28.5429 107.849,29.8762 109.5,31.5 Z"/></g>
<g><path style="opacity:1" fill="#d08c44" d="M 109.5,31.5 C 109.973,32.9063 110.973,33.573 112.5,33.5C 118.469,37.8012 123.802,42.8012 128.5,48.5C 127.575,49.5624 126.575,49.5624 125.5,48.5C 125.167,48.5 124.833,48.5 124.5,48.5C 108.68,40.9687 92.3468,39.6353 75.5,44.5C 70.1834,45.1611 65.1834,46.8277 60.5,49.5C 60.1667,49.1667 59.8333,48.8333 59.5,48.5C 62.9844,44.5151 66.651,40.6818 70.5,37C 82.4765,28.0009 95.4765,26.1676 109.5,31.5 Z"/></g>
<g><path style="opacity:1" fill="#76311f" d="M 154.5,46.5 C 155.15,46.1961 155.817,45.8627 156.5,45.5C 157.308,47.4233 157.808,49.4233 158,51.5C 160.328,52.6635 162.162,54.3302 163.5,56.5C 161.5,55.5 159.5,54.5 157.5,53.5C 145.587,44.808 132.587,38.308 118.5,34C 124.728,39.0734 131.062,43.9067 137.5,48.5C 139.5,50.8333 141.5,53.1667 143.5,55.5C 142.833,55.5 142.167,55.5 141.5,55.5C 137.879,52.2171 134.213,48.8838 130.5,45.5C 129.703,48.4096 130.703,50.743 133.5,52.5C 132.277,53.6139 130.944,53.7805 129.5,53C 127.365,52.1237 126.031,50.6237 125.5,48.5C 126.575,49.5624 127.575,49.5624 128.5,48.5C 123.802,42.8012 118.469,37.8012 112.5,33.5C 114.446,33.8072 116.113,33.8072 117.5,33.5C 115.463,31.4692 113.129,29.8026 110.5,28.5C 111.333,28.1667 112.167,27.8333 113,27.5C 124.729,34.6137 137.229,39.947 150.5,43.5C 151.833,44.5 151.833,45.5 150.5,46.5C 151.958,47.782 153.292,47.782 154.5,46.5 Z"/></g>
<g><path style="opacity:1" fill="#cd894e" d="M 157.5,53.5 C 150.05,49.2734 142.384,45.2734 134.5,41.5C 134.167,42 133.833,42.5 133.5,43C 135.083,44.7346 136.416,46.5679 137.5,48.5C 131.062,43.9067 124.728,39.0734 118.5,34C 132.587,38.308 145.587,44.808 157.5,53.5 Z"/></g>
<g><path style="opacity:1" fill="#b28c5d" d="M 177.5,42.5 C 180.431,44.0908 183.098,46.0908 185.5,48.5C 185.5,49.1667 185.5,49.8333 185.5,50.5C 182.527,48.1938 179.86,45.5272 177.5,42.5 Z"/></g>
<g><path style="opacity:1" fill="#c6884d" d="M 55.5,44.5 C 55.5,43.5 55.5,42.5 55.5,41.5C 50.9745,42.9732 46.6412,45.1399 42.5,48C 38.0239,49.6811 33.6906,51.5144 29.5,53.5C 36.6309,48.0944 44.2975,43.4278 52.5,39.5C 57.2796,37.0717 62.2796,35.5717 67.5,35C 63.625,38.3807 59.625,41.5474 55.5,44.5 Z"/></g>
<g><path style="opacity:1" fill="#853525" d="M 124.5,48.5 C 121.482,48.3354 118.482,48.502 115.5,49C 113.627,49.9529 113.294,51.1196 114.5,52.5C 112.265,52.7947 110.265,52.4614 108.5,51.5C 108.703,49.9557 109.37,48.6223 110.5,47.5C 109.574,44.0452 108.074,43.7119 106,46.5C 104.225,45.7297 102.725,44.563 101.5,43C 92.652,42.197 83.9853,42.697 75.5,44.5C 92.3468,39.6353 108.68,40.9687 124.5,48.5 Z"/></g>
<g><path style="opacity:1" fill="#9f3a35" d="M 92.5,51.5 C 92.4349,54.4282 91.7682,57.0948 90.5,59.5C 90.8841,61.6648 90.2174,63.3315 88.5,64.5C 86.4788,63.1455 84.8121,61.4788 83.5,59.5C 83.5,57.1667 83.5,54.8333 83.5,52.5C 82.1667,52.5 80.8333,52.5 79.5,52.5C 80.4175,46.8745 82.7508,46.2079 86.5,50.5C 88.8609,49.0274 90.8609,49.3607 92.5,51.5 Z"/></g>
<g><path style="opacity:1" fill="#9b3632" d="M 108.5,51.5 C 110.265,52.4614 112.265,52.7947 114.5,52.5C 115.167,52.8333 115.833,53.1667 116.5,53.5C 117.058,54.7899 118.058,55.6232 119.5,56C 118.747,57.487 117.914,57.6537 117,56.5C 116.536,57.0944 116.369,57.7611 116.5,58.5C 115.508,58.3284 114.842,58.6618 114.5,59.5C 114.155,62.1979 112.822,64.1979 110.5,65.5C 110.807,63.5542 110.807,61.8875 110.5,60.5C 108.481,62.1897 106.481,63.8564 104.5,65.5C 104.5,65.1667 104.5,64.8333 104.5,64.5C 107.089,60.9147 106.922,57.5814 104,54.5C 103.998,57.0512 103.164,59.0512 101.5,60.5C 101.799,58.396 101.466,56.396 100.5,54.5C 98.8662,54.032 97.6995,53.032 97,51.5C 96.3333,54.5 96.3333,57.5 97,60.5C 97.4169,61.756 98.2502,62.4226 99.5,62.5C 98.6324,64.6246 97.6324,64.7913 96.5,63C 95.6777,60.5661 95.3444,58.0661 95.5,55.5C 95.2436,53.2075 95.5769,51.0408 96.5,49C 99.98,48.9262 103.647,48.7596 107.5,48.5C 107.263,49.791 107.596,50.791 108.5,51.5 Z"/></g>
<g><path style="opacity:1" fill="#842e2a" d="M 108.5,51.5 C 107.596,50.791 107.263,49.791 107.5,48.5C 103.647,48.7596 99.98,48.9262 96.5,49C 95.5769,51.0408 95.2436,53.2075 95.5,55.5C 94.678,53.6115 93.8447,51.6115 93,49.5C 92.5357,50.0944 92.369,50.7611 92.5,51.5C 90.8609,49.3607 88.8609,49.0274 86.5,50.5C 82.7508,46.2079 80.4175,46.8745 79.5,52.5C 79.5,55.5 79.5,58.5 79.5,61.5C 78.8386,60.2825 78.1719,58.9492 77.5,57.5C 76.5258,59.7427 76.1924,62.076 76.5,64.5C 78.9726,64.0882 80.3059,65.0882 80.5,67.5C 76.5925,66.593 73.9258,64.2596 72.5,60.5C 72.6309,59.6236 72.2975,58.9569 71.5,58.5C 70.5344,60.396 70.2011,62.396 70.5,64.5C 69.8365,62.9581 69.1698,61.2914 68.5,59.5C 66.8697,60.898 65.0363,61.898 63,62.5C 62.6666,64.0468 63.1666,65.3801 64.5,66.5C 63.8333,67.1667 63.1667,67.8333 62.5,68.5C 63.5244,69.8518 64.5244,71.1851 65.5,72.5C 63.5956,72.2624 62.2623,71.2624 61.5,69.5C 61.5,68.5 61.5,67.5 61.5,66.5C 57.9621,66.2153 56.1288,67.882 56,71.5C 55.6667,70.8333 55.3333,70.1667 55,69.5C 53.1388,72.1755 52.1388,75.1755 52,78.5C 50.8333,79.6667 49.6667,80.8333 48.5,82C 51.8271,83.7908 52.1604,85.9575 49.5,88.5C 51.444,89.8007 53.444,90.8007 55.5,91.5C 54.8333,91.5 54.1667,91.5 53.5,91.5C 52.0222,91.238 50.6888,91.5713 49.5,92.5C 50.325,93.3857 51.325,93.719 52.5,93.5C 51.2825,94.1614 49.9492,94.8281 48.5,95.5C 50.1045,97.1789 50.7711,99.1789 50.5,101.5C 49.0222,101.238 47.6888,101.571 46.5,102.5C 47.7701,103.288 48.7701,104.288 49.5,105.5C 52.0385,107.768 52.7051,110.435 51.5,113.5C 52.1393,116.323 53.4727,118.823 55.5,121C 54.7476,121.671 54.4142,122.504 54.5,123.5C 54.0709,119.237 51.7376,117.404 47.5,118C 51.19,118.424 51.3567,119.258 48,120.5C 43.6368,114.474 42.4701,107.807 44.5,100.5C 41.3514,95.6171 41.0181,90.6171 43.5,85.5C 43.0814,84.3279 42.4147,83.3279 41.5,82.5C 43.0453,81.5481 44.712,81.2148 46.5,81.5C 46.3274,78.8205 45.3274,76.4872 43.5,74.5C 45.0666,72.1039 45.8999,69.4372 46,66.5C 47.5843,67.8613 49.4176,68.528 51.5,68.5C 51.7264,64.7076 52.5597,61.0409 54,57.5C 56.6637,56.0016 58.8304,54.0016 60.5,51.5C 65.3899,48.8879 70.3899,46.5545 75.5,44.5C 83.9853,42.697 92.652,42.197 101.5,43C 102.725,44.563 104.225,45.7297 106,46.5C 108.074,43.7119 109.574,44.0452 110.5,47.5C 109.37,48.6223 108.703,49.9557 108.5,51.5 Z"/></g>
<g><path style="opacity:1" fill="#a6554f" d="M 79.5,52.5 C 80.8333,52.5 82.1667,52.5 83.5,52.5C 83.5,54.8333 83.5,57.1667 83.5,59.5C 82.6981,58.0484 82.1981,56.3817 82,54.5C 80.6485,56.5938 80.1485,58.9272 80.5,61.5C 80.1667,61.5 79.8333,61.5 79.5,61.5C 79.5,58.5 79.5,55.5 79.5,52.5 Z"/></g>
<g><path style="opacity:1" fill="#b63230" d="M 90.5,59.5 C 89.0689,59.8807 88.2355,60.8807 88,62.5C 85.7492,59.9828 84.9159,56.9828 85.5,53.5C 87.5922,53.4386 89.0922,52.4386 90,50.5C 90.498,53.4816 90.6646,56.4816 90.5,59.5 Z"/></g>
<g><path style="opacity:1" fill="#6b331a" d="M 28.5,53.5 C 23.1912,57.8032 17.8579,62.1366 12.5,66.5C 12.3505,65.448 12.5172,64.448 13,63.5C 16.0557,61.0394 18.889,58.3727 21.5,55.5C 22.1667,55.1667 22.8333,54.8333 23.5,54.5C 25.1172,53.962 26.7839,53.6287 28.5,53.5 Z"/></g>
<g><path style="opacity:1" fill="#b4312f" d="M 101.5,60.5 C 101.167,61.5 100.5,62.1667 99.5,62.5C 98.2502,62.4226 97.4169,61.756 97,60.5C 96.3333,57.5 96.3333,54.5 97,51.5C 97.6995,53.032 98.8662,54.032 100.5,54.5C 101.466,56.396 101.799,58.396 101.5,60.5 Z"/></g>
<g><path style="opacity:1" fill="#d89445" d="M 157.5,53.5 C 159.5,54.5 161.5,55.5 163.5,56.5C 164.527,58.1942 165.861,59.5275 167.5,60.5C 162.556,62.0773 162.223,64.4106 166.5,67.5C 165.965,69.2705 165.131,69.6039 164,68.5C 164.331,70.0187 164.164,71.352 163.5,72.5C 161.745,71.0956 159.745,70.0956 157.5,69.5C 155.833,67.1667 153.833,65.1667 151.5,63.5C 149.737,59.9475 147.07,57.2809 143.5,55.5C 141.5,53.1667 139.5,50.8333 137.5,48.5C 136.416,46.5679 135.083,44.7346 133.5,43C 133.833,42.5 134.167,42 134.5,41.5C 142.384,45.2734 150.05,49.2734 157.5,53.5 Z"/></g>
<g><path style="opacity:1" fill="#ec9f9a" d="M 72.5,60.5 C 71.5655,61.5676 71.2322,62.901 71.5,64.5C 71.1667,64.5 70.8333,64.5 70.5,64.5C 70.2011,62.396 70.5344,60.396 71.5,58.5C 72.2975,58.9569 72.6309,59.6236 72.5,60.5 Z"/></g>
<g><path style="opacity:1" fill="#bc403c" d="M 79.5,61.5 C 79.8333,61.5 80.1667,61.5 80.5,61.5C 84.2101,65.2079 87.5434,69.2079 90.5,73.5C 88.9891,74.5025 87.3224,75.1692 85.5,75.5C 85.4636,71.8001 83.7969,69.1335 80.5,67.5C 80.3059,65.0882 78.9726,64.0882 76.5,64.5C 76.1924,62.076 76.5258,59.7427 77.5,57.5C 78.1719,58.9492 78.8386,60.2825 79.5,61.5 Z"/></g>
<g><path style="opacity:1" fill="#a55651" d="M 114.5,59.5 C 114.842,58.6618 115.508,58.3284 116.5,58.5C 116.216,60.4147 116.549,62.0813 117.5,63.5C 116.908,67.0889 114.908,69.4222 111.5,70.5C 112.458,69.0384 113.624,67.7051 115,66.5C 115.796,63.9615 115.629,61.6282 114.5,59.5 Z"/></g>
<g><path style="opacity:1" fill="#89312c" d="M 141.5,97.5 C 141.53,96.5028 141.03,95.8361 140,95.5C 137.566,94.6777 135.066,94.3444 132.5,94.5C 129.482,94.7038 126.482,95.0371 123.5,95.5C 125.515,94.0762 127.848,93.4095 130.5,93.5C 132.527,93.6621 134.527,93.4955 136.5,93C 133.074,91.3466 129.407,90.5133 125.5,90.5C 124.833,90.5 124.5,90.1667 124.5,89.5C 128.437,89.2065 132.27,89.5399 136,90.5C 136.507,89.0039 136.007,87.8373 134.5,87C 132.455,86.5099 130.455,86.6765 128.5,87.5C 128.5,87.1667 128.5,86.8333 128.5,86.5C 130.89,85.1092 132.557,83.1092 133.5,80.5C 134.936,79.5714 136.269,78.4048 137.5,77C 135.5,74.622 133.333,72.4553 131,70.5C 129.941,72.6592 128.441,74.3259 126.5,75.5C 125.18,76.9418 123.514,77.6085 121.5,77.5C 125.69,75.4534 127.523,72.1201 127,67.5C 126.617,68.056 126.117,68.3893 125.5,68.5C 124.897,65.3748 123.563,62.5415 121.5,60C 119.159,59.8319 117.826,60.9986 117.5,63.5C 116.549,62.0813 116.216,60.4147 116.5,58.5C 116.369,57.7611 116.536,57.0944 117,56.5C 117.914,57.6537 118.747,57.487 119.5,56C 118.058,55.6232 117.058,54.7899 116.5,53.5C 120.324,52.7497 123.991,53.4163 127.5,55.5C 129.62,54.1285 130.62,54.7952 130.5,57.5C 139.616,57.5634 139.616,58.3967 130.5,60C 131.158,61.9045 132.325,63.4045 134,64.5C 134.295,69.2685 136.128,73.2685 139.5,76.5C 139.291,77.086 138.957,77.586 138.5,78C 142.085,79.6026 142.418,81.7693 139.5,84.5C 140.242,85.2868 141.075,85.9535 142,86.5C 143.872,90.4375 143.705,94.1042 141.5,97.5 Z"/></g>
<g><path style="opacity:1" fill="#812f2b" d="M 141.5,55.5 C 141.045,58.937 139.712,62.1037 137.5,65C 139.675,66.5017 141.508,68.335 143,70.5C 143.146,74.0687 143.98,77.402 145.5,80.5C 145.392,81.4419 145.059,82.2753 144.5,83C 146.993,84.3246 148.16,86.4913 148,89.5C 148.654,88.3044 149.154,88.3044 149.5,89.5C 146.805,92.2773 145.972,95.6106 147,99.5C 147.556,97.4049 148.056,97.2382 148.5,99C 146.471,101.281 146.138,103.781 147.5,106.5C 145.144,107.654 144.977,108.987 147,110.5C 147.667,112.5 147.667,114.5 147,116.5C 144.712,118.8 143.045,121.467 142,124.5C 140.667,123.833 139.333,123.167 138,122.5C 141.546,114.424 140.213,113.758 134,120.5C 132.046,122.645 130.879,124.812 130.5,127C 127.956,129.088 125.623,128.921 123.5,126.5C 123.574,124.589 124.574,123.422 126.5,123C 125.833,122.667 125.167,122.333 124.5,122C 125.406,120.301 125.739,118.467 125.5,116.5C 126.895,118.054 127.561,117.721 127.5,115.5C 126.511,113.506 125.511,111.506 124.5,109.5C 126.736,110.389 128.736,111.722 130.5,113.5C 129.433,115.559 128.1,117.392 126.5,119C 128.272,120.487 130.272,120.82 132.5,120C 135.647,113.071 137.647,105.904 138.5,98.5C 139.791,98.7373 140.791,98.404 141.5,97.5C 143.705,94.1042 143.872,90.4375 142,86.5C 141.075,85.9535 140.242,85.2868 139.5,84.5C 142.418,81.7693 142.085,79.6026 138.5,78C 138.957,77.586 139.291,77.086 139.5,76.5C 136.128,73.2685 134.295,69.2685 134,64.5C 132.325,63.4045 131.158,61.9045 130.5,60C 139.616,58.3967 139.616,57.5634 130.5,57.5C 130.62,54.7952 129.62,54.1285 127.5,55.5C 123.991,53.4163 120.324,52.7497 116.5,53.5C 115.833,53.1667 115.167,52.8333 114.5,52.5C 113.294,51.1196 113.627,49.9529 115.5,49C 118.482,48.502 121.482,48.3354 124.5,48.5C 124.833,48.5 125.167,48.5 125.5,48.5C 126.031,50.6237 127.365,52.1237 129.5,53C 130.944,53.7805 132.277,53.6139 133.5,52.5C 130.703,50.743 129.703,48.4096 130.5,45.5C 134.213,48.8838 137.879,52.2171 141.5,55.5 Z"/></g>
<g><path style="opacity:1" fill="#fbefec" d="M 95.5,55.5 C 95.3444,58.0661 95.6777,60.5661 96.5,63C 97.6324,64.7913 98.6324,64.6246 99.5,62.5C 100.5,62.1667 101.167,61.5 101.5,60.5C 103.164,59.0512 103.998,57.0512 104,54.5C 106.922,57.5814 107.089,60.9147 104.5,64.5C 100.522,66.4784 97.5216,69.4784 95.5,73.5C 93.8333,73.5 92.1667,73.5 90.5,73.5C 87.5434,69.2079 84.2101,65.2079 80.5,61.5C 80.1485,58.9272 80.6485,56.5938 82,54.5C 82.1981,56.3817 82.6981,58.0484 83.5,59.5C 84.8121,61.4788 86.4788,63.1455 88.5,64.5C 90.2174,63.3315 90.8841,61.6648 90.5,59.5C 91.7682,57.0948 92.4349,54.4282 92.5,51.5C 92.369,50.7611 92.5357,50.0944 93,49.5C 93.8447,51.6115 94.678,53.6115 95.5,55.5 Z"/></g>
<g><path style="opacity:1" fill="#a73630" d="M 125.5,68.5 C 125.084,70.7525 123.751,72.2525 121.5,73C 118.123,73.4517 114.789,74.1184 111.5,75C 109.393,76.2635 108.393,78.0968 108.5,80.5C 107.596,79.791 107.263,78.791 107.5,77.5C 105.585,77.7845 103.919,77.4511 102.5,76.5C 103.833,76.5 105.167,76.5 106.5,76.5C 105.981,72.6856 107.647,70.6856 111.5,70.5C 114.908,69.4222 116.908,67.0889 117.5,63.5C 117.826,60.9986 119.159,59.8319 121.5,60C 123.563,62.5415 124.897,65.3748 125.5,68.5 Z"/></g>
<g><path style="opacity:1" fill="#723417" d="M 163.5,56.5 C 164.873,56.3433 166.207,56.51 167.5,57C 172.946,63.5273 178.946,69.3606 185.5,74.5C 185.5,75.1667 185.5,75.8333 185.5,76.5C 179.849,70.8529 173.849,65.5196 167.5,60.5C 165.861,59.5275 164.527,58.1942 163.5,56.5 Z"/></g>
<g><path style="opacity:1" fill="#792e29" d="M 60.5,51.5 C 58.8304,54.0016 56.6637,56.0016 54,57.5C 52.5597,61.0409 51.7264,64.7076 51.5,68.5C 49.4176,68.528 47.5843,67.8613 46,66.5C 45.8999,69.4372 45.0666,72.1039 43.5,74.5C 45.3274,76.4872 46.3274,78.8205 46.5,81.5C 44.712,81.2148 43.0453,81.5481 41.5,82.5C 42.4147,83.3279 43.0814,84.3279 43.5,85.5C 41.0181,90.6171 41.3514,95.6171 44.5,100.5C 42.4701,107.807 43.6368,114.474 48,120.5C 51.3567,119.258 51.19,118.424 47.5,118C 51.7376,117.404 54.0709,119.237 54.5,123.5C 56.7379,124.853 58.0713,126.853 58.5,129.5C 54.9723,131.644 54.639,134.31 57.5,137.5C 57.1667,138.167 56.8333,138.833 56.5,139.5C 55.0312,137.364 53.0312,136.03 50.5,135.5C 50.1667,135.5 49.8333,135.5 49.5,135.5C 48.2464,132.907 46.5798,130.573 44.5,128.5C 44.9234,127.735 45.2568,126.902 45.5,126C 42.7985,123.599 41.1319,120.599 40.5,117C 42.229,115.211 42.8957,113.044 42.5,110.5C 41.1779,110.67 40.0113,110.337 39,109.5C 34.2494,97.562 34.916,85.8953 41,74.5C 41.7772,71.5706 41.6105,68.7372 40.5,66C 41.13,64.108 42.13,62.4413 43.5,61C 42.1667,60.3333 40.8333,60.3333 39.5,61C 38.0148,63.2369 36.0148,64.7369 33.5,65.5C 37.1667,61.1667 41.1667,57.1667 45.5,53.5C 46.552,53.6495 47.552,53.4828 48.5,53C 50.7583,50.2329 53.4249,48.0662 56.5,46.5C 57.1667,46.8333 57.8333,47.1667 58.5,47.5C 57.0163,49.8661 57.683,51.1995 60.5,51.5 Z"/></g>
<g><path style="opacity:1" fill="#ba3333" d="M 110.5,65.5 C 107.082,66.6294 104.249,68.6294 102,71.5C 101.22,73.3869 101.387,75.0536 102.5,76.5C 103.919,77.4511 105.585,77.7845 107.5,77.5C 107.263,78.791 107.596,79.791 108.5,80.5C 109.167,80.5 109.5,80.8333 109.5,81.5C 108.022,81.762 106.689,81.4287 105.5,80.5C 105.709,79.914 106.043,79.414 106.5,79C 104.833,78.6667 103.167,78.3333 101.5,78C 100.717,75.8816 99.3838,74.3816 97.5,73.5C 99.117,70.2157 101.45,67.5491 104.5,65.5C 106.481,63.8564 108.481,62.1897 110.5,60.5C 110.807,61.8875 110.807,63.5542 110.5,65.5 Z"/></g>
<g><path style="opacity:1" fill="#aa574e" d="M 104.5,64.5 C 104.5,64.8333 104.5,65.1667 104.5,65.5C 101.45,67.5491 99.117,70.2157 97.5,73.5C 96.8333,73.5 96.1667,73.5 95.5,73.5C 97.5216,69.4784 100.522,66.4784 104.5,64.5 Z"/></g>
<g><path style="opacity:1" fill="#fceee6" d="M 72.5,60.5 C 73.9258,64.2596 76.5925,66.593 80.5,67.5C 83.7969,69.1335 85.4636,71.8001 85.5,75.5C 85.5,76.1667 85.1667,76.5 84.5,76.5C 81.0897,76.6162 79.7564,74.9496 80.5,71.5C 75.8173,71.3258 72.8173,68.9924 71.5,64.5C 71.2322,62.901 71.5655,61.5676 72.5,60.5 Z"/></g>
<g><path style="opacity:1" fill="#af3a36" d="M 70.5,64.5 C 70.8333,64.5 71.1667,64.5 71.5,64.5C 72.8173,68.9924 75.8173,71.3258 80.5,71.5C 79.7564,74.9496 81.0897,76.6162 84.5,76.5C 81.6108,77.4396 79.2775,79.1063 77.5,81.5C 78.7525,79.6612 78.7525,77.8278 77.5,76C 73.4569,74.5086 69.4569,73.3419 65.5,72.5C 64.5244,71.1851 63.5244,69.8518 62.5,68.5C 63.1667,67.8333 63.8333,67.1667 64.5,66.5C 63.1666,65.3801 62.6666,64.0468 63,62.5C 65.0363,61.898 66.8697,60.898 68.5,59.5C 69.1698,61.2914 69.8365,62.9581 70.5,64.5 Z"/></g>
<g><path style="opacity:1" fill="#fdeae4" d="M 114.5,59.5 C 115.629,61.6282 115.796,63.9615 115,66.5C 113.624,67.7051 112.458,69.0384 111.5,70.5C 107.647,70.6856 105.981,72.6856 106.5,76.5C 105.167,76.5 103.833,76.5 102.5,76.5C 101.387,75.0536 101.22,73.3869 102,71.5C 104.249,68.6294 107.082,66.6294 110.5,65.5C 112.822,64.1979 114.155,62.1979 114.5,59.5 Z"/></g>
<g><path style="opacity:1" fill="#9b2f2e" d="M 133.5,80.5 C 131.745,81.0722 130.078,81.9055 128.5,83C 125.961,83.7958 123.628,83.6291 121.5,82.5C 125.144,81.9537 127.811,79.9537 129.5,76.5C 128.675,75.6143 127.675,75.281 126.5,75.5C 128.441,74.3259 129.941,72.6592 131,70.5C 133.333,72.4553 135.5,74.622 137.5,77C 136.269,78.4048 134.936,79.5714 133.5,80.5 Z"/></g>
<g><path style="opacity:1" fill="#7a2f29" d="M 141.5,55.5 C 142.167,55.5 142.833,55.5 143.5,55.5C 147.07,57.2809 149.737,59.9475 151.5,63.5C 148.5,63.8333 147.167,62.5 147.5,59.5C 146.167,59.5 144.833,59.5 143.5,59.5C 143.167,62.5 144.5,63.8333 147.5,63.5C 147.917,66.0792 147.25,68.2458 145.5,70C 147.213,71.3782 148.547,73.0448 149.5,75C 148.833,75.3333 148.167,75.6667 147.5,76C 151.823,82.0946 152.823,88.5946 150.5,95.5C 151.465,102.499 151.631,109.499 151,116.5C 152.626,116.854 154.459,116.854 156.5,116.5C 149.473,124.194 142.14,131.527 134.5,138.5C 133.833,138.833 133.167,139.167 132.5,139.5C 128.921,139.234 128.587,137.901 131.5,135.5C 131.167,134.5 130.5,133.833 129.5,133.5C 127.549,134.774 126.215,136.44 125.5,138.5C 124.833,138.5 124.167,138.5 123.5,138.5C 118.794,139.343 114.128,140.51 109.5,142C 101.198,143.29 92.865,143.623 84.5,143C 84.1667,142.667 83.8333,142.333 83.5,142C 94.3261,142.093 104.993,140.927 115.5,138.5C 116.193,137.482 116.859,136.482 117.5,135.5C 119.74,134.432 121.574,132.766 123,130.5C 123.49,129.207 123.657,127.873 123.5,126.5C 125.623,128.921 127.956,129.088 130.5,127C 130.879,124.812 132.046,122.645 134,120.5C 140.213,113.758 141.546,114.424 138,122.5C 139.333,123.167 140.667,123.833 142,124.5C 143.045,121.467 144.712,118.8 147,116.5C 147.667,114.5 147.667,112.5 147,110.5C 144.977,108.987 145.144,107.654 147.5,106.5C 146.138,103.781 146.471,101.281 148.5,99C 148.056,97.2382 147.556,97.4049 147,99.5C 145.972,95.6106 146.805,92.2773 149.5,89.5C 149.154,88.3044 148.654,88.3044 148,89.5C 148.16,86.4913 146.993,84.3246 144.5,83C 145.059,82.2753 145.392,81.4419 145.5,80.5C 143.98,77.402 143.146,74.0687 143,70.5C 141.508,68.335 139.675,66.5017 137.5,65C 139.712,62.1037 141.045,58.937 141.5,55.5 Z"/></g>
<g><path style="opacity:1" fill="#732f2a" d="M 151.5,63.5 C 153.833,65.1667 155.833,67.1667 157.5,69.5C 163.308,75.7832 166.975,83.1165 168.5,91.5C 167.422,101.319 163.422,109.653 156.5,116.5C 154.459,116.854 152.626,116.854 151,116.5C 151.631,109.499 151.465,102.499 150.5,95.5C 152.823,88.5946 151.823,82.0946 147.5,76C 148.167,75.6667 148.833,75.3333 149.5,75C 148.547,73.0448 147.213,71.3782 145.5,70C 147.25,68.2458 147.917,66.0792 147.5,63.5C 144.5,63.8333 143.167,62.5 143.5,59.5C 144.833,59.5 146.167,59.5 147.5,59.5C 147.167,62.5 148.5,63.8333 151.5,63.5 Z"/></g>
<g><path style="opacity:1" fill="#76361b" d="M 33.5,65.5 C 32.3079,69.3661 30.6412,73.0328 28.5,76.5C 27.914,76.2907 27.414,75.9574 27,75.5C 26.0932,78.5721 24.2599,80.9055 21.5,82.5C 22.6401,80.2198 23.8068,77.8864 25,75.5C 27.6142,71.9095 30.4475,68.5762 33.5,65.5 Z"/></g>
<g><path style="opacity:1" fill="#722e29" d="M 44.5,128.5 C 40.988,126.332 38.6547,123.332 37.5,119.5C 36.448,119.649 35.448,119.483 34.5,119C 33.8971,116.929 32.5638,115.762 30.5,115.5C 29.316,112.139 27.4827,109.139 25,106.5C 22.8497,100.558 21.0164,94.5577 19.5,88.5C 19.2525,86.1417 19.9192,84.1417 21.5,82.5C 24.2599,80.9055 26.0932,78.5721 27,75.5C 27.414,75.9574 27.914,76.2907 28.5,76.5C 30.6412,73.0328 32.3079,69.3661 33.5,65.5C 36.0148,64.7369 38.0148,63.2369 39.5,61C 40.8333,60.3333 42.1667,60.3333 43.5,61C 42.13,62.4413 41.13,64.108 40.5,66C 41.6105,68.7372 41.7772,71.5706 41,74.5C 34.916,85.8953 34.2494,97.562 39,109.5C 40.0113,110.337 41.1779,110.67 42.5,110.5C 42.8957,113.044 42.229,115.211 40.5,117C 41.1319,120.599 42.7985,123.599 45.5,126C 45.2568,126.902 44.9234,127.735 44.5,128.5 Z"/></g>
<g><path style="opacity:1" fill="#fae5e0" d="M 121.5,77.5 C 117.058,77.9701 113.058,79.3034 109.5,81.5C 109.5,80.8333 109.167,80.5 108.5,80.5C 108.393,78.0968 109.393,76.2635 111.5,75C 114.789,74.1184 118.123,73.4517 121.5,73C 123.751,72.2525 125.084,70.7525 125.5,68.5C 126.117,68.3893 126.617,68.056 127,67.5C 127.523,72.1201 125.69,75.4534 121.5,77.5 Z"/></g>
<g><path style="opacity:1" fill="#ae3a36" d="M 60.5,73.5 C 63.7159,76.7628 67.7159,78.4295 72.5,78.5C 73.4209,80.756 75.0876,81.756 77.5,81.5C 76.5,82.1667 75.5,82.8333 74.5,83.5C 70.9009,82.6561 67.2343,82.3227 63.5,82.5C 61.8008,82.6602 60.1341,82.4935 58.5,82C 56.7511,78.7335 55.0844,75.5669 53.5,72.5C 55.9029,72.448 58.2362,72.7814 60.5,73.5 Z"/></g>
<g><path style="opacity:1" fill="#fbeae6" d="M 61.5,69.5 C 62.2623,71.2624 63.5956,72.2624 65.5,72.5C 69.4569,73.3419 73.4569,74.5086 77.5,76C 78.7525,77.8278 78.7525,79.6612 77.5,81.5C 75.0876,81.756 73.4209,80.756 72.5,78.5C 67.7159,78.4295 63.7159,76.7628 60.5,73.5C 60.5792,72.0695 60.2458,70.7362 59.5,69.5C 59.9698,68.537 60.6365,68.537 61.5,69.5 Z"/></g>
<g><path style="opacity:1" fill="#b13631" d="M 126.5,75.5 C 127.675,75.281 128.675,75.6143 129.5,76.5C 127.811,79.9537 125.144,81.9537 121.5,82.5C 118.391,82.2641 115.391,82.5975 112.5,83.5C 111.5,82.8333 110.5,82.1667 109.5,81.5C 113.058,79.3034 117.058,77.9701 121.5,77.5C 123.514,77.6085 125.18,76.9418 126.5,75.5 Z"/></g>
<g><path style="opacity:1" fill="#9d3834" d="M 61.5,69.5 C 60.6365,68.537 59.9698,68.537 59.5,69.5C 60.2458,70.7362 60.5792,72.0695 60.5,73.5C 58.2362,72.7814 55.9029,72.448 53.5,72.5C 55.0844,75.5669 56.7511,78.7335 58.5,82C 60.1341,82.4935 61.8008,82.6602 63.5,82.5C 62.7261,83.1471 61.7261,83.4805 60.5,83.5C 57.9995,82.7559 55.6661,81.9225 53.5,81C 54.8333,82.6667 56.1667,84.3333 57.5,86C 61.8711,86.1725 66.2044,86.6725 70.5,87.5C 70.3333,87.8333 70.1667,88.1667 70,88.5C 65.24,89.7306 60.4067,90.7306 55.5,91.5C 53.444,90.8007 51.444,89.8007 49.5,88.5C 52.1604,85.9575 51.8271,83.7908 48.5,82C 49.6667,80.8333 50.8333,79.6667 52,78.5C 52.1388,75.1755 53.1388,72.1755 55,69.5C 55.3333,70.1667 55.6667,70.8333 56,71.5C 56.1288,67.882 57.9621,66.2153 61.5,66.5C 61.5,67.5 61.5,68.5 61.5,69.5 Z"/></g>
<g><path style="opacity:1" fill="#be2521" d="M 90.5,73.5 C 92.1667,73.5 93.8333,73.5 95.5,73.5C 96.1667,73.5 96.8333,73.5 97.5,73.5C 99.3838,74.3816 100.717,75.8816 101.5,78C 103.167,78.3333 104.833,78.6667 106.5,79C 106.043,79.414 105.709,79.914 105.5,80.5C 106.689,81.4287 108.022,81.762 109.5,81.5C 110.5,82.1667 111.5,82.8333 112.5,83.5C 111.314,84.9613 111.314,86.2946 112.5,87.5C 112.5,89.5 112.5,91.5 112.5,93.5C 110.856,93.2865 109.356,93.6198 108,94.5C 107.503,97.146 107.336,99.8127 107.5,102.5C 104.502,102.249 102.002,103.249 100,105.5C 99.5,105.167 99,104.833 98.5,104.5C 99.1925,103.482 99.8592,102.482 100.5,101.5C 105.664,97.9552 106.664,93.6218 103.5,88.5C 103.5,88.1667 103.5,87.8333 103.5,87.5C 103.607,85.0968 102.607,83.2635 100.5,82C 96.9733,81.1925 93.6399,81.3592 90.5,82.5C 86.9807,83.1833 84.4807,85.1833 83,88.5C 82.3092,92.0213 82.8092,95.3546 84.5,98.5C 85.3578,101.05 86.3578,103.55 87.5,106C 89.5856,106.627 89.9189,106.127 88.5,104.5C 89,104.167 89.5,103.833 90,103.5C 91.7659,104.233 93.5992,104.567 95.5,104.5C 95.5,105.833 95.5,107.167 95.5,108.5C 92.8333,108.833 90.1667,109.167 87.5,109.5C 84.5228,108.167 81.5228,106.833 78.5,105.5C 78.0269,104.094 77.0269,103.427 75.5,103.5C 75.5,102.5 75.5,101.5 75.5,100.5C 75.7373,99.209 75.404,98.209 74.5,97.5C 74.5,94.1667 74.5,90.8333 74.5,87.5C 75.6857,86.2946 75.6857,84.9613 74.5,83.5C 75.5,82.8333 76.5,82.1667 77.5,81.5C 79.2775,79.1063 81.6108,77.4396 84.5,76.5C 85.1667,76.5 85.5,76.1667 85.5,75.5C 87.3224,75.1692 88.9891,74.5025 90.5,73.5 Z"/></g>
<g><path style="opacity:1" fill="#d88a42" d="M 167.5,60.5 C 173.849,65.5196 179.849,70.8529 185.5,76.5C 185.5,87.1667 185.5,97.8333 185.5,108.5C 180.5,113.167 175.5,117.833 170.5,122.5C 169.063,120.506 167.73,118.339 166.5,116C 167.5,115.333 168.5,115.333 169.5,116C 171.693,119.324 173.026,119.157 173.5,115.5C 175.986,114.756 177.986,113.256 179.5,111C 176.402,109.732 174.735,107.399 174.5,104C 175.479,101.567 176.145,99.0667 176.5,96.5C 175.5,96.5 174.5,96.5 173.5,96.5C 172.298,100.048 171.631,103.715 171.5,107.5C 169.678,107.169 168.011,106.502 166.5,105.5C 167.287,103.896 168.62,103.229 170.5,103.5C 170.721,96.47 170.387,89.47 169.5,82.5C 170.182,80.1591 170.849,77.8257 171.5,75.5C 169.508,75.3285 167.842,75.9951 166.5,77.5C 164.679,76.2723 163.679,74.6056 163.5,72.5C 164.164,71.352 164.331,70.0187 164,68.5C 165.131,69.6039 165.965,69.2705 166.5,67.5C 162.223,64.4106 162.556,62.0773 167.5,60.5 Z"/></g>
<g><path style="opacity:1" fill="#b14b42" d="M 90.5,82.5 C 93.6399,81.3592 96.9733,81.1925 100.5,82C 102.607,83.2635 103.607,85.0968 103.5,87.5C 102.163,86.6851 101.163,85.5185 100.5,84C 98.8455,83.3923 97.1789,82.8923 95.5,82.5C 93.8333,82.5 92.1667,82.5 90.5,82.5 Z"/></g>
<g><path style="opacity:1" fill="#c1756c" d="M 128.5,86.5 C 128.5,86.8333 128.5,87.1667 128.5,87.5C 125.15,87.335 121.817,87.5017 118.5,88C 119.056,88.3826 119.389,88.8826 119.5,89.5C 118.005,89.5852 117.005,88.9185 116.5,87.5C 120.445,86.5091 124.445,86.1758 128.5,86.5 Z"/></g>
<g><path style="opacity:1" fill="#af3233" d="M 124.5,89.5 C 122.833,89.5 121.167,89.5 119.5,89.5C 119.389,88.8826 119.056,88.3826 118.5,88C 121.817,87.5017 125.15,87.335 128.5,87.5C 130.455,86.6765 132.455,86.5099 134.5,87C 136.007,87.8373 136.507,89.0039 136,90.5C 132.27,89.5399 128.437,89.2065 124.5,89.5 Z"/></g>
<g><path style="opacity:1" fill="#9f5451" d="M 74.5,87.5 C 74.5,90.8333 74.5,94.1667 74.5,97.5C 73.5222,97.189 72.8555,96.5223 72.5,95.5C 73.7357,93.6889 73.7357,91.8556 72.5,90C 72.6387,88.699 73.3054,87.8656 74.5,87.5 Z"/></g>
<g><path style="opacity:1" fill="#faf5ee" d="M 95.5,82.5 C 97.1789,82.8923 98.8455,83.3923 100.5,84C 101.163,85.5185 102.163,86.6851 103.5,87.5C 103.5,87.8333 103.5,88.1667 103.5,88.5C 104.627,94.0859 102.96,98.4192 98.5,101.5C 97.8333,101.5 97.1667,101.5 96.5,101.5C 93.0722,101.453 90.0722,100.287 87.5,98C 90.8557,97.7852 94.189,97.7852 97.5,98C 99.3293,96.8867 100.163,95.3867 100,93.5C 98.3866,92.3777 97.2199,92.8777 96.5,95C 91.0866,96.9 88.7532,95.0666 89.5,89.5C 93.2063,88.704 96.873,88.3706 100.5,88.5C 98.4689,86.6899 96.8022,84.6899 95.5,82.5 Z"/></g>
<g><path style="opacity:1" fill="#d8918a" d="M 53.5,91.5 C 53.1667,92.1667 52.8333,92.8333 52.5,93.5C 51.325,93.719 50.325,93.3857 49.5,92.5C 50.6888,91.5713 52.0222,91.238 53.5,91.5 Z"/></g>
<g><path style="opacity:1" fill="#fcebe8" d="M 63.5,82.5 C 67.2343,82.3227 70.9009,82.6561 74.5,83.5C 75.6857,84.9613 75.6857,86.2946 74.5,87.5C 73.3054,87.8656 72.6387,88.699 72.5,90C 73.7357,91.8556 73.7357,93.6889 72.5,95.5C 72.8555,96.5223 73.5222,97.189 74.5,97.5C 75.404,98.209 75.7373,99.209 75.5,100.5C 73.6687,101.995 71.502,102.662 69,102.5C 63.6671,100.538 58.8338,101.205 54.5,104.5C 54.1667,104.333 53.8333,104.167 53.5,104C 55.3003,102.188 56.9669,100.355 58.5,98.5C 62.5546,98.8242 66.5546,98.4909 70.5,97.5C 69.6798,95.8888 68.3464,95.2222 66.5,95.5C 61.8333,94.8333 57.1667,94.1667 52.5,93.5C 52.8333,92.8333 53.1667,92.1667 53.5,91.5C 54.1667,91.5 54.8333,91.5 55.5,91.5C 60.4067,90.7306 65.24,89.7306 70,88.5C 70.1667,88.1667 70.3333,87.8333 70.5,87.5C 66.2044,86.6725 61.8711,86.1725 57.5,86C 56.1667,84.3333 54.8333,82.6667 53.5,81C 55.6661,81.9225 57.9995,82.7559 60.5,83.5C 61.7261,83.4805 62.7261,83.1471 63.5,82.5 Z"/></g>
<g><path style="opacity:1" fill="#f1c1bf" d="M 125.5,90.5 C 129.407,90.5133 133.074,91.3466 136.5,93C 134.527,93.4955 132.527,93.6621 130.5,93.5C 129.087,92.0652 127.42,91.0652 125.5,90.5 Z"/></g>
<g><path style="opacity:1" fill="#fbeae6" d="M 133.5,80.5 C 132.557,83.1092 130.89,85.1092 128.5,86.5C 124.445,86.1758 120.445,86.5091 116.5,87.5C 117.005,88.9185 118.005,89.5852 119.5,89.5C 121.167,89.5 122.833,89.5 124.5,89.5C 124.5,90.1667 124.833,90.5 125.5,90.5C 127.42,91.0652 129.087,92.0652 130.5,93.5C 127.848,93.4095 125.515,94.0762 123.5,95.5C 121.901,95.2322 120.568,95.5655 119.5,96.5C 118.624,96.3691 117.957,96.7025 117.5,97.5C 121.907,98.1246 126.241,98.958 130.5,100C 132.301,101.387 132.968,102.887 132.5,104.5C 130.513,102.673 128.179,101.673 125.5,101.5C 120.632,103.113 115.965,102.779 111.5,100.5C 111.703,98.3618 112.703,96.6951 114.5,95.5C 113.264,93.6889 113.264,91.8556 114.5,90C 114.361,88.699 113.695,87.8656 112.5,87.5C 111.314,86.2946 111.314,84.9613 112.5,83.5C 115.391,82.5975 118.391,82.2641 121.5,82.5C 123.628,83.6291 125.961,83.7958 128.5,83C 130.078,81.9055 131.745,81.0722 133.5,80.5 Z"/></g>
<g><path style="opacity:1" fill="#fdeef0" d="M 90.5,82.5 C 92.1667,82.5 93.8333,82.5 95.5,82.5C 96.8022,84.6899 98.4689,86.6899 100.5,88.5C 96.873,88.3706 93.2063,88.704 89.5,89.5C 88.7532,95.0666 91.0866,96.9 96.5,95C 97.2199,92.8777 98.3866,92.3777 100,93.5C 100.163,95.3867 99.3293,96.8867 97.5,98C 94.189,97.7852 90.8557,97.7852 87.5,98C 90.0722,100.287 93.0722,101.453 96.5,101.5C 91.9308,103.266 87.9308,102.266 84.5,98.5C 82.8092,95.3546 82.3092,92.0213 83,88.5C 84.4807,85.1833 86.9807,83.1833 90.5,82.5 Z"/></g>
<g><path style="opacity:1" fill="#ae3229" d="M 132.5,94.5 C 132.804,95.1499 133.137,95.8165 133.5,96.5C 128.682,97.8124 124.015,97.8124 119.5,96.5C 120.568,95.5655 121.901,95.2322 123.5,95.5C 126.482,95.0371 129.482,94.7038 132.5,94.5 Z"/></g>
<g><path style="opacity:1" fill="#cb9041" d="M 55.5,44.5 C 52.141,47.5285 48.8076,50.5285 45.5,53.5C 41.1667,57.1667 37.1667,61.1667 33.5,65.5C 30.4475,68.5762 27.6142,71.9095 25,75.5C 23.8068,77.8864 22.6401,80.2198 21.5,82.5C 19.9192,84.1417 19.2525,86.1417 19.5,88.5C 18.3709,90.6282 18.2042,92.9615 19,95.5C 20.2292,99.6209 21.7292,103.621 23.5,107.5C 23.8222,110.306 24.8222,112.806 26.5,115C 25.4495,116.385 24.1161,117.385 22.5,118C 24.3203,118.979 25.487,120.479 26,122.5C 26.6667,121.167 27.3333,121.167 28,122.5C 28.3333,121.167 28.6667,119.833 29,118.5C 31.3078,119.877 32.8078,121.877 33.5,124.5C 31.9793,124.88 30.3126,125.046 28.5,125C 29.2551,127.133 30.5884,128.8 32.5,130C 30.7111,130.52 29.0444,130.187 27.5,129C 24.49,126.322 21.49,123.655 18.5,121C 16.4234,119.295 14.09,118.128 11.5,117.5C 10.8333,117.167 10.1667,116.833 9.5,116.5C 6.51364,112.183 3.1803,108.183 -0.5,104.5C -0.5,96.5 -0.5,88.5 -0.5,80.5C 3.84257,75.7918 8.1759,71.1251 12.5,66.5C 17.8579,62.1366 23.1912,57.8032 28.5,53.5C 28.8333,53.5 29.1667,53.5 29.5,53.5C 33.6906,51.5144 38.0239,49.6811 42.5,48C 46.6412,45.1399 50.9745,42.9732 55.5,41.5C 55.5,42.5 55.5,43.5 55.5,44.5 Z"/></g>
<g><path style="opacity:1" fill="#c46a69" d="M 66.5,95.5 C 68.3464,95.2222 69.6798,95.8888 70.5,97.5C 66.5546,98.4909 62.5546,98.8242 58.5,98.5C 61.6414,97.6787 64.9748,97.1787 68.5,97C 67.5842,96.7216 66.9175,96.2216 66.5,95.5 Z"/></g>
<g><path style="opacity:1" fill="#b05046" d="M 103.5,88.5 C 106.664,93.6218 105.664,97.9552 100.5,101.5C 99.8333,101.5 99.1667,101.5 98.5,101.5C 102.96,98.4192 104.627,94.0859 103.5,88.5 Z"/></g>
<g><path style="opacity:1" fill="#b34e4b" d="M 111.5,100.5 C 115.965,102.779 120.632,103.113 125.5,101.5C 125.5,102.167 125.5,102.833 125.5,103.5C 121.818,103.335 118.152,103.501 114.5,104C 115.955,106.016 117.955,106.849 120.5,106.5C 120.5,106.833 120.5,107.167 120.5,107.5C 116.517,108.428 113.85,107.095 112.5,103.5C 112.938,103.565 113.272,103.399 113.5,103C 112.244,102.583 111.577,101.75 111.5,100.5 Z"/></g>
<g><path style="opacity:1" fill="#703314" d="M 19.5,88.5 C 21.0164,94.5577 22.8497,100.558 25,106.5C 27.4827,109.139 29.316,112.139 30.5,115.5C 28.1667,112.833 25.8333,110.167 23.5,107.5C 21.7292,103.621 20.2292,99.6209 19,95.5C 18.2042,92.9615 18.3709,90.6282 19.5,88.5 Z"/></g>
<g><path style="opacity:1" fill="#bb322c" d="M 73.5,104.5 C 73.1667,105.167 72.8333,105.833 72.5,106.5C 69.091,106.751 65.7577,106.417 62.5,105.5C 60.8291,108.081 60.3291,107.748 61,104.5C 65.2669,103.178 69.4336,103.178 73.5,104.5 Z"/></g>
<g><path style="opacity:1" fill="#b8322b" d="M 125.5,103.5 C 127.103,103.312 128.437,103.812 129.5,105C 126.568,105.953 123.568,106.453 120.5,106.5C 117.955,106.849 115.955,106.016 114.5,104C 118.152,103.501 121.818,103.335 125.5,103.5 Z"/></g>
<g><path style="opacity:1" fill="#b92f2a" d="M 112.5,87.5 C 113.695,87.8656 114.361,88.699 114.5,90C 113.264,91.8556 113.264,93.6889 114.5,95.5C 112.703,96.6951 111.703,98.3618 111.5,100.5C 111.577,101.75 112.244,102.583 113.5,103C 113.272,103.399 112.938,103.565 112.5,103.5C 108.929,103.408 107.762,105.074 109,108.5C 110.734,110.451 112.901,111.451 115.5,111.5C 118.27,113.062 120.937,114.896 123.5,117C 121.234,118.523 120.067,120.689 120,123.5C 119.51,122.207 119.343,120.873 119.5,119.5C 118.5,119.5 117.5,119.5 116.5,119.5C 116.067,115.406 113.734,113.406 109.5,113.5C 108.5,113.5 107.5,113.5 106.5,113.5C 107.244,110.05 105.91,108.384 102.5,108.5C 101.5,108.5 100.5,108.5 99.5,108.5C 99.719,109.675 99.3857,110.675 98.5,111.5C 97.5832,110.873 96.5832,110.539 95.5,110.5C 93.3792,110.325 91.3792,110.659 89.5,111.5C 88.1667,111.5 87.5,110.833 87.5,109.5C 90.1667,109.167 92.8333,108.833 95.5,108.5C 95.5,107.167 95.5,105.833 95.5,104.5C 93.5992,104.567 91.7659,104.233 90,103.5C 89.5,103.833 89,104.167 88.5,104.5C 89.9189,106.127 89.5856,106.627 87.5,106C 86.3578,103.55 85.3578,101.05 84.5,98.5C 87.9308,102.266 91.9308,103.266 96.5,101.5C 97.1667,101.5 97.8333,101.5 98.5,101.5C 99.1667,101.5 99.8333,101.5 100.5,101.5C 99.8592,102.482 99.1925,103.482 98.5,104.5C 99,104.833 99.5,105.167 100,105.5C 102.002,103.249 104.502,102.249 107.5,102.5C 107.336,99.8127 107.503,97.146 108,94.5C 109.356,93.6198 110.856,93.2865 112.5,93.5C 112.5,91.5 112.5,89.5 112.5,87.5 Z"/></g>
<g><path style="opacity:1" fill="#9a332e" d="M 132.5,94.5 C 135.066,94.3444 137.566,94.6777 140,95.5C 141.03,95.8361 141.53,96.5028 141.5,97.5C 140.791,98.404 139.791,98.7373 138.5,98.5C 137.647,105.904 135.647,113.071 132.5,120C 130.272,120.82 128.272,120.487 126.5,119C 128.1,117.392 129.433,115.559 130.5,113.5C 128.736,111.722 126.736,110.389 124.5,109.5C 123.167,108.833 121.833,108.167 120.5,107.5C 120.5,107.167 120.5,106.833 120.5,106.5C 123.568,106.453 126.568,105.953 129.5,105C 128.437,103.812 127.103,103.312 125.5,103.5C 125.5,102.833 125.5,102.167 125.5,101.5C 128.179,101.673 130.513,102.673 132.5,104.5C 132.968,102.887 132.301,101.387 130.5,100C 126.241,98.958 121.907,98.1246 117.5,97.5C 117.957,96.7025 118.624,96.3691 119.5,96.5C 124.015,97.8124 128.682,97.8124 133.5,96.5C 133.137,95.8165 132.804,95.1499 132.5,94.5 Z"/></g>
<g><path style="opacity:1" fill="#9e3631" d="M 52.5,93.5 C 57.1667,94.1667 61.8333,94.8333 66.5,95.5C 66.9175,96.2216 67.5842,96.7216 68.5,97C 64.9748,97.1787 61.6414,97.6787 58.5,98.5C 56.9669,100.355 55.3003,102.188 53.5,104C 53.8333,104.167 54.1667,104.333 54.5,104.5C 58.8338,101.205 63.6671,100.538 69,102.5C 71.502,102.662 73.6687,101.995 75.5,100.5C 75.5,101.5 75.5,102.5 75.5,103.5C 74.8333,103.833 74.1667,104.167 73.5,104.5C 69.4336,103.178 65.2669,103.178 61,104.5C 60.3291,107.748 60.8291,108.081 62.5,105.5C 65.7577,106.417 69.091,106.751 72.5,106.5C 70.369,107.314 68.0356,107.814 65.5,108C 63.6763,108.66 62.343,109.827 61.5,111.5C 59.1939,110.215 57.3606,110.882 56,113.5C 54.6253,111.063 54.1253,108.397 54.5,105.5C 52.8333,105.5 51.1667,105.5 49.5,105.5C 48.7701,104.288 47.7701,103.288 46.5,102.5C 47.6888,101.571 49.0222,101.238 50.5,101.5C 50.7711,99.1789 50.1045,97.1789 48.5,95.5C 49.9492,94.8281 51.2825,94.1614 52.5,93.5 Z"/></g>
<g><path style="opacity:1" fill="#fce4e1" d="M 112.5,103.5 C 113.85,107.095 116.517,108.428 120.5,107.5C 121.833,108.167 123.167,108.833 124.5,109.5C 125.511,111.506 126.511,113.506 127.5,115.5C 127.561,117.721 126.895,118.054 125.5,116.5C 123.598,112.317 120.265,110.651 115.5,111.5C 112.901,111.451 110.734,110.451 109,108.5C 107.762,105.074 108.929,103.408 112.5,103.5 Z"/></g>
<g><path style="opacity:1" fill="#fce7e1" d="M 75.5,103.5 C 77.0269,103.427 78.0269,104.094 78.5,105.5C 78.67,106.822 78.3366,107.989 77.5,109C 73.7682,110.969 69.7682,111.969 65.5,112C 63.8082,113.307 62.4749,114.807 61.5,116.5C 60.1054,118.054 59.4387,117.721 59.5,115.5C 59.7517,113.927 60.4183,112.594 61.5,111.5C 62.343,109.827 63.6763,108.66 65.5,108C 68.0356,107.814 70.369,107.314 72.5,106.5C 72.8333,105.833 73.1667,105.167 73.5,104.5C 74.1667,104.167 74.8333,103.833 75.5,103.5 Z"/></g>
<g><path style="opacity:1" fill="#b63e39" d="M 102.5,108.5 C 101.395,114.536 104.062,118.036 110.5,119C 112.141,120.129 113.141,121.629 113.5,123.5C 112.698,124.952 112.198,126.618 112,128.5C 111.092,130.439 109.592,131.439 107.5,131.5C 107.81,128.287 107.477,125.287 106.5,122.5C 102.124,119.126 98.4578,115.126 95.5,110.5C 96.5832,110.539 97.5832,110.873 98.5,111.5C 99.3857,110.675 99.719,109.675 99.5,108.5C 100.5,108.5 101.5,108.5 102.5,108.5 Z"/></g>
<g><path style="opacity:1" fill="#fbece8" d="M 95.5,110.5 C 98.4578,115.126 102.124,119.126 106.5,122.5C 106.856,125.564 106.023,128.231 104,130.5C 103.809,128.292 103.309,126.292 102.5,124.5C 101.833,123.167 100.833,122.167 99.5,121.5C 98.4583,120.209 97.2917,120.209 96,121.5C 95.023,123.74 94.523,126.073 94.5,128.5C 94.313,130.564 93.813,132.564 93,134.5C 92.6894,130.91 91.856,127.577 90.5,124.5C 90.7778,122.654 90.1112,121.32 88.5,120.5C 86.5808,121.612 84.9142,122.946 83.5,124.5C 82.6981,125.952 82.1981,127.618 82,129.5C 80.6814,127.75 80.1814,125.75 80.5,123.5C 83.5,119.5 86.5,115.5 89.5,111.5C 91.3792,110.659 93.3792,110.325 95.5,110.5 Z"/></g>
<g><path style="opacity:1" fill="#6d3211" d="M 185.5,108.5 C 185.5,109.167 185.5,109.833 185.5,110.5C 181.854,113.479 178.521,116.812 175.5,120.5C 173.113,122.689 170.447,124.356 167.5,125.5C 168.167,124.167 169.167,123.167 170.5,122.5C 175.5,117.833 180.5,113.167 185.5,108.5 Z"/></g>
<g><path style="opacity:1" fill="#fcebe6" d="M 102.5,108.5 C 105.91,108.384 107.244,110.05 106.5,113.5C 107.5,113.5 108.5,113.5 109.5,113.5C 111.355,115.033 113.188,116.7 115,118.5C 115.483,119.448 115.649,120.448 115.5,121.5C 115.768,123.099 115.434,124.432 114.5,125.5C 114.672,124.508 114.338,123.842 113.5,123.5C 113.141,121.629 112.141,120.129 110.5,119C 104.062,118.036 101.395,114.536 102.5,108.5 Z"/></g>
<g><path style="opacity:1" fill="#da9443" d="M 170.5,122.5 C 169.167,123.167 168.167,124.167 167.5,125.5C 165.938,125.733 164.605,126.4 163.5,127.5C 160.651,126.505 158.151,127.171 156,129.5C 155.51,128.207 155.343,126.873 155.5,125.5C 154.5,125.5 153.5,125.5 152.5,125.5C 153.345,121.647 155.679,118.981 159.5,117.5C 160.429,118.689 160.762,120.022 160.5,121.5C 161.5,121.5 162.5,121.5 163.5,121.5C 163.679,119.046 163.013,116.879 161.5,115C 162.007,112.659 163.174,112.159 165,113.5C 166.079,110.937 166.579,108.271 166.5,105.5C 168.011,106.502 169.678,107.169 171.5,107.5C 171.631,103.715 172.298,100.048 173.5,96.5C 174.5,96.5 175.5,96.5 176.5,96.5C 176.145,99.0667 175.479,101.567 174.5,104C 174.735,107.399 176.402,109.732 179.5,111C 177.986,113.256 175.986,114.756 173.5,115.5C 173.026,119.157 171.693,119.324 169.5,116C 168.5,115.333 167.5,115.333 166.5,116C 167.73,118.339 169.063,120.506 170.5,122.5 Z"/></g>
<g><path style="opacity:1" fill="#7c3a19" d="M 30.5,115.5 C 32.5638,115.762 33.8971,116.929 34.5,119C 35.448,119.483 36.448,119.649 37.5,119.5C 38.6547,123.332 40.988,126.332 44.5,128.5C 46.5798,130.573 48.2464,132.907 49.5,135.5C 42.4639,129.465 36.1305,122.798 30.5,115.5 Z"/></g>
<g><path style="opacity:1" fill="#a83633" d="M 78.5,105.5 C 81.5228,106.833 84.5228,108.167 87.5,109.5C 87.5,110.833 88.1667,111.5 89.5,111.5C 86.5,115.5 83.5,119.5 80.5,123.5C 79.7839,125.556 79.1172,127.723 78.5,130C 79,130.5 79.5,131 80,131.5C 81,130.167 82,130.167 83,131.5C 83.4966,129.19 83.6633,126.857 83.5,124.5C 84.9142,122.946 86.5808,121.612 88.5,120.5C 90.1112,121.32 90.7778,122.654 90.5,124.5C 90.7989,126.604 90.4656,128.604 89.5,130.5C 88.5,129.833 87.5,129.167 86.5,128.5C 85.2319,130.304 84.5652,132.304 84.5,134.5C 81.0412,134.469 77.7079,133.802 74.5,132.5C 74.1667,131.667 73.8333,130.833 73.5,130C 74.4831,126.888 75.1497,123.722 75.5,120.5C 79.0085,118.809 82.1751,116.476 85,113.5C 86.1772,109.508 84.6772,107.842 80.5,108.5C 80.9498,112.224 79.2832,114.391 75.5,115C 73.5359,116.451 72.2026,118.284 71.5,120.5C 70.596,121.209 70.2627,122.209 70.5,123.5C 68.5829,124.116 67.4162,125.45 67,127.5C 63.7398,124.53 61.9065,120.863 61.5,116.5C 62.4749,114.807 63.8082,113.307 65.5,112C 69.7682,111.969 73.7682,110.969 77.5,109C 78.3366,107.989 78.67,106.822 78.5,105.5 Z"/></g>
<g><path style="opacity:1" fill="#fdeae6" d="M 75.5,120.5 C 73.7497,121.659 72.7497,123.326 72.5,125.5C 71.5489,124.081 71.2155,122.415 71.5,120.5C 72.2026,118.284 73.5359,116.451 75.5,115C 79.2832,114.391 80.9498,112.224 80.5,108.5C 84.6772,107.842 86.1772,109.508 85,113.5C 82.1751,116.476 79.0085,118.809 75.5,120.5 Z"/></g>
<g><path style="opacity:1" fill="#d59049" d="M 157.5,69.5 C 159.745,70.0956 161.745,71.0956 163.5,72.5C 163.679,74.6056 164.679,76.2723 166.5,77.5C 167.842,75.9951 169.508,75.3285 171.5,75.5C 170.849,77.8257 170.182,80.1591 169.5,82.5C 170.387,89.47 170.721,96.47 170.5,103.5C 168.62,103.229 167.287,103.896 166.5,105.5C 166.579,108.271 166.079,110.937 165,113.5C 163.174,112.159 162.007,112.659 161.5,115C 163.013,116.879 163.679,119.046 163.5,121.5C 162.5,121.5 161.5,121.5 160.5,121.5C 160.762,120.022 160.429,118.689 159.5,117.5C 155.679,118.981 153.345,121.647 152.5,125.5C 153.5,125.5 154.5,125.5 155.5,125.5C 155.343,126.873 155.51,128.207 156,129.5C 158.151,127.171 160.651,126.505 163.5,127.5C 159.167,130.833 154.833,134.167 150.5,137.5C 144.85,140.137 139.183,142.803 133.5,145.5C 132.127,145.657 130.793,145.49 129.5,145C 131.79,143.223 133.457,141.056 134.5,138.5C 142.14,131.527 149.473,124.194 156.5,116.5C 163.422,109.653 167.422,101.319 168.5,91.5C 166.975,83.1165 163.308,75.7832 157.5,69.5 Z"/></g>
<g><path style="opacity:1" fill="#5a2f27" d="M -0.5,104.5 C 3.1803,108.183 6.51364,112.183 9.5,116.5C 10.4694,119.113 11.8027,121.447 13.5,123.5C 13.0791,125.91 11.7458,127.743 9.5,129C 10.6667,130.167 11.8333,131.333 13,132.5C 16.1499,130.839 17.6499,131.839 17.5,135.5C 16.325,135.281 15.325,135.614 14.5,136.5C 16.3868,138.04 18.2201,139.707 20,141.5C 20.49,142.793 20.6567,144.127 20.5,145.5C 24.2037,145.372 26.7037,147.038 28,150.5C 28.3333,149.833 28.6667,149.167 29,148.5C 31.6513,151.48 34.6513,154.147 38,156.5C 38.6667,157.833 39.3333,159.167 40,160.5C 40.414,160.043 40.914,159.709 41.5,159.5C 42.1719,160.949 42.8386,162.282 43.5,163.5C 42.8166,165.176 41.4832,165.843 39.5,165.5C 39.5,167.5 39.5,169.5 39.5,171.5C 36.8333,168.5 34.1667,165.5 31.5,162.5C 30.9524,160.606 29.9524,158.94 28.5,157.5C 22.5704,153.703 17.2371,149.203 12.5,144C 11.0993,143.59 9.76597,143.09 8.5,142.5C 5.87148,138.537 2.87148,134.871 -0.5,131.5C -0.5,122.5 -0.5,113.5 -0.5,104.5 Z"/></g>
<g><path style="opacity:1" fill="#5d2f2a" d="M 185.5,110.5 C 185.5,118.167 185.5,125.833 185.5,133.5C 184.026,134.436 183.026,135.77 182.5,137.5C 177.481,142.182 172.148,146.515 166.5,150.5C 164.712,150.785 163.045,150.452 161.5,149.5C 160.923,147.45 159.59,146.45 157.5,146.5C 157.5,145.5 157.5,144.5 157.5,143.5C 160.518,143.506 163.184,144.506 165.5,146.5C 167.416,143.67 169.083,140.67 170.5,137.5C 169.726,136.289 168.893,136.289 168,137.5C 166.812,136.437 166.312,135.103 166.5,133.5C 163.433,133.879 162.433,132.879 163.5,130.5C 164.833,128.833 166.167,127.167 167.5,125.5C 170.447,124.356 173.113,122.689 175.5,120.5C 178.521,116.812 181.854,113.479 185.5,110.5 Z"/></g>
<g><path style="opacity:1" fill="#937237" d="M -0.5,131.5 C 2.87148,134.871 5.87148,138.537 8.5,142.5C 5.13953,139.806 2.13953,136.806 -0.5,133.5C -0.5,132.833 -0.5,132.167 -0.5,131.5 Z"/></g>
<g><path style="opacity:1" fill="#753516" d="M 167.5,125.5 C 166.167,127.167 164.833,128.833 163.5,130.5C 161.769,132.23 159.769,133.563 157.5,134.5C 155.287,135.773 152.954,136.773 150.5,137.5C 154.833,134.167 159.167,130.833 163.5,127.5C 164.605,126.4 165.938,125.733 167.5,125.5 Z"/></g>
<g><path style="opacity:1" fill="#90322e" d="M 49.5,105.5 C 51.1667,105.5 52.8333,105.5 54.5,105.5C 54.1253,108.397 54.6253,111.063 56,113.5C 57.3606,110.882 59.1939,110.215 61.5,111.5C 60.4183,112.594 59.7517,113.927 59.5,115.5C 59.4387,117.721 60.1054,118.054 61.5,116.5C 61.9065,120.863 63.7398,124.53 67,127.5C 67.4162,125.45 68.5829,124.116 70.5,123.5C 70.281,124.675 70.6143,125.675 71.5,126.5C 72.1067,126.376 72.44,126.043 72.5,125.5C 72.7497,123.326 73.7497,121.659 75.5,120.5C 75.1497,123.722 74.4831,126.888 73.5,130C 73.8333,130.833 74.1667,131.667 74.5,132.5C 77.7079,133.802 81.0412,134.469 84.5,134.5C 84.5652,132.304 85.2319,130.304 86.5,128.5C 87.5,129.167 88.5,129.833 89.5,130.5C 90.4656,128.604 90.7989,126.604 90.5,124.5C 91.856,127.577 92.6894,130.91 93,134.5C 93.813,132.564 94.313,130.564 94.5,128.5C 95.1667,127.5 95.8333,126.5 96.5,125.5C 96.5,128.167 96.5,130.833 96.5,133.5C 100.699,132.134 102.699,129.134 102.5,124.5C 103.309,126.292 103.809,128.292 104,130.5C 106.023,128.231 106.856,125.564 106.5,122.5C 107.477,125.287 107.81,128.287 107.5,131.5C 109.592,131.439 111.092,130.439 112,128.5C 112.198,126.618 112.698,124.952 113.5,123.5C 114.338,123.842 114.672,124.508 114.5,125.5C 114.56,126.043 114.893,126.376 115.5,126.5C 116.788,124.701 116.788,123.035 115.5,121.5C 115.649,120.448 115.483,119.448 115,118.5C 113.188,116.7 111.355,115.033 109.5,113.5C 113.734,113.406 116.067,115.406 116.5,119.5C 117.5,119.5 118.5,119.5 119.5,119.5C 119.343,120.873 119.51,122.207 120,123.5C 120.067,120.689 121.234,118.523 123.5,117C 120.937,114.896 118.27,113.062 115.5,111.5C 120.265,110.651 123.598,112.317 125.5,116.5C 125.739,118.467 125.406,120.301 124.5,122C 125.167,122.333 125.833,122.667 126.5,123C 124.574,123.422 123.574,124.589 123.5,126.5C 123.657,127.873 123.49,129.207 123,130.5C 121.574,132.766 119.74,134.432 117.5,135.5C 115.213,135.724 113.047,136.391 111,137.5C 110.228,137.355 109.561,137.022 109,136.5C 107.883,138.124 106.383,139.124 104.5,139.5C 101.722,139.461 98.8885,139.128 96,138.5C 93.2408,139.323 90.4074,139.99 87.5,140.5C 85.5998,139.553 84.2665,138.053 83.5,136C 82.2068,135.51 80.8734,135.343 79.5,135.5C 79.762,136.978 79.4287,138.311 78.5,139.5C 77.6143,138.675 77.281,137.675 77.5,136.5C 73.6698,138.582 70.6698,137.749 68.5,134C 66.9751,132.991 65.3084,132.491 63.5,132.5C 63.5,131.5 63.5,130.5 63.5,129.5C 61.8333,129.5 60.1667,129.5 58.5,129.5C 58.0713,126.853 56.7379,124.853 54.5,123.5C 54.4142,122.504 54.7476,121.671 55.5,121C 53.4727,118.823 52.1393,116.323 51.5,113.5C 52.7051,110.435 52.0385,107.768 49.5,105.5 Z"/></g>
<g><path style="opacity:1" fill="#af5954" d="M 80.5,123.5 C 80.1814,125.75 80.6814,127.75 82,129.5C 82.1981,127.618 82.6981,125.952 83.5,124.5C 83.6633,126.857 83.4966,129.19 83,131.5C 82,130.167 81,130.167 80,131.5C 79.5,131 79,130.5 78.5,130C 79.1172,127.723 79.7839,125.556 80.5,123.5 Z"/></g>
<g><path style="opacity:1" fill="#e39c93" d="M 115.5,121.5 C 116.788,123.035 116.788,124.701 115.5,126.5C 114.893,126.376 114.56,126.043 114.5,125.5C 115.434,124.432 115.768,123.099 115.5,121.5 Z"/></g>
<g><path style="opacity:1" fill="#b0362e" d="M 99.5,121.5 C 100.833,122.167 101.833,123.167 102.5,124.5C 102.699,129.134 100.699,132.134 96.5,133.5C 96.5,130.833 96.5,128.167 96.5,125.5C 96.5544,123.368 97.5544,122.035 99.5,121.5 Z"/></g>
<g><path style="opacity:1" fill="#ba6b67" d="M 99.5,121.5 C 97.5544,122.035 96.5544,123.368 96.5,125.5C 95.8333,126.5 95.1667,127.5 94.5,128.5C 94.523,126.073 95.023,123.74 96,121.5C 97.2917,120.209 98.4583,120.209 99.5,121.5 Z"/></g>
<g><path style="opacity:1" fill="#e5938a" d="M 71.5,120.5 C 71.2155,122.415 71.5489,124.081 72.5,125.5C 72.44,126.043 72.1067,126.376 71.5,126.5C 70.6143,125.675 70.281,124.675 70.5,123.5C 70.2627,122.209 70.596,121.209 71.5,120.5 Z"/></g>
<g><path style="opacity:1" fill="#7f3025" d="M 58.5,129.5 C 60.1667,129.5 61.8333,129.5 63.5,129.5C 63.5,130.5 63.5,131.5 63.5,132.5C 65.3084,132.491 66.9751,132.991 68.5,134C 70.6698,137.749 73.6698,138.582 77.5,136.5C 77.281,137.675 77.6143,138.675 78.5,139.5C 79.4287,138.311 79.762,136.978 79.5,135.5C 80.8734,135.343 82.2068,135.51 83.5,136C 84.2665,138.053 85.5998,139.553 87.5,140.5C 90.4074,139.99 93.2408,139.323 96,138.5C 98.8885,139.128 101.722,139.461 104.5,139.5C 106.383,139.124 107.883,138.124 109,136.5C 109.561,137.022 110.228,137.355 111,137.5C 113.047,136.391 115.213,135.724 117.5,135.5C 116.859,136.482 116.193,137.482 115.5,138.5C 104.993,140.927 94.3261,142.093 83.5,142C 83.8333,142.333 84.1667,142.667 84.5,143C 92.865,143.623 101.198,143.29 109.5,142C 114.128,140.51 118.794,139.343 123.5,138.5C 112.32,144.077 100.32,146.41 87.5,145.5C 85.8333,145.5 84.1667,145.5 82.5,145.5C 74.4972,142.999 66.4972,140.499 58.5,138C 61.206,140.371 63.5394,143.037 65.5,146C 67.7343,147.75 70.0676,149.25 72.5,150.5C 72.8333,151.167 73.1667,151.833 73.5,152.5C 71.2646,152.795 69.2646,152.461 67.5,151.5C 68.7383,151.19 68.7383,150.69 67.5,150C 61.3476,145.677 55.681,140.843 50.5,135.5C 53.0312,136.03 55.0312,137.364 56.5,139.5C 56.8333,138.833 57.1667,138.167 57.5,137.5C 54.639,134.31 54.9723,131.644 58.5,129.5 Z"/></g>
<g><path style="opacity:1" fill="#602d28" d="M 13.5,123.5 C 16.694,123.176 17.694,124.342 16.5,127C 18.0581,127.21 19.3915,127.71 20.5,128.5C 21.5462,130.466 22.5462,132.466 23.5,134.5C 25.7812,135.277 27.9479,136.277 30,137.5C 29.4717,140.109 29.805,142.775 31,145.5C 31.3076,144.692 31.8076,144.025 32.5,143.5C 35.682,146.849 39.0154,150.016 42.5,153C 41.5,153.333 40.5,153.667 39.5,154C 42.792,154.86 46.1253,155.36 49.5,155.5C 50.8333,158.833 52.1667,162.167 53.5,165.5C 56.1194,165.768 58.6194,165.435 61,164.5C 61.2492,165.624 61.7492,166.624 62.5,167.5C 66.23,166.181 67.5634,167.348 66.5,171C 67.4162,171.374 68.2496,171.874 69,172.5C 73.7583,171.742 78.4249,170.742 83,169.5C 87.5789,169.649 91.9122,170.649 96,172.5C 100.543,170.374 105.377,169.041 110.5,168.5C 111.15,168.804 111.817,169.137 112.5,169.5C 114.169,168.329 115.669,166.996 117,165.5C 121.15,167.198 124.817,166.531 128,163.5C 130.46,164.278 132.96,164.111 135.5,163C 135.167,162.667 134.833,162.333 134.5,162C 136.869,161.686 139.036,160.852 141,159.5C 142.907,161.141 143.74,160.641 143.5,158C 141.058,155.062 139.391,151.729 138.5,148C 146.187,148.238 152.354,145.072 157,138.5C 157.49,137.207 157.657,135.873 157.5,134.5C 159.769,133.563 161.769,132.23 163.5,130.5C 162.433,132.879 163.433,133.879 166.5,133.5C 166.312,135.103 166.812,136.437 168,137.5C 168.893,136.289 169.726,136.289 170.5,137.5C 169.083,140.67 167.416,143.67 165.5,146.5C 163.184,144.506 160.518,143.506 157.5,143.5C 157.5,144.5 157.5,145.5 157.5,146.5C 159.59,146.45 160.923,147.45 161.5,149.5C 163.045,150.452 164.712,150.785 166.5,150.5C 163.856,152.969 161.023,155.302 158,157.5C 157.209,158.745 156.709,160.078 156.5,161.5C 155.363,162.789 154.03,163.789 152.5,164.5C 150.103,157.513 148.436,157.846 147.5,165.5C 145.5,164.833 143.5,164.167 141.5,163.5C 141.67,164.822 141.337,165.989 140.5,167C 137.411,167.148 134.578,167.981 132,169.5C 130.699,168.107 129.199,167.607 127.5,168C 127.501,169.399 127.835,170.899 128.5,172.5C 128.081,173.672 127.415,174.672 126.5,175.5C 125.051,174.383 123.384,173.716 121.5,173.5C 114.835,174.862 108.335,176.528 102,178.5C 95.9156,177.358 89.7489,177.191 83.5,178C 82.8921,178.87 82.0588,179.37 81,179.5C 76.9926,177.246 72.6592,175.913 68,175.5C 67.0546,175.905 66.3879,176.572 66,177.5C 64.9025,176.033 63.4025,175.199 61.5,175C 62.3685,173.535 61.8685,172.369 60,171.5C 58.7387,171.759 57.7387,172.426 57,173.5C 55.9887,172.663 54.8221,172.33 53.5,172.5C 53.6602,170.801 53.4935,169.134 53,167.5C 52.0347,169.26 50.868,169.594 49.5,168.5C 52.2724,166.915 52.1057,165.915 49,165.5C 46.0459,165.594 45.8792,166.094 48.5,167C 47.5,167.667 46.5,167.667 45.5,167C 45.4908,165.27 45.1575,163.437 44.5,161.5C 43.7025,161.957 43.3691,162.624 43.5,163.5C 42.8386,162.282 42.1719,160.949 41.5,159.5C 40.914,159.709 40.414,160.043 40,160.5C 39.3333,159.167 38.6667,157.833 38,156.5C 34.6513,154.147 31.6513,151.48 29,148.5C 28.6667,149.167 28.3333,149.833 28,150.5C 26.7037,147.038 24.2037,145.372 20.5,145.5C 20.6567,144.127 20.49,142.793 20,141.5C 18.2201,139.707 16.3868,138.04 14.5,136.5C 15.325,135.614 16.325,135.281 17.5,135.5C 17.6499,131.839 16.1499,130.839 13,132.5C 11.8333,131.333 10.6667,130.167 9.5,129C 11.7458,127.743 13.0791,125.91 13.5,123.5 Z"/></g>
<g><path style="opacity:1" fill="#cc8e48" d="M 23.5,107.5 C 25.8333,110.167 28.1667,112.833 30.5,115.5C 36.1305,122.798 42.4639,129.465 49.5,135.5C 49.8333,135.5 50.1667,135.5 50.5,135.5C 55.681,140.843 61.3476,145.677 67.5,150C 68.7383,150.69 68.7383,151.19 67.5,151.5C 46.2639,144.223 27.5973,132.89 11.5,117.5C 14.09,118.128 16.4234,119.295 18.5,121C 21.49,123.655 24.49,126.322 27.5,129C 29.0444,130.187 30.7111,130.52 32.5,130C 30.5884,128.8 29.2551,127.133 28.5,125C 30.3126,125.046 31.9793,124.88 33.5,124.5C 32.8078,121.877 31.3078,119.877 29,118.5C 28.6667,119.833 28.3333,121.167 28,122.5C 27.3333,121.167 26.6667,121.167 26,122.5C 25.487,120.479 24.3203,118.979 22.5,118C 24.1161,117.385 25.4495,116.385 26.5,115C 24.8222,112.806 23.8222,110.306 23.5,107.5 Z"/></g>
<g><path style="opacity:1" fill="#cd884f" d="M 82.5,145.5 C 77.3229,145.391 72.3229,144.891 67.5,144C 68.9993,146.328 70.666,148.495 72.5,150.5C 70.0676,149.25 67.7343,147.75 65.5,146C 63.5394,143.037 61.206,140.371 58.5,138C 66.4972,140.499 74.4972,142.999 82.5,145.5 Z"/></g>
<g><path style="opacity:1" fill="#6e3022" d="M 9.5,116.5 C 10.1667,116.833 10.8333,117.167 11.5,117.5C 27.5973,132.89 46.2639,144.223 67.5,151.5C 69.2646,152.461 71.2646,152.795 73.5,152.5C 76.4483,154.362 79.4483,156.029 82.5,157.5C 78.0354,156.633 73.7021,155.3 69.5,153.5C 67.8651,153.878 66.3651,154.544 65,155.5C 64.5,155.167 64,154.833 63.5,154.5C 64.1667,153.833 64.8333,153.167 65.5,152.5C 60.9897,150.264 56.323,149.93 51.5,151.5C 51.4208,150.07 51.7542,148.736 52.5,147.5C 45.2743,148.695 40.2743,145.862 37.5,139C 31.9129,135.221 26.2463,131.721 20.5,128.5C 19.3915,127.71 18.0581,127.21 16.5,127C 17.694,124.342 16.694,123.176 13.5,123.5C 11.8027,121.447 10.4694,119.113 9.5,116.5 Z"/></g>
<g><path style="opacity:1" fill="#76311d" d="M 132.5,139.5 C 128.361,143.468 124.027,147.301 119.5,151C 124.385,149.651 129.052,147.818 133.5,145.5C 139.183,142.803 144.85,140.137 150.5,137.5C 148.998,139.175 147.665,141.008 146.5,143C 141.272,144.974 135.938,146.641 130.5,148C 125.652,153.084 119.652,155.417 112.5,155C 105.234,159.37 97.5678,160.537 89.5,158.5C 106.08,158.543 119.08,151.71 128.5,138C 127.423,137.53 126.423,137.697 125.5,138.5C 126.215,136.44 127.549,134.774 129.5,133.5C 130.5,133.833 131.167,134.5 131.5,135.5C 128.587,137.901 128.921,139.234 132.5,139.5 Z"/></g>
<g><path style="opacity:1" fill="#cb8453" d="M 134.5,138.5 C 133.457,141.056 131.79,143.223 129.5,145C 130.793,145.49 132.127,145.657 133.5,145.5C 129.052,147.818 124.385,149.651 119.5,151C 124.027,147.301 128.361,143.468 132.5,139.5C 133.167,139.167 133.833,138.833 134.5,138.5 Z"/></g>
<g><path style="opacity:1" fill="#d38d3f" d="M 82.5,145.5 C 84.1667,145.5 85.8333,145.5 87.5,145.5C 92.7284,146.773 97.7284,148.773 102.5,151.5C 101.833,153.5 101.167,155.5 100.5,157.5C 96.4862,157.666 92.4862,157.499 88.5,157C 85.3396,155.629 82.0063,154.629 78.5,154C 79.6872,152.981 80.6872,151.814 81.5,150.5C 80.8333,150.167 80.1667,149.833 79.5,149.5C 77.2178,150.223 74.8845,150.557 72.5,150.5C 70.666,148.495 68.9993,146.328 67.5,144C 72.3229,144.891 77.3229,145.391 82.5,145.5 Z"/></g>
<g><path style="opacity:1" fill="#d08845" d="M 89.5,158.5 C 87.139,158.326 84.8056,157.993 82.5,157.5C 79.4483,156.029 76.4483,154.362 73.5,152.5C 73.1667,151.833 72.8333,151.167 72.5,150.5C 74.8845,150.557 77.2178,150.223 79.5,149.5C 80.1667,149.833 80.8333,150.167 81.5,150.5C 80.6872,151.814 79.6872,152.981 78.5,154C 82.0063,154.629 85.3396,155.629 88.5,157C 92.4862,157.499 96.4862,157.666 100.5,157.5C 101.167,155.5 101.833,153.5 102.5,151.5C 97.7284,148.773 92.7284,146.773 87.5,145.5C 100.32,146.41 112.32,144.077 123.5,138.5C 124.167,138.5 124.833,138.5 125.5,138.5C 126.423,137.697 127.423,137.53 128.5,138C 119.08,151.71 106.08,158.543 89.5,158.5 Z"/></g>
<g><path style="opacity:1" fill="#672d2a" d="M 20.5,128.5 C 26.2463,131.721 31.9129,135.221 37.5,139C 40.2743,145.862 45.2743,148.695 52.5,147.5C 51.7542,148.736 51.4208,150.07 51.5,151.5C 51.777,154.459 53.1104,155.126 55.5,153.5C 56.938,153.719 58.2713,154.219 59.5,155C 58.6634,156.011 58.33,157.178 58.5,158.5C 60.8268,158.335 62.9935,157.669 65,156.5C 66.9104,158.98 69.4104,160.647 72.5,161.5C 73.2621,162.628 73.9288,163.795 74.5,165C 80.5,165.333 86.5,165.667 92.5,166C 93.263,166.944 94.263,167.444 95.5,167.5C 100.391,165.79 105.391,165.29 110.5,166C 109.402,166.77 109.402,167.603 110.5,168.5C 105.377,169.041 100.543,170.374 96,172.5C 91.9122,170.649 87.5789,169.649 83,169.5C 78.4249,170.742 73.7583,171.742 69,172.5C 68.2496,171.874 67.4162,171.374 66.5,171C 67.5634,167.348 66.23,166.181 62.5,167.5C 61.7492,166.624 61.2492,165.624 61,164.5C 58.6194,165.435 56.1194,165.768 53.5,165.5C 52.1667,162.167 50.8333,158.833 49.5,155.5C 46.1253,155.36 42.792,154.86 39.5,154C 40.5,153.667 41.5,153.333 42.5,153C 39.0154,150.016 35.682,146.849 32.5,143.5C 31.8076,144.025 31.3076,144.692 31,145.5C 29.805,142.775 29.4717,140.109 30,137.5C 27.9479,136.277 25.7812,135.277 23.5,134.5C 22.5462,132.466 21.5462,130.466 20.5,128.5 Z"/></g>
<g><path style="opacity:1" fill="#692d28" d="M 157.5,134.5 C 157.657,135.873 157.49,137.207 157,138.5C 152.354,145.072 146.187,148.238 138.5,148C 139.391,151.729 141.058,155.062 143.5,158C 143.74,160.641 142.907,161.141 141,159.5C 139.036,160.852 136.869,161.686 134.5,162C 134.833,162.333 135.167,162.667 135.5,163C 132.96,164.111 130.46,164.278 128,163.5C 124.817,166.531 121.15,167.198 117,165.5C 115.669,166.996 114.169,168.329 112.5,169.5C 111.817,169.137 111.15,168.804 110.5,168.5C 109.402,167.603 109.402,166.77 110.5,166C 105.391,165.29 100.391,165.79 95.5,167.5C 94.263,167.444 93.263,166.944 92.5,166C 86.5,165.667 80.5,165.333 74.5,165C 73.9288,163.795 73.2621,162.628 72.5,161.5C 69.4104,160.647 66.9104,158.98 65,156.5C 62.9935,157.669 60.8268,158.335 58.5,158.5C 58.33,157.178 58.6634,156.011 59.5,155C 58.2713,154.219 56.938,153.719 55.5,153.5C 53.1104,155.126 51.777,154.459 51.5,151.5C 56.323,149.93 60.9897,150.264 65.5,152.5C 64.8333,153.167 64.1667,153.833 63.5,154.5C 64,154.833 64.5,155.167 65,155.5C 66.3651,154.544 67.8651,153.878 69.5,153.5C 73.7021,155.3 78.0354,156.633 82.5,157.5C 84.8056,157.993 87.139,158.326 89.5,158.5C 97.5678,160.537 105.234,159.37 112.5,155C 119.652,155.417 125.652,153.084 130.5,148C 135.938,146.641 141.272,144.974 146.5,143C 147.665,141.008 148.998,139.175 150.5,137.5C 152.954,136.773 155.287,135.773 157.5,134.5 Z"/></g>
<g><path style="opacity:1" fill="#977736" d="M 8.5,142.5 C 9.76597,143.09 11.0993,143.59 12.5,144C 17.2371,149.203 22.5704,153.703 28.5,157.5C 29.9524,158.94 30.9524,160.606 31.5,162.5C 27.3252,158.819 22.8252,155.485 18,152.5C 17.2825,153.451 16.4491,153.617 15.5,153C 16.6853,150.222 15.6853,148.722 12.5,148.5C 12.5,147.5 12.5,146.5 12.5,145.5C 11.1667,145.5 9.83333,145.5 8.5,145.5C 8.5,144.5 8.5,143.5 8.5,142.5 Z"/></g>
<g><path style="opacity:1" fill="#96733f" d="M 182.5,137.5 C 181.7,139.682 180.2,141.349 178,142.5C 174.357,149.746 168.19,154.913 159.5,158C 158.837,159.518 157.837,160.685 156.5,161.5C 156.709,160.078 157.209,158.745 158,157.5C 161.023,155.302 163.856,152.969 166.5,150.5C 172.148,146.515 177.481,142.182 182.5,137.5 Z"/></g>
<g><path style="opacity:1" fill="#84623e" d="M -0.5,154.5 C 1.44167,159.056 2.10834,164.056 1.5,169.5C 1.5,170.833 0.833333,171.5 -0.5,171.5C -0.5,165.833 -0.5,160.167 -0.5,154.5 Z"/></g>
<g><path style="opacity:1" fill="#b99845" d="M 185.5,133.5 C 185.5,150.5 185.5,167.5 185.5,184.5C 169.5,184.5 153.5,184.5 137.5,184.5C 142.147,181.171 145.814,176.838 148.5,171.5C 149.496,171.586 150.329,171.252 151,170.5C 153.257,167.701 155.091,164.701 156.5,161.5C 157.837,160.685 158.837,159.518 159.5,158C 168.19,154.913 174.357,149.746 178,142.5C 180.2,141.349 181.7,139.682 182.5,137.5C 183.026,135.77 184.026,134.436 185.5,133.5 Z"/></g>
<g><path style="opacity:1" fill="#b59443" d="M -0.5,133.5 C 2.13953,136.806 5.13953,139.806 8.5,142.5C 8.5,143.5 8.5,144.5 8.5,145.5C 9.83333,145.5 11.1667,145.5 12.5,145.5C 12.5,146.5 12.5,147.5 12.5,148.5C 15.6853,148.722 16.6853,150.222 15.5,153C 16.4491,153.617 17.2825,153.451 18,152.5C 22.8252,155.485 27.3252,158.819 31.5,162.5C 34.1667,165.5 36.8333,168.5 39.5,171.5C 41.8847,173.884 43.8847,176.55 45.5,179.5C 43.9557,179.297 42.6223,178.63 41.5,177.5C 40.7189,178.729 40.2189,180.062 40,181.5C 38.8492,177.767 37.5159,173.767 36,169.5C 34.414,168.624 32.914,167.624 31.5,166.5C 30.3279,166.919 29.3279,167.585 28.5,168.5C 30.297,169.695 31.297,171.362 31.5,173.5C 28.2699,173.439 26.4365,171.772 26,168.5C 24.2933,169.138 22.46,169.138 20.5,168.5C 20.6503,165.074 19.4837,164.741 17,167.5C 15.6054,166.185 14.6054,166.519 14,168.5C 12.4419,167.655 11.4419,168.321 11,170.5C 10.1524,167.44 9.15241,164.44 8,161.5C 6.33333,162.833 4.66667,162.833 3,161.5C 2.8171,164.365 2.3171,167.031 1.5,169.5C 2.10834,164.056 1.44167,159.056 -0.5,154.5C -0.5,147.5 -0.5,140.5 -0.5,133.5 Z"/></g>
<g><path style="opacity:1" fill="#5a2d28" d="M 152.5,164.5 C 151.139,166.85 149.806,169.184 148.5,171.5C 144.277,175.602 140.277,179.935 136.5,184.5C 107.833,184.5 79.1667,184.5 50.5,184.5C 49.5218,182.188 47.8552,180.522 45.5,179.5C 43.8847,176.55 41.8847,173.884 39.5,171.5C 39.5,169.5 39.5,167.5 39.5,165.5C 41.4832,165.843 42.8166,165.176 43.5,163.5C 43.3691,162.624 43.7025,161.957 44.5,161.5C 45.1575,163.437 45.4908,165.27 45.5,167C 46.5,167.667 47.5,167.667 48.5,167C 45.8792,166.094 46.0459,165.594 49,165.5C 52.1057,165.915 52.2724,166.915 49.5,168.5C 50.868,169.594 52.0347,169.26 53,167.5C 53.4935,169.134 53.6602,170.801 53.5,172.5C 54.8221,172.33 55.9887,172.663 57,173.5C 57.7387,172.426 58.7387,171.759 60,171.5C 61.8685,172.369 62.3685,173.535 61.5,175C 63.4025,175.199 64.9025,176.033 66,177.5C 66.3879,176.572 67.0546,175.905 68,175.5C 72.6592,175.913 76.9926,177.246 81,179.5C 82.0588,179.37 82.8921,178.87 83.5,178C 89.7489,177.191 95.9156,177.358 102,178.5C 108.335,176.528 114.835,174.862 121.5,173.5C 123.384,173.716 125.051,174.383 126.5,175.5C 127.415,174.672 128.081,173.672 128.5,172.5C 127.835,170.899 127.501,169.399 127.5,168C 129.199,167.607 130.699,168.107 132,169.5C 134.578,167.981 137.411,167.148 140.5,167C 141.337,165.989 141.67,164.822 141.5,163.5C 143.5,164.167 145.5,164.833 147.5,165.5C 148.436,157.846 150.103,157.513 152.5,164.5 Z"/></g>
<g><path style="opacity:1" fill="#8c663d" d="M 156.5,161.5 C 155.091,164.701 153.257,167.701 151,170.5C 150.329,171.252 149.496,171.586 148.5,171.5C 149.806,169.184 151.139,166.85 152.5,164.5C 154.03,163.789 155.363,162.789 156.5,161.5 Z"/></g>
<g><path style="opacity:1" fill="#bd9e48" d="M 45.5,179.5 C 45.366,181.292 45.6993,182.958 46.5,184.5C 30.8333,184.5 15.1667,184.5 -0.5,184.5C -0.5,180.167 -0.5,175.833 -0.5,171.5C 0.833333,171.5 1.5,170.833 1.5,169.5C 2.3171,167.031 2.8171,164.365 3,161.5C 4.66667,162.833 6.33333,162.833 8,161.5C 9.15241,164.44 10.1524,167.44 11,170.5C 11.4419,168.321 12.4419,167.655 14,168.5C 14.6054,166.519 15.6054,166.185 17,167.5C 19.4837,164.741 20.6503,165.074 20.5,168.5C 22.46,169.138 24.2933,169.138 26,168.5C 26.4365,171.772 28.2699,173.439 31.5,173.5C 31.297,171.362 30.297,169.695 28.5,168.5C 29.3279,167.585 30.3279,166.919 31.5,166.5C 32.914,167.624 34.414,168.624 36,169.5C 37.5159,173.767 38.8492,177.767 40,181.5C 40.2189,180.062 40.7189,178.729 41.5,177.5C 42.6223,178.63 43.9557,179.297 45.5,179.5 Z"/></g>
<g><path style="opacity:1" fill="#906c43" d="M 148.5,171.5 C 145.814,176.838 142.147,181.171 137.5,184.5C 137.167,184.5 136.833,184.5 136.5,184.5C 140.277,179.935 144.277,175.602 148.5,171.5 Z"/></g>
<g><path style="opacity:1" fill="#937339" d="M 45.5,179.5 C 47.8552,180.522 49.5218,182.188 50.5,184.5C 49.1667,184.5 47.8333,184.5 46.5,184.5C 45.6993,182.958 45.366,181.292 45.5,179.5 Z"/></g>
</svg>
