<?xml version="1.0" standalone="no"?>
<!DOCTYPE svg PUBLIC "-//W3C//DTD SVG 20010904//EN"
 "http://www.w3.org/TR/2001/REC-SVG-20010904/DTD/svg10.dtd">
<svg version="1.0" xmlns="http://www.w3.org/2000/svg"
 width="128.000000pt" height="128.000000pt" viewBox="0 0 128.000000 128.000000"
 preserveAspectRatio="xMidYMid meet">

<g transform="translate(0.000000,128.000000) scale(0.100000,-0.100000)"
fill="#000000" stroke="none">
<path d="M472 1230 c-325 -87 -526 -410 -457 -734 28 -131 110 -269 210 -350
64 -53 192 -118 224 -114 25 3 26 7 29 66 l3 62 -58 0 c-82 0 -120 23 -163 98
-19 34 -48 71 -63 83 -19 14 -25 25 -18 32 19 19 66 -5 122 -64 53 -56 59 -59
103 -59 53 0 86 14 86 36 0 8 7 25 15 38 16 23 15 24 -27 30 -103 15 -194 83
-223 166 -36 101 -29 201 18 271 18 27 21 41 16 69 -4 19 -6 45 -3 58 14 73
13 72 44 72 17 0 57 -13 89 -30 59 -29 60 -29 140 -18 62 9 100 9 161 0 79
-11 80 -11 136 18 31 17 71 30 89 30 29 0 34 -4 40 -30 4 -17 5 -54 4 -83 -2
-40 2 -60 19 -87 64 -102 42 -280 -45 -362 -34 -33 -104 -65 -161 -74 l-41 -6
16 -32 c12 -22 19 -67 23 -156 5 -121 6 -125 28 -128 13 -2 51 10 85 26 337
159 466 566 280 881 -76 128 -213 237 -353 283 -96 30 -271 35 -368 8z"/>
</g>
</svg>
