<?xml version="1.0" standalone="no"?>
<!DOCTYPE svg PUBLIC "-//W3C//DTD SVG 20010904//EN"
 "http://www.w3.org/TR/2001/REC-SVG-20010904/DTD/svg10.dtd">
<svg version="1.0" xmlns="http://www.w3.org/2000/svg"
 width="1920.000000pt" height="1080.000000pt" viewBox="0 0 1920.000000 1080.000000"
 preserveAspectRatio="xMidYMid meet">

<g transform="translate(0.000000,1080.000000) scale(0.100000,-0.100000)"
fill="#000000" stroke="none">
<path d="M0 5400 l0 -5400 9600 0 9600 0 0 5400 0 5400 -3480 0 c-3089 0
-3479 -2 -3474 -15 5 -12 -3 -15 -32 -16 -22 -1 -48 -2 -59 -3 -37 -2 -75 -36
-75 -67 0 -27 -3 -29 -40 -29 -22 0 -40 5 -40 10 0 19 -16 10 -32 -18 -12 -20
-14 -32 -7 -39 8 -8 5 -13 -10 -18 -11 -3 -25 -4 -30 -1 -12 8 -61 -32 -58
-47 1 -7 -10 -13 -26 -15 -16 -2 -36 -15 -48 -32 -13 -17 -27 -26 -36 -23 -8
3 -27 -4 -42 -15 -15 -11 -47 -26 -69 -33 -23 -7 -42 -18 -42 -26 0 -7 -6 -13
-13 -13 -7 0 -20 -9 -30 -21 -11 -12 -25 -18 -36 -14 -12 3 -22 -3 -31 -20 -7
-14 -22 -25 -32 -25 -10 0 -18 -6 -18 -14 0 -14 -36 -29 -77 -32 -45 -3 -83
-25 -83 -50 0 -19 -9 -28 -40 -40 -35 -14 -38 -18 -24 -31 12 -12 17 -13 30
-3 21 18 26 8 13 -31 -16 -45 -17 -46 -32 -25 -12 16 -17 17 -36 6 -13 -6 -34
-9 -47 -6 -14 4 -24 2 -24 -4 0 -5 7 -10 15 -10 18 0 20 -20 3 -21 -28 -3 -64
3 -72 12 -6 5 -32 9 -58 9 l-48 0 0 -49 c0 -30 -5 -51 -12 -54 -10 -4 -9 -8 2
-16 8 -6 15 -16 15 -23 1 -7 5 -30 9 -52 7 -29 5 -40 -5 -47 -11 -7 -9 -9 7
-9 11 0 24 -3 28 -7 10 -10 -137 -33 -147 -23 -5 4 -7 23 -5 41 2 26 8 35 26
37 24 4 32 -22 10 -31 -7 -3 -1 -6 15 -6 17 -1 27 4 27 13 0 28 -12 46 -31 46
-10 0 -19 5 -19 10 0 6 -18 10 -40 10 -34 0 -40 -3 -40 -21 0 -19 -4 -20 -40
-14 -26 4 -40 3 -40 -4 0 -6 -5 -11 -11 -11 -23 0 -69 -59 -69 -89 0 -37 -9
-63 -20 -56 -5 3 -11 1 -14 -4 -8 -12 -88 6 -98 22 -4 6 -3 16 2 21 6 6 9 19
9 31 -1 18 -2 18 -6 2 -6 -22 -40 -58 -51 -55 -4 2 -8 -1 -9 -7 -2 -13 -46
-24 -53 -13 -9 13 -52 -23 -46 -38 3 -8 0 -15 -7 -16 -62 -7 -101 -21 -126
-44 -14 -13 -33 -24 -42 -24 -8 0 -19 -3 -22 -6 -8 -8 -101 -42 -142 -52 -16
-5 -30 -14 -30 -22 0 -7 -14 -18 -31 -24 -17 -6 -29 -15 -28 -21 2 -5 -1 -17
-6 -25 -9 -13 -13 -12 -28 5 -9 11 -29 26 -44 32 -20 9 -27 19 -25 35 1 15 -3
23 -13 23 -16 0 -32 -66 -20 -84 3 -6 2 -38 -4 -71 -8 -52 -12 -59 -28 -54
-11 3 -25 0 -33 -6 -8 -7 -22 -10 -30 -6 -8 3 -15 1 -15 -5 0 -14 -26 -39 -39
-39 -19 0 -72 53 -67 67 3 7 0 15 -6 19 -7 5 -8 2 -4 -7 4 -8 1 -6 -8 4 -10
13 -26 18 -53 17 -71 -5 -70 -6 -71 68 -1 37 2 72 6 77 8 12 41 34 62 41 14 5
40 48 40 66 0 4 -24 8 -54 8 -56 0 -73 13 -55 41 7 12 9 12 9 -1 0 -8 10 9 20
39 11 30 19 55 17 56 -17 14 -52 25 -77 25 -17 0 -45 8 -63 17 l-32 17 30 7
c30 7 30 7 3 8 -15 0 -30 6 -33 12 -4 6 -13 8 -21 5 -8 -3 -29 8 -48 25 -22
18 -36 25 -38 17 -6 -16 -230 -17 -236 0 -5 17 -22 15 -22 -3 0 -8 -7 -15 -15
-15 -8 0 -15 7 -15 15 0 8 -7 15 -15 15 -8 0 -15 -5 -15 -10 0 -6 -8 -5 -20 2
-16 10 -24 10 -39 1 -15 -10 -21 -10 -24 0 -3 7 -17 -14 -31 -46 -15 -32 -24
-63 -21 -68 4 -5 -1 -9 -9 -9 -9 0 -16 8 -16 18 -1 16 -1 16 -11 0 -11 -19
-69 -25 -69 -8 0 6 7 10 15 10 8 0 15 6 15 12 0 19 54 127 63 128 4 0 21 10
37 21 l28 22 -22 24 c-23 25 -24 25 -57 8 l-33 -18 -66 72 c-58 63 -69 71
-102 71 -20 0 -44 7 -52 16 -38 38 -109 32 -158 -13 -11 -10 -18 -12 -18 -5 0
22 -29 12 -32 -10 -3 -20 -9 -23 -43 -22 -54 1 -135 25 -135 41 0 7 -14 22
-30 35 -17 12 -30 28 -30 35 0 7 -7 13 -15 13 -8 0 -19 8 -24 19 -9 16 -26 19
-120 23 -81 3 -116 9 -135 22 -16 10 -36 15 -49 11 -15 -4 -18 -3 -9 3 9 6 11
18 6 36 -4 16 -9 23 -13 18 -9 -15 -61 34 -61 58 0 15 -7 20 -27 20 -33 0 -41
6 -71 44 -13 18 -20 37 -17 48 5 14 1 18 -20 18 -25 0 -26 2 -19 38 4 20 11
40 16 43 5 3 2 12 -7 19 -13 11 -15 8 -15 -24 0 -20 -5 -36 -11 -36 -6 0 -9 9
-6 19 4 15 -1 21 -21 23 -14 2 -30 12 -36 22 -19 34 -45 56 -66 56 -11 0 -20
7 -20 15 0 8 -11 26 -25 40 l-26 25 -3614 0 -3615 0 0 -5400z m15639 5317 c0
-21 -1 -21 -9 -2 -12 28 -12 37 0 30 6 -3 10 -16 9 -28z m-11094 -37 c3 -5 1
-10 -4 -10 -6 0 -11 5 -11 10 0 6 2 10 4 10 3 0 8 -4 11 -10z m7713 -186 c16
-5 22 -14 22 -35 0 -34 -15 -45 -37 -28 -27 23 -37 69 -15 69 4 0 17 -3 30 -6z
m1132 -119 c0 -8 -4 -15 -9 -15 -5 0 -11 7 -15 15 -3 9 0 15 9 15 8 0 15 -7
15 -15z m3665 -118 c14 -20 15 -21 15 -2 1 18 2 18 10 3 12 -20 -25 -91 -44
-85 -11 4 -13 10 -15 62 -1 23 -3 27 -11 15 -8 -12 -10 -11 -10 5 0 28 36 30
55 2z m-5695 -27 c0 -5 -11 -10 -24 -10 -14 0 -28 5 -31 10 -4 6 7 10 24 10
17 0 31 -4 31 -10z m-6836 -53 c6 -9 7 -19 3 -23 -9 -9 -37 15 -37 33 0 18 20
12 34 -10z m11072 -151 c-10 -39 -21 -31 -23 15 -1 37 0 40 14 26 10 -10 13
-24 9 -41z m-10208 -15 c3 -8 -1 -12 -9 -9 -7 2 -15 10 -17 17 -3 8 1 12 9 9
7 -2 15 -10 17 -17z m1514 -94 c47 -55 30 -137 -29 -137 -15 0 -22 4 -18 11
12 18 -5 99 -21 99 -13 0 -17 42 -6 63 7 15 47 -5 74 -36z m10288 -127 c0 -5
-5 -10 -11 -10 -5 0 -7 5 -4 10 3 6 8 10 11 10 2 0 4 -4 4 -10z m-8405 -10 c3
-6 -1 -7 -9 -4 -18 7 -21 14 -7 14 6 0 13 -4 16 -10z m40 -20 c3 -5 -3 -10
-15 -10 -12 0 -18 5 -15 10 3 6 10 10 15 10 5 0 12 -4 15 -10z m53 -7 c-2 -10
-11 -19 -21 -21 -16 -3 -17 -1 -5 17 16 25 31 27 26 4z m1999 11 c-3 -3 -12
-4 -19 -1 -8 3 -5 6 6 6 11 1 17 -2 13 -5z m-7113 -30 c4 -11 1 -14 -11 -12
-9 2 -18 9 -21 16 -6 18 25 15 32 -4z m5156 -24 c0 -6 10 -15 23 -20 l22 -9
-22 0 c-13 -1 -23 4 -23 9 0 6 -10 15 -22 20 l-23 9 23 0 c12 1 22 -4 22 -9z
m1754 -15 c3 -8 0 -15 -7 -16 -9 0 -9 -2 1 -6 16 -6 15 -40 -2 -46 -13 -5 -46
21 -46 36 0 9 33 47 41 47 4 0 9 -7 13 -15z m375 -83 c5 -10 6 -24 2 -31 -6
-9 -13 -4 -24 18 -13 26 -13 31 -2 31 8 0 19 -8 24 -18z m-299 -102 c0 -13 -7
-20 -20 -20 -23 0 -26 10 -8 28 18 18 28 15 28 -8z m33 -54 c9 -7 17 -18 17
-24 0 -6 12 -24 26 -41 l25 -30 -22 -31 c-27 -35 -47 -38 -82 -10 -20 16 -34
19 -66 14 -36 -6 -41 -4 -41 13 0 11 9 29 20 41 11 12 20 26 20 32 0 5 5 10
11 10 5 0 7 5 4 10 -6 10 28 28 55 29 8 0 23 -6 33 -13z m-3553 -466 c0 -5 -4
-10 -10 -10 -5 0 -10 5 -10 10 0 6 5 10 10 10 6 0 10 -4 10 -10z m-879 -45 c0
-13 -41 -19 -41 -7 0 11 20 22 33 18 5 -1 8 -6 8 -11z m4846 -177 c-3 -8 -6
-5 -6 6 -1 11 2 17 5 13 3 -3 4 -12 1 -19z m4823 -18 c0 -5 -5 -10 -11 -10 -5
0 -7 5 -4 10 3 6 8 10 11 10 2 0 4 -4 4 -10z m-7490 -30 c8 -5 11 -10 5 -10
-5 0 -17 5 -25 10 -8 5 -10 10 -5 10 6 0 17 -5 25 -10z m-4662 -288 c6 -18
-15 -14 -22 4 -4 10 -1 14 6 12 6 -2 14 -10 16 -16z m4812 -182 c0 -5 -7 -7
-15 -4 -8 4 -15 8 -15 10 0 2 7 4 15 4 8 0 15 -4 15 -10z m1170 -80 c381 -84
774 -322 1024 -620 78 -92 186 -242 186 -258 0 -5 7 -15 16 -22 19 -17 14 -60
-9 -74 -14 -9 -30 -4 -81 23 -42 22 -62 39 -59 48 3 7 0 13 -6 13 -6 0 -11 -4
-11 -10 0 -5 -27 4 -59 21 -62 33 -65 39 -34 84 17 26 16 36 -3 28 -14 -5 -15
-3 -5 15 6 11 11 24 11 29 -1 4 -7 -3 -15 -17 -9 -17 -10 -29 -3 -37 7 -8 4
-20 -9 -37 -19 -27 -33 -32 -48 -18 -6 5 -37 19 -70 32 -33 12 -74 28 -91 36
-17 7 -55 19 -85 25 -30 6 -66 18 -81 25 -15 8 -29 14 -30 13 -2 0 -16 5 -33
12 -16 6 -37 13 -45 14 -8 1 -35 8 -60 15 -25 6 -56 14 -70 15 -14 2 -65 10
-115 19 -123 21 -140 24 -140 26 0 11 -455 13 -555 2 -36 -4 -93 -7 -127 -7
-35 0 -63 -3 -63 -7 0 -5 -4 -8 -10 -8 -17 0 -11 18 8 24 9 2 43 7 75 11 33 4
55 11 51 16 -3 6 -3 17 0 26 6 14 8 14 21 -3 13 -17 14 -17 15 -2 0 9 -5 20
-11 24 -8 5 -6 10 5 16 9 5 16 14 16 21 0 7 -4 6 -10 -3 -9 -13 -11 -13 -21 0
-9 13 -10 12 -5 -2 6 -21 -19 -48 -45 -48 -16 0 -19 -4 -14 -21 6 -18 5 -20
-14 -10 -12 7 -21 17 -21 23 0 6 -8 4 -18 -5 -10 -10 -22 -14 -27 -10 -4 5 -5
2 -1 -4 4 -7 2 -13 -4 -13 -6 0 -15 -10 -21 -22 l-10 -23 5 22 c2 13 0 25 -4
28 -5 3 -10 -7 -12 -22 -2 -20 -9 -28 -23 -28 -11 0 -22 -3 -25 -6 -3 -4 -20
-10 -37 -14 -32 -6 -33 -5 -33 24 0 16 5 33 10 36 6 3 10 1 10 -6 0 -7 2 -10
5 -7 8 8 -7 68 -17 68 -5 0 -9 -10 -8 -22 3 -37 1 -40 -16 -24 -14 14 -17 14
-39 0 -25 -16 -41 -44 -25 -44 6 0 10 7 10 15 0 20 10 19 27 -2 13 -17 14 -16
8 5 -4 12 -2 22 3 22 14 0 22 -39 10 -46 -6 -4 -5 -9 3 -14 8 -5 -1 -12 -26
-19 -41 -11 -59 -6 -35 9 8 6 10 10 4 10 -6 0 -19 -11 -29 -24 -10 -14 -26
-25 -34 -25 -27 0 -56 -6 -61 -12 -3 -3 -29 -14 -59 -24 -45 -14 -55 -15 -62
-4 -7 11 -9 10 -9 -3 0 -11 -11 -20 -27 -24 -16 -4 -34 -11 -40 -16 -7 -6 -20
-8 -28 -4 -9 3 -14 2 -11 -2 7 -12 -101 -55 -115 -46 -8 4 -9 3 -5 -4 4 -7 2
-12 -4 -12 -6 0 -13 7 -16 15 -4 8 -11 15 -17 15 -7 0 -7 -4 1 -12 25 -25 10
-37 -100 -86 -5 -2 -8 1 -8 6 0 5 9 12 20 15 13 3 20 14 20 28 0 12 -3 20 -6
16 -7 -7 -39 22 -46 43 -4 11 -9 7 -17 -13 -6 -16 -16 -25 -21 -22 -6 4 -7 11
-4 17 5 7 2 9 -7 6 -25 -10 -8 62 26 107 54 72 298 310 375 366 86 62 157 109
165 109 3 0 29 15 58 33 79 49 137 72 122 47 -3 -5 -1 -10 5 -10 7 0 10 7 7
15 -7 17 22 33 162 86 117 44 121 45 121 24 0 -8 4 -15 10 -15 5 0 7 7 4 15
-8 19 28 33 136 50 112 19 288 12 410 -15z m1517 -72 c-3 -8 -6 -5 -6 6 -1 11
2 17 5 13 3 -3 4 -12 1 -19z m-2554 -11 c3 -7 -11 -24 -32 -38 -20 -13 -43
-33 -52 -44 -28 -35 -228 -167 -241 -159 -6 4 -8 3 -5 -3 4 -6 -36 -43 -88
-82 -91 -69 -113 -82 -100 -61 3 5 -19 -16 -50 -46 -31 -31 -58 -54 -61 -51
-3 3 -58 -46 -122 -108 -96 -94 -119 -112 -128 -100 -13 17 -29 21 -19 5 3 -5
1 -10 -4 -10 -6 0 -11 -11 -11 -25 0 -24 -13 -34 -23 -17 -2 4 -2 2 -1 -5 4
-17 -13 -26 -19 -11 -3 8 -6 5 -6 -5 -1 -10 -7 -25 -15 -33 -13 -12 -15 -11
-18 8 -3 18 -6 15 -12 -14 -5 -21 -13 -38 -18 -38 -6 0 -8 7 -4 15 3 10 -1 15
-12 15 -10 0 -23 5 -30 12 -6 6 -15 9 -18 5 -4 -3 5 -12 20 -18 16 -8 25 -18
22 -26 -3 -8 -1 -11 4 -8 6 3 10 2 10 -3 0 -18 -79 -82 -95 -76 -8 3 -12 10
-9 15 3 5 -1 6 -8 4 -8 -3 -14 -14 -14 -25 0 -15 3 -17 15 -7 11 10 13 9 9 -3
-3 -8 -15 -15 -27 -14 -11 0 -21 -5 -21 -12 0 -7 -4 -16 -10 -19 -6 -3 -7 1
-4 9 6 15 -6 21 -30 17 -5 -1 -6 5 -3 14 4 8 2 15 -3 15 -6 0 -10 -9 -10 -19
0 -29 -18 -35 -22 -9 -2 13 5 35 15 51 10 15 15 27 11 27 -4 0 0 6 11 13 12 9
15 19 10 27 -5 8 7 3 26 -10 21 -15 29 -18 20 -7 -11 14 -11 20 -1 32 8 9 9
15 2 15 -6 0 -9 8 -7 18 2 11 -3 19 -11 19 -8 0 -14 -8 -14 -16 0 -9 -9 -24
-19 -33 -18 -15 -20 -15 -26 0 -3 9 1 19 10 24 8 5 15 20 15 33 0 13 5 27 11
31 6 3 9 14 6 24 -3 13 0 17 10 13 12 -5 14 -1 8 18 -4 13 -12 26 -16 27 -5 2
-9 8 -9 14 0 5 14 0 30 -12 28 -20 30 -20 30 -3 0 10 5 25 11 33 8 13 9 12 7
-4 -2 -10 3 -21 10 -23 10 -4 11 2 6 24 -4 15 -7 36 -6 46 0 9 -3 15 -9 12 -5
-4 -9 -1 -9 5 0 6 12 10 28 8 15 -2 26 -8 25 -15 -1 -6 4 -17 13 -24 13 -10
13 -8 4 15 -8 21 -7 28 5 32 8 4 15 10 15 16 0 5 -4 6 -10 3 -14 -9 -12 8 3
25 6 8 1 5 -13 -7 l-26 -22 -2 24 c-1 18 3 25 16 25 19 0 46 36 37 50 -8 14
-34 -12 -28 -27 3 -7 1 -13 -5 -13 -19 0 -21 40 -2 50 30 16 49 12 83 -20 26
-25 29 -32 17 -39 -8 -6 -18 -7 -24 -4 -5 3 -6 1 -2 -5 5 -9 13 -9 26 -2 13 7
20 6 23 -3 3 -7 6 -5 6 5 1 9 -5 23 -12 30 -8 7 -12 19 -9 27 3 8 0 11 -7 7
-6 -4 -14 0 -17 8 -3 9 -13 16 -22 16 -13 0 -14 2 -3 13 10 10 14 9 22 -5 15
-27 32 -22 18 5 -11 20 -11 21 5 8 16 -13 17 -13 14 4 -3 20 33 43 118 75 21
8 66 29 99 46 33 17 75 35 92 38 26 6 32 4 38 -14 4 -12 9 -19 12 -17 2 3 0
14 -6 25 -9 17 -6 22 18 32 16 6 35 12 42 14 8 1 25 8 39 16 14 8 30 15 35 16
25 1 91 17 100 23 18 13 332 126 361 130 7 0 14 -5 17 -12z m1817 -50 c86 -31
150 -57 265 -107 22 -10 90 -39 150 -64 153 -65 200 -89 201 -103 3 -26 5 -28
14 -13 8 13 28 6 127 -45 65 -32 134 -69 153 -81 19 -12 87 -52 150 -89 158
-92 324 -196 349 -219 11 -10 18 -23 14 -29 -3 -5 0 -7 8 -5 19 7 49 -10 49
-27 0 -7 5 -17 12 -21 7 -5 8 -3 3 7 -5 7 7 4 26 -8 20 -13 37 -33 40 -50 6
-24 7 -24 8 -5 1 20 3 21 21 10 11 -7 18 -18 16 -25 -3 -7 1 -10 10 -6 7 3 14
0 14 -6 0 -6 -6 -11 -13 -11 -12 0 -34 -21 -52 -50 -5 -8 12 -2 37 13 56 32
70 35 39 6 -14 -14 -19 -24 -12 -28 7 -5 7 -17 2 -36 -8 -26 -9 -27 -10 -7 -1
14 -5 20 -12 17 -6 -4 -8 -13 -5 -21 3 -8 -1 -14 -9 -14 -23 0 -28 20 -10 34
10 7 16 18 14 24 -3 8 -13 4 -29 -10 -14 -13 -36 -24 -50 -26 -18 -1 -21 0
-11 7 12 8 12 15 -3 45 -20 43 -25 45 -18 10 4 -21 2 -25 -9 -19 -12 8 -12 6
-1 -8 8 -10 11 -25 7 -39 -4 -13 -4 -20 0 -16 4 4 16 -3 26 -15 16 -19 18 -20
19 -4 0 9 7 17 15 17 19 0 19 -14 1 -32 -7 -8 -17 -24 -21 -37 -4 -13 -16 -32
-26 -42 -19 -19 -20 -19 -30 8 -5 15 -7 39 -4 53 6 24 6 24 -9 5 -9 -13 -12
-31 -9 -49 5 -23 3 -27 -8 -21 -11 6 -11 5 -2 -5 9 -10 7 -17 -8 -33 -11 -12
-17 -27 -15 -34 3 -7 1 -15 -5 -19 -7 -4 -6 -10 0 -18 6 -7 7 -16 3 -20 -4 -4
-2 -7 3 -6 22 5 26 -1 10 -16 -15 -15 -14 -18 5 -40 12 -12 19 -27 16 -33 -4
-5 -2 -12 4 -16 5 -3 10 -13 10 -21 0 -8 10 -28 22 -44 18 -25 20 -33 10 -55
-7 -15 -17 -23 -22 -20 -6 4 -7 11 -4 17 4 6 2 8 -4 4 -5 -3 -25 12 -42 34
-20 25 -27 40 -18 41 7 0 2 5 -12 11 -15 6 -20 12 -13 15 10 3 10 10 2 24 -6
13 -7 25 -1 32 16 21 19 52 6 65 -8 7 -15 8 -19 2 -3 -6 -1 -10 4 -10 6 0 3
-9 -6 -19 -19 -23 -33 -19 -33 10 0 11 4 18 9 15 4 -3 6 6 3 20 -3 15 2 32 12
43 11 12 15 29 12 47 -2 16 -5 32 -5 37 -1 4 -8 7 -16 7 -8 0 -15 5 -15 11 0
5 5 7 10 4 13 -8 42 20 32 30 -4 5 1 5 11 2 12 -5 16 -3 11 5 -5 8 -2 9 9 5 9
-3 19 -1 23 5 4 6 3 8 -3 5 -6 -4 -13 0 -17 8 -3 8 0 14 6 12 12 -2 16 69 4
80 -3 4 -6 -3 -6 -15 0 -12 -5 -22 -11 -22 -5 0 -8 -4 -5 -9 10 -15 -5 -41
-23 -41 -13 0 -13 -2 -2 -9 9 -6 10 -11 2 -15 -6 -4 -15 -4 -21 -1 -14 9 -13
35 2 35 9 0 9 3 0 12 -7 7 -12 20 -12 30 0 10 -5 18 -11 18 -7 0 -9 -17 -4
-51 6 -41 5 -50 -6 -44 -9 6 -11 3 -6 -9 11 -28 -4 -42 -18 -17 -10 20 -13 21
-24 7 -11 -14 -11 -16 4 -16 12 0 15 -5 10 -17 -22 -54 -23 -71 -4 -86 14 -13
16 -22 9 -46 -5 -19 -5 -31 1 -31 5 0 10 10 10 23 1 12 3 43 4 69 1 26 -1 45
-6 42 -5 -3 -9 -1 -9 5 0 20 18 20 37 -2 31 -34 34 -44 19 -56 -11 -9 -14 -8
-12 5 0 9 -3 18 -9 20 -12 5 -12 -122 -1 -148 7 -16 9 -16 34 0 l27 17 -17
-27 c-20 -31 -23 -42 -8 -33 6 3 10 1 10 -5 0 -19 -14 -8 -64 50 -25 30 -53
62 -60 70 -26 29 -45 77 -39 101 4 16 2 21 -5 14 -5 -5 -12 -18 -14 -28 -2
-14 -30 10 -112 95 -60 62 -156 161 -214 219 -69 71 -102 111 -97 120 5 8 4
10 -4 5 -15 -9 -121 79 -121 100 0 9 -5 12 -10 9 -6 -4 -41 20 -78 52 -37 32
-92 79 -122 103 -30 25 -60 49 -66 55 -7 5 -22 18 -35 27 -13 9 -78 57 -144
106 -66 48 -156 113 -200 143 -109 74 -135 101 -135 140 0 29 2 31 28 26 15
-3 70 -21 122 -40z m-4490 -290 c13 -24 13 -29 0 -37 -30 -19 -100 14 -100 47
0 22 4 24 42 21 34 -2 45 -8 58 -31z m1570 -129 c0 -5 -3 -7 -7 -7 -20 3 -24
-2 -13 -16 7 -8 8 -15 3 -15 -5 0 -17 10 -27 22 -14 16 -15 20 -3 15 10 -4 17
2 21 16 5 18 8 20 16 7 5 -8 10 -18 10 -22z m-80 -22 c0 -2 -8 -10 -17 -17
-16 -13 -17 -12 -4 4 13 16 21 21 21 13z m-89 -91 c5 4 9 1 9 -5 0 -7 -6 -10
-14 -7 -8 3 -17 1 -19 -6 -2 -7 -3 -4 -2 6 2 9 -1 17 -7 17 -5 0 -6 5 -2 11 5
8 10 6 16 -5 5 -9 13 -14 19 -11z m83 17 c-6 -4 -13 -13 -15 -21 -4 -10 -8 -9
-19 5 -8 10 -10 15 -3 11 6 -4 14 -3 18 3 3 5 12 10 18 10 8 0 9 -2 1 -8z
m-139 -22 c-3 -5 1 -20 9 -32 26 -37 18 -42 -11 -8 -21 26 -24 33 -12 41 18
11 22 11 14 -1z m147 -12 c-7 -7 -12 -8 -12 -2 0 14 12 26 19 19 2 -3 -1 -11
-7 -17z m-222 -52 c0 -2 -8 -10 -17 -17 -16 -13 -17 -12 -4 4 13 16 21 21 21
13z m813 -61 c-3 -9 -8 -14 -10 -11 -3 3 -2 9 2 15 9 16 15 13 8 -4z m-898
-29 c0 -14 -3 -22 -7 -20 -4 3 -8 0 -8 -5 0 -6 5 -11 10 -11 6 0 10 -8 10 -17
0 -25 -19 -3 -30 35 -5 20 -5 30 1 27 5 -4 9 2 9 11 0 26 13 7 15 -20z m165
30 c0 -3 -4 -8 -10 -11 -5 -3 -10 -1 -10 4 0 6 5 11 10 11 6 0 10 -2 10 -4z
m34 -32 c3 -8 2 -12 -4 -9 -6 3 -10 2 -10 -4 0 -15 18 -23 25 -11 11 19 22 10
18 -14 -3 -13 0 -33 6 -43 11 -22 0 -81 -15 -73 -5 3 -7 10 -5 15 16 43 13 49
-12 23 -34 -38 -43 -35 -18 6 22 35 28 61 11 51 -5 -3 -10 3 -10 15 0 12 -5
18 -10 15 -6 -4 -5 5 2 19 13 30 14 31 22 10z m-259 -14 c3 -5 1 -10 -4 -10
-6 0 -11 5 -11 10 0 6 2 10 4 10 3 0 8 -4 11 -10z m985 -2 c0 -4 6 -8 13 -8
12 0 37 -39 37 -58 0 -4 -13 -15 -28 -24 -23 -14 -31 -15 -41 -5 -10 9 -11 9
-6 -4 4 -10 -3 -19 -20 -27 -37 -17 -53 -15 -65 7 -11 22 -6 40 27 94 19 31
28 37 53 35 17 -1 30 -6 30 -10z m60 2 c0 -5 -4 -10 -10 -10 -5 0 -10 5 -10
10 0 6 5 10 10 10 6 0 10 -4 10 -10z m-1110 -14 c0 -3 -4 -8 -10 -11 -5 -3
-10 -1 -10 4 0 6 5 11 10 11 6 0 10 -2 10 -4z m230 -21 c0 -2 -7 -2 -15 1 -11
5 -13 2 -9 -10 3 -9 10 -13 15 -10 5 3 9 0 9 -6 0 -6 -6 -10 -12 -9 -34 4 -50
-2 -44 -16 9 -24 -8 -17 -20 8 -9 21 -8 23 17 19 23 -3 26 -1 24 22 -3 23 -1
24 16 16 10 -6 19 -13 19 -15z m-209 -43 c-6 -12 -11 -33 -11 -49 0 -15 -5
-35 -11 -43 -15 -22 -4 73 12 99 17 25 24 20 10 -7z m50 14 c-6 -7 -9 -22 -5
-32 5 -17 4 -17 -5 -2 -12 18 -5 48 11 48 7 0 6 -5 -1 -14z m63 -44 c-4 -9 -6
-25 -5 -34 1 -10 -3 -18 -10 -18 -7 0 -9 9 -4 28 3 15 7 38 7 52 0 21 1 22 10
6 5 -9 6 -25 2 -34z m-45 -6 c-9 -8 -10 -7 -5 7 3 10 7 24 7 30 1 7 3 4 6 -7
3 -10 -1 -23 -8 -30z m-57 -8 c-8 -8 -9 -4 -5 13 4 13 8 18 11 10 2 -7 -1 -18
-6 -23z m158 8 c0 -2 -7 -9 -15 -16 -13 -11 -14 -10 -9 4 5 14 24 23 24 12z
m-283 -28 c-3 -8 -6 -5 -6 6 -1 11 2 17 5 13 3 -3 4 -12 1 -19z m153 -8 c0
-16 -4 -30 -9 -30 -8 0 -9 43 -2 58 5 11 11 -3 11 -28z m-179 -7 c13 -16 12
-17 -3 -4 -10 7 -18 15 -18 17 0 8 8 3 21 -13z m63 2 c-4 -8 -8 -15 -10 -15
-2 0 -4 7 -4 15 0 8 4 15 10 15 5 0 7 -7 4 -15z m263 -16 c-1 13 4 26 11 28
14 5 15 -21 3 -82 l-8 -40 -12 45 c-7 25 -17 50 -22 56 -5 6 -6 14 -2 18 4 3
13 -6 20 -21 12 -27 12 -27 10 -4z m-84 -25 c6 -34 -11 -41 -23 -9 -14 36 -13
45 4 39 8 -3 16 -16 19 -30z m45 -5 c-3 -8 -7 -3 -11 10 -4 17 -3 21 5 13 5
-5 8 -16 6 -23z m158 -17 c-18 -16 -19 -16 -12 1 3 10 6 24 6 30 0 8 4 7 12
-1 10 -9 8 -16 -6 -30z m-246 18 c0 -5 -5 -10 -11 -10 -5 0 -7 5 -4 10 3 6 8
10 11 10 2 0 4 -4 4 -10z m-90 -9 c0 -6 -4 -13 -10 -16 -5 -3 -10 1 -10 9 0 9
5 16 10 16 6 0 10 -4 10 -9z m64 -27 c8 -21 -12 -17 -24 6 -8 16 -8 18 4 14 8
-3 17 -12 20 -20z m206 16 c0 -5 -2 -10 -4 -10 -3 0 -8 5 -11 10 -3 6 -1 10 4
10 6 0 11 -4 11 -10z m-90 -10 c0 -5 -7 -10 -16 -10 -8 0 -12 5 -9 10 3 6 10
10 16 10 5 0 9 -4 9 -10z m4961 -23 c-5 -12 -19 -53 -31 -91 -11 -38 -24 -74
-28 -80 -3 -6 -7 -18 -9 -26 -1 -8 -7 -16 -12 -18 -6 -2 -11 -11 -11 -20 0
-15 -2 -15 -10 -2 -8 12 -10 11 -10 -7 0 -13 -5 -23 -11 -23 -6 0 -8 -7 -5
-16 3 -8 2 -12 -4 -9 -6 3 -10 -1 -10 -10 0 -11 -5 -15 -15 -12 -8 4 -17 1
-21 -5 -4 -7 -3 -8 4 -4 7 4 12 3 12 -2 0 -19 -47 -112 -53 -105 -4 3 -3 11 0
16 4 6 8 25 10 42 2 28 2 29 -12 11 -12 -16 -15 -17 -15 -4 0 9 -2 22 -3 30
-2 7 -2 9 1 5 6 -11 28 34 37 72 4 17 11 29 16 25 5 -3 9 -1 9 5 0 5 6 16 13
23 7 7 18 22 25 33 11 20 11 20 12 -1 0 -12 -7 -27 -15 -34 -8 -7 -15 -17 -15
-22 0 -5 -9 -18 -20 -30 -11 -12 -20 -25 -20 -30 0 -18 17 -5 50 40 19 26 41
53 48 61 7 7 16 26 19 42 3 16 8 29 12 29 4 0 13 21 20 48 8 26 18 52 23 58 5
7 8 16 7 20 -3 18 1 25 11 19 5 -3 6 -15 1 -28z m-4771 19 c0 -11 -19 -15 -25
-6 -3 5 1 10 9 10 9 0 16 -2 16 -4z m-110 -21 c0 -8 -4 -15 -10 -15 -5 0 -7 7
-4 15 4 8 8 15 10 15 2 0 4 -7 4 -15z m4860 5 c0 -5 -4 -10 -10 -10 -5 0 -10
5 -10 10 0 6 5 10 10 10 6 0 10 -4 10 -10z m-4990 -10 c0 -5 -4 -10 -10 -10
-5 0 -10 5 -10 10 0 6 5 10 10 10 6 0 10 -4 10 -10z m36 -10 c0 -11 -5 -20
-11 -19 -9 0 -29 -40 -27 -53 1 -5 -5 -8 -14 -8 -8 0 -12 5 -8 11 3 6 1 14 -5
18 -19 12 -1 42 21 35 14 -4 21 0 25 15 7 27 21 27 19 1z m5019 -29 c0 -24 -4
-45 -9 -48 -5 -3 -7 6 -4 21 5 24 -1 31 -24 27 -4 0 -2 10 4 24 17 37 33 25
33 -24z m-5548 -16 c-8 -20 -27 -20 -27 1 0 8 5 12 10 9 6 -3 10 -1 10 6 0 7
3 10 6 6 4 -3 4 -13 1 -22z m5613 -5 c18 -16 30 -33 26 -37 -4 -4 -11 -1 -16
7 -6 8 -10 12 -11 8 -1 -5 -2 -11 -3 -15 -1 -5 -5 -13 -9 -20 -4 -6 -4 -19 -1
-28 4 -9 3 -20 -2 -24 -22 -16 -41 -69 -38 -106 3 -29 2 -34 -5 -20 -4 11 -6
26 -4 33 8 19 -15 14 -26 -5 -8 -15 -10 -16 -14 -3 -3 8 -10 30 -16 49 -14 43
-14 81 -1 81 9 0 14 -18 13 -49 -2 -27 17 6 21 37 4 40 14 51 27 32 7 -11 8
-9 7 10 -2 14 2 25 10 26 6 1 19 2 28 3 14 1 14 4 4 16 -11 13 -15 13 -23 3
-6 -10 -7 -9 -4 4 3 9 1 19 -6 22 -7 2 -8 5 -1 5 6 1 25 -12 44 -29z m-5587
-98 c-15 -20 -31 -50 -34 -67 -6 -29 -6 -29 -8 7 -1 28 5 43 23 60 17 16 26
38 30 68 6 61 9 63 13 12 4 -36 -1 -50 -24 -80z m631 103 c3 -8 1 -15 -4 -15
-6 0 -10 7 -10 15 0 8 2 15 4 15 2 0 6 -7 10 -15z m54 -10 c-6 -13 -15 -22
-20 -19 -5 3 -12 -4 -15 -17 -6 -21 -7 -21 -13 -4 -8 21 9 45 26 38 6 -2 14 3
17 11 4 9 9 16 11 16 3 0 1 -11 -6 -25z m-441 -7 c-3 -8 -6 -5 -6 6 -1 11 2
17 5 13 3 -3 4 -12 1 -19z m163 2 c0 -5 -5 -10 -11 -10 -5 0 -7 5 -4 10 3 6 8
10 11 10 2 0 4 -4 4 -10z m200 -1 c0 -5 -4 -7 -10 -4 -5 3 -10 -1 -10 -9 0 -9
-4 -16 -10 -16 -14 0 -12 27 3 33 20 9 27 8 27 -4z m-419 -51 c-10 -11 -11 -9
-5 7 7 17 6 18 -8 7 -14 -11 -16 -10 -11 8 5 20 7 20 21 6 13 -13 14 -18 3
-28z m337 6 c-14 -14 -16 -14 -22 1 -3 9 -2 13 3 10 5 -3 13 0 16 6 4 5 10 8
13 4 3 -3 -1 -12 -10 -21z m87 -44 c9 -32 2 -25 -20 20 -13 27 -14 32 -2 20 8
-8 18 -26 22 -40z m2149 -4 c5 -33 4 -46 -3 -41 -6 3 -11 -1 -11 -9 0 -8 5
-18 11 -22 6 -3 9 -15 6 -25 -3 -10 1 -23 9 -30 18 -15 18 -55 0 -62 -9 -4
-12 -14 -9 -25 3 -13 -4 -26 -23 -41 -15 -12 -29 -20 -31 -18 -2 2 1 28 6 58
5 30 9 46 10 37 0 -10 7 -18 15 -18 21 0 28 30 13 54 -18 28 -21 94 -6 113 9
10 10 16 2 21 -6 4 -9 20 -6 35 7 36 9 33 17 -27z m-2341 19 c-3 -9 -8 -14
-10 -11 -3 3 -2 9 2 15 9 16 15 13 8 -4z m5266 -21 c-6 -8 -16 -11 -21 -8 -6
4 -5 9 2 14 8 5 9 13 4 21 -6 12 -5 12 9 0 13 -10 15 -17 6 -27z m-5479 22 c0
-3 -4 -8 -10 -11 -5 -3 -10 -1 -10 4 0 6 5 11 10 11 6 0 10 -2 10 -4z m5430
-72 c0 -37 -14 -36 -25 3 -15 48 -7 75 11 42 7 -13 13 -33 14 -45z m100 41 c0
-16 -26 -55 -37 -55 -14 0 -13 34 2 47 4 5 5 1 1 -7 -4 -8 -1 -7 6 3 12 16 28
23 28 12z m-433 -27 c-3 -8 -6 -5 -6 6 -1 11 2 17 5 13 3 -3 4 -12 1 -19z
m-37 -28 c-6 -11 -8 -25 -5 -30 3 -5 1 -18 -4 -27 -8 -15 -10 -11 -11 20 0 39
20 92 27 70 3 -7 -1 -21 -7 -33z m330 30 c0 -5 -5 -10 -11 -10 -5 0 -7 5 -4
10 3 6 8 10 11 10 2 0 4 -4 4 -10z m-5800 -10 c0 -5 -8 -10 -17 -10 -15 0 -16
2 -3 10 19 12 20 12 20 0z m5973 -32 c-4 -24 -10 -46 -16 -49 -5 -4 -7 -11 -3
-17 3 -5 -5 -26 -19 -46 -13 -20 -21 -36 -16 -36 4 0 13 -11 19 -25 7 -15 8
-25 2 -25 -6 0 -10 5 -10 12 0 6 -9 3 -20 -7 -11 -10 -20 -13 -20 -8 0 6 7 14
15 17 12 4 13 10 6 24 -5 10 -6 32 -1 52 4 19 8 31 9 27 1 -5 6 -5 11 -2 6 4
3 16 -10 32 -21 27 -26 43 -12 43 5 0 13 -12 19 -27 11 -31 17 -23 28 40 8 51
24 47 18 -5z m-5356 0 c-3 -8 -6 -5 -6 6 -1 11 2 17 5 13 3 -3 4 -12 1 -19z
m5047 -5 c4 -16 -3 -58 -14 -98 -12 -38 -23 -80 -24 -93 -5 -34 -12 -36 -35
-11 -20 22 -30 76 -12 65 5 -4 15 7 23 24 15 34 24 38 31 13 3 -11 5 -7 6 10
0 15 -3 27 -9 27 -5 0 -10 7 -10 15 0 8 6 15 14 15 17 0 29 27 15 36 -5 3 -16
3 -24 0 -9 -3 -15 1 -15 9 0 9 10 15 24 15 19 0 26 -7 30 -27z m152 4 c8 -19
6 -27 -13 -47 -24 -26 -30 -21 -13 10 7 14 6 23 -5 34 -11 11 -12 16 -2 19 20
9 22 8 33 -16z m71 -32 c11 -46 10 -66 -2 -53 -12 12 -32 109 -22 105 6 -2 17
-25 24 -52z m-5877 41 c0 -3 -4 -8 -10 -11 -5 -3 -10 -1 -10 4 0 6 5 11 10 11
6 0 10 -2 10 -4z m6004 -36 c3 -14 3 -19 0 -12 -4 8 -11 5 -24 -10 -18 -23
-18 -23 -7 19 12 45 21 45 31 3z m-6084 26 c0 -3 -4 -8 -10 -11 -5 -3 -10 -1
-10 4 0 6 5 11 10 11 6 0 10 -2 10 -4z m510 -6 c0 -5 -2 -10 -4 -10 -3 0 -8 5
-11 10 -3 6 -1 10 4 10 6 0 11 -4 11 -10z m4970 -20 c0 -5 -2 -10 -4 -10 -3 0
-8 5 -11 10 -3 6 -1 10 4 10 6 0 11 -4 11 -10z m200 -30 c-9 -47 -15 -57 -23
-36 -4 9 -2 18 3 21 14 9 12 42 -2 48 -7 3 -3 6 8 6 19 1 21 -2 14 -39z
m-4960 -25 c0 -5 -5 -3 -10 5 -5 8 -10 20 -10 25 0 6 5 3 10 -5 5 -8 10 -19
10 -25z m5202 -18 c-6 -12 -14 -33 -17 -46 -5 -16 -10 -20 -15 -11 -9 15 -20
-10 -27 -65 -5 -46 -13 -60 -13 -24 l0 24 -19 -24 -18 -24 1 57 c0 40 3 50 8
35 8 -21 9 -21 29 -3 15 13 18 25 13 48 -6 30 -5 30 10 11 15 -20 15 -20 16 1
0 11 5 25 12 32 6 6 9 15 5 19 -4 3 -14 -2 -22 -13 -8 -10 -15 -15 -15 -10 0
5 7 17 16 27 15 16 18 17 32 3 11 -12 12 -20 4 -37z m192 21 c4 -17 2 -28 -4
-28 -5 0 -10 14 -10 32 0 36 4 35 14 -4z m-321 -14 c-7 -19 -23 -7 -23 18 0
17 3 18 14 8 8 -6 12 -18 9 -26z m37 -9 c0 -19 -4 -35 -9 -35 -8 0 -9 19 -2
63 3 21 11 2 11 -28z m-330 3 c0 -4 -4 -8 -9 -8 -6 0 -12 4 -15 8 -3 5 1 9 9
9 8 0 15 -4 15 -9z m-2808 -20 c-7 -7 -12 -8 -12 -2 0 14 12 26 19 19 2 -3 -1
-11 -7 -17z m709 -5 c14 -16 31 -41 39 -58 8 -16 16 -34 19 -39 2 -5 -1 -6 -8
-2 -8 5 -11 -9 -9 -52 2 -45 6 -58 17 -54 10 4 11 -1 6 -19 -4 -13 -9 -35 -10
-50 -3 -32 -33 -79 -51 -79 -21 0 -17 28 5 35 22 7 34 32 24 48 -8 12 -8 18
-11 85 -1 21 -6 31 -13 26 -7 -4 -6 3 2 17 7 13 12 29 11 36 -1 6 2 14 8 18
12 8 -28 82 -49 90 -11 4 -10 0 3 -13 13 -15 16 -33 14 -71 -2 -31 -7 -50 -14
-47 -7 3 -6 -13 3 -47 7 -28 13 -58 13 -66 0 -7 8 -20 18 -27 16 -12 16 -14
-1 -31 -18 -17 -19 -17 -15 3 2 11 -1 20 -7 20 -5 -1 -11 -21 -11 -46 -2 -65
-3 -68 -18 -41 -8 14 -16 19 -20 13 -3 -6 -1 -14 5 -17 7 -5 1 -17 -17 -36
-15 -15 -32 -26 -37 -22 -6 3 -7 1 -4 -4 4 -6 -1 -17 -10 -24 -15 -12 -16 -11
-11 9 4 12 2 20 -3 16 -5 -3 -9 -12 -9 -20 0 -8 -4 -14 -8 -14 -5 0 -8 30 -6
68 3 61 2 65 -11 48 -8 -11 -15 -26 -15 -35 0 -8 -3 -11 -7 -7 -14 13 -9 30
14 54 23 23 39 30 28 12 -3 -5 1 -10 10 -10 11 0 14 -6 9 -24 -3 -14 -1 -33 5
-43 11 -17 11 -17 10 2 -4 52 1 76 14 68 23 -14 32 -11 32 13 0 26 -5 30 -22
13 -6 -6 -16 -8 -21 -5 -12 7 -4 46 9 46 5 0 9 6 9 14 0 8 5 18 12 22 7 5 8 2
3 -7 -5 -8 -4 -11 1 -6 5 5 9 22 10 38 1 16 8 36 15 45 7 9 12 32 10 51 -2 25
1 33 9 28 9 -6 10 1 5 26 -20 86 -14 96 26 52z m2356 12 c0 -8 -7 -15 -15 -15
-12 0 -12 3 -2 15 7 8 13 15 15 15 1 0 2 -7 2 -15z m-117 0 c0 -3 -7 -17 -16
-31 -12 -18 -14 -28 -6 -36 12 -12 4 -41 -9 -32 -5 3 -9 18 -9 33 0 15 -5 32
-12 39 -6 6 -8 15 -3 19 4 5 10 2 12 -4 6 -18 23 -16 23 2 0 8 5 15 10 15 6 0
10 -2 10 -5z m430 1 c0 -3 -4 -8 -10 -11 -5 -3 -10 -1 -10 4 0 6 5 11 10 11 6
0 10 -2 10 -4z m118 -23 c15 -33 15 -35 1 -70 -10 -26 -12 -26 -19 -8 -4 11
-3 30 3 43 8 16 7 26 -1 34 -14 14 -16 28 -4 28 4 0 13 -12 20 -27z m-3523
-12 c-2 -28 -14 -38 -25 -22 -5 9 -4 22 3 32 14 22 24 17 22 -10z m405 9 c0
-11 -2 -20 -4 -20 -2 0 -6 9 -9 20 -3 11 -1 20 4 20 5 0 9 -9 9 -20z m3089
-22 c1 -5 -3 -8 -9 -8 -5 0 -10 12 -9 28 0 24 1 25 9 7 5 -11 9 -23 9 -27z
m-359 17 c0 -8 -2 -15 -4 -15 -2 0 -6 7 -10 15 -3 8 -1 15 4 15 6 0 10 -7 10
-15z m302 -12 c-3 -16 -7 -22 -10 -15 -4 13 4 42 11 42 2 0 2 -12 -1 -27z
m-166 -10 c-10 -10 -19 5 -10 18 6 11 8 11 12 0 2 -7 1 -15 -2 -18z m106 -3
c-6 -15 -11 -19 -16 -12 -4 7 -1 18 6 26 17 19 20 14 10 -14z m-468 -50 c-15
-14 -15 -13 -5 8 7 12 8 22 2 22 -5 0 -6 10 -3 22 5 21 6 21 14 -7 5 -22 3
-34 -8 -45z m658 20 c-2 -27 -7 -50 -12 -50 -4 0 -6 17 -5 38 3 57 4 62 13 62
4 0 5 -22 4 -50z m-482 -13 c-1 -12 -7 -33 -15 -47 -11 -21 -15 -22 -20 -8 -4
9 -1 26 5 38 8 15 8 20 1 16 -15 -9 -14 7 1 22 15 15 28 6 28 -21z m192 -2
c-5 -27 6 -32 27 -12 11 10 13 9 9 -3 -3 -8 -2 -24 2 -35 7 -17 9 -15 18 15
l10 35 1 -31 c1 -17 -6 -37 -14 -44 -8 -7 -15 -18 -15 -24 0 -6 5 -4 10 4 5 8
10 11 10 5 0 -5 10 10 21 35 19 43 21 44 34 25 8 -11 18 -24 23 -30 9 -11 10
-100 2 -109 -3 -3 -7 18 -8 45 -2 55 -17 93 -33 84 -5 -4 -9 -14 -9 -24 0 -10
-9 -26 -20 -36 -21 -19 -28 -41 -9 -29 8 4 8 1 1 -12 -5 -11 -8 -33 -6 -51 4
-33 -8 -49 -27 -38 -7 5 -4 14 7 27 15 16 16 21 4 28 -8 5 -22 4 -34 -2 -20
-10 -20 -10 1 13 18 20 21 32 16 66 -4 28 -10 40 -17 36 -6 -3 -8 -2 -3 2 4 5
0 19 -9 32 -12 19 -13 27 -3 39 16 19 17 18 11 -11z m162 3 c12 -45 5 -62 -9
-23 -17 48 -17 45 -6 45 5 0 11 -10 15 -22z m-3053 -46 c6 -7 8 -16 5 -19 -3
-3 0 -13 7 -21 10 -13 9 -14 -11 -3 -13 7 -21 18 -19 25 3 6 -1 20 -9 31 -8
10 -14 24 -14 29 0 6 7 2 15 -9 8 -11 19 -26 26 -33z m-391 18 c-8 -6 -22 -10
-30 -9 -9 0 -5 6 10 14 27 14 44 10 20 -5z m2952 -40 c4 0 8 -11 8 -24 0 -28
16 -43 23 -24 3 7 6 3 6 -10 1 -14 -3 -21 -9 -17 -6 4 -18 1 -26 -6 -13 -11
-15 -9 -13 12 3 39 0 61 -10 55 -5 -3 -7 -15 -4 -26 3 -12 0 -20 -7 -20 -7 0
-10 -8 -7 -20 3 -12 1 -18 -5 -14 -5 3 -7 17 -4 30 5 19 3 22 -11 17 -15 -5
-14 -1 5 19 12 13 22 37 23 54 l1 29 11 -27 c6 -16 14 -28 19 -28z m58 46 c0
-3 -4 -8 -10 -11 -5 -3 -10 -1 -10 4 0 6 5 11 10 11 6 0 10 -2 10 -4z m-3004
-54 c-18 -16 -19 -16 -12 1 3 10 6 24 6 30 0 8 4 7 12 -1 10 -9 8 -16 -6 -30z
m1116 -49 c4 -13 2 -23 -4 -23 -5 0 -6 -4 -3 -10 3 -5 0 -10 -7 -10 -9 0 -9
-3 2 -10 11 -7 11 -10 2 -10 -10 0 -10 -5 -1 -22 11 -21 11 -22 -5 -9 -9 8
-15 19 -13 26 3 6 -1 19 -9 30 -17 23 -18 38 -1 30 6 -4 4 0 -5 8 -13 10 -16
23 -11 51 l6 37 22 -33 c12 -18 24 -43 27 -55z m1913 47 c1 -11 -2 -20 -6 -20
-11 0 1 -32 15 -43 7 -5 5 -7 -4 -5 -25 7 -51 68 -39 91 13 22 32 10 34 -23z
m-3375 20 c0 -5 -5 -10 -11 -10 -5 0 -7 5 -4 10 3 6 8 10 11 10 2 0 4 -4 4
-10z m3861 -18 c-6 -12 -11 -32 -11 -46 0 -14 -4 -26 -10 -26 -5 0 -7 7 -4 15
4 8 1 15 -5 15 -17 0 -13 16 11 43 26 29 35 28 19 -1z m-3555 -23 c-17 -25
-20 -19 -10 19 5 15 10 20 16 14 7 -7 5 -18 -6 -33z m841 9 c-3 -7 -5 -2 -5
12 0 14 2 19 5 13 2 -7 2 -19 0 -25z m2869 -5 c-10 -10 -19 5 -10 18 6 11 8
11 12 0 2 -7 1 -15 -2 -18z m-3996 -31 l-1 -37 -13 30 c-13 31 -11 59 5 49 5
-3 9 -22 9 -42z m693 25 c3 -8 1 -20 -4 -28 -5 -8 -9 -25 -10 -39 -1 -18 -3
-20 -6 -7 -6 24 -29 16 -25 -9 2 -18 2 -18 -9 0 -9 15 -13 16 -20 5 -6 -10 -9
-8 -9 10 0 16 4 22 15 17 8 -3 15 -1 15 5 0 6 4 8 9 5 5 -4 12 7 16 24 7 32
19 39 28 17z m-742 -104 l-10 -48 4 48 c3 35 2 46 -7 41 -8 -5 -9 -2 -5 10 4
10 7 27 8 39 1 16 3 13 10 -10 6 -21 6 -50 0 -80z m382 88 c2 -10 1 -25 -4
-32 -7 -12 -9 -12 -9 -1 0 8 -6 12 -12 9 -8 -2 -12 -19 -11 -46 2 -37 0 -41
-12 -31 -17 14 -11 55 11 81 8 8 14 21 14 27 0 19 17 14 23 -7z m414 4 c0 -8
-4 -12 -9 -9 -5 3 -6 10 -3 15 9 13 12 11 12 -6z m2973 -7 c0 -19 -2 -20 -10
-8 -13 19 -13 30 0 30 6 0 10 -10 10 -22z m220 12 c0 -5 -2 -10 -4 -10 -3 0
-8 5 -11 10 -3 6 -1 10 4 10 6 0 11 -4 11 -10z m120 0 c0 -5 -2 -10 -4 -10 -3
0 -8 5 -11 10 -3 6 -1 10 4 10 6 0 11 -4 11 -10z m-3670 -7 c0 -5 -9 -19 -20
-33 -16 -20 -20 -22 -20 -7 0 9 5 17 10 17 6 0 10 7 10 15 0 8 5 15 10 15 6 0
10 -3 10 -7z m3604 -19 c3 -8 2 -12 -4 -9 -6 3 -10 10 -10 16 0 14 7 11 14 -7z
m-552 -26 c-15 -15 -24 -6 -16 16 5 12 10 14 17 7 8 -8 8 -14 -1 -23z m-2670
-55 c6 -7 7 -13 2 -13 -22 1 -35 19 -40 56 l-5 39 16 -34 c8 -19 20 -41 27
-48z m613 46 c-2 -3 4 -18 14 -33 10 -15 16 -38 14 -49 -5 -22 -5 -22 10 -2
25 31 20 10 -13 -56 -19 -37 -35 -57 -42 -53 -6 4 -8 3 -5 -3 4 -6 0 -16 -8
-23 -13 -11 -15 -8 -15 19 0 18 5 42 11 53 11 21 12 21 25 3 13 -18 14 -18 15
6 0 13 2 36 3 52 1 15 -2 27 -6 27 -4 0 -5 6 -2 13 3 8 -5 13 -21 15 -16 1
-24 -2 -20 -8 4 -6 10 -8 15 -5 4 3 10 -2 13 -10 8 -19 0 -59 -13 -63 -16 -6
-40 -72 -36 -98 3 -15 0 -23 -7 -21 -22 4 -25 19 -10 48 8 16 12 33 8 38 -3 6
3 15 14 21 12 6 18 16 15 25 -5 11 -2 13 10 9 22 -8 20 -2 -6 20 -18 15 -20
16 -15 2 4 -11 1 -16 -9 -16 -11 0 -14 -6 -10 -16 3 -9 3 -21 -1 -27 -4 -7 -8
-18 -8 -26 0 -21 -25 -26 -25 -5 0 10 6 25 13 34 6 9 2 6 -10 -7 -12 -13 -24
-19 -27 -14 -3 4 -2 11 2 15 4 4 7 12 7 17 0 5 4 9 9 8 11 -1 53 62 72 107 12
28 17 32 28 22 8 -7 12 -16 11 -19z m2642 -44 c0 -36 -5 -65 -10 -65 -5 0 -6
19 -3 45 5 30 4 45 -4 45 -8 0 -8 6 0 20 6 11 12 20 14 20 1 0 3 -29 3 -65z
m93 34 c0 -6 -4 -7 -10 -4 -5 3 -10 11 -10 16 0 6 5 7 10 4 6 -3 10 -11 10
-16z m-814 -20 c1 -20 -2 -26 -7 -17 -7 11 -9 10 -9 -1 0 -8 8 -24 18 -35 17
-21 17 -21 -5 -2 -25 21 -28 37 -13 67 14 25 15 24 16 -12z m264 10 c0 -6 -4
-7 -10 -4 -5 3 -10 11 -10 16 0 6 5 7 10 4 6 -3 10 -11 10 -16z m-3140 4 c0
-5 13 -22 30 -39 27 -30 30 -44 7 -44 -6 0 -8 3 -4 6 6 6 -1 17 -35 55 -20 22
-22 29 -8 29 6 0 10 -3 10 -7z m-74 -28 c1 -8 -2 -13 -7 -9 -5 3 -9 12 -9 21
0 19 13 9 16 -12z m3021 -10 c-10 -21 -27 -34 -27 -20 0 14 24 54 31 50 4 -3
2 -16 -4 -30z m253 25 c0 -5 -4 -10 -10 -10 -5 0 -10 5 -10 10 0 6 5 10 10 10
6 0 10 -4 10 -10z m103 -15 c-3 -8 -1 -15 5 -15 6 0 12 6 15 13 2 7 8 8 13 3
5 -5 4 -11 -3 -13 -7 -3 -13 -9 -13 -14 0 -14 -41 -51 -48 -44 -4 4 1 11 11
16 14 8 16 18 11 46 -5 25 -3 34 4 29 6 -4 9 -13 5 -21z m141 10 c-4 -8 -8
-15 -10 -15 -2 0 -4 7 -4 15 0 8 4 15 10 15 5 0 7 -7 4 -15z m-462 -73 c-13
-10 -14 -15 -4 -18 14 -7 16 -60 2 -69 -15 -9 -17 90 -3 145 6 24 6 23 14 -10
6 -26 4 -37 -9 -48z m395 31 c2 -21 1 -34 -2 -31 -4 4 -8 23 -10 43 -2 20 -1
34 2 31 4 -3 8 -23 10 -43z m-3177 -18 c-9 -11 -9 -15 -1 -15 6 0 11 -9 11
-21 0 -11 -5 -17 -10 -14 -6 4 -8 11 -5 16 4 5 1 9 -4 9 -14 0 -14 12 1 47 9
23 12 24 15 10 3 -10 -1 -24 -7 -32z m90 14 c16 -29 13 -44 -7 -28 -15 12 -16
12 -10 -4 3 -9 2 -29 -3 -43 -7 -17 -7 -32 0 -44 8 -16 7 -18 -4 -14 -11 4
-14 24 -13 83 2 59 5 77 15 73 7 -2 17 -13 22 -23z m3377 -1 c-3 -7 -5 -2 -5
12 0 14 2 19 5 13 2 -7 2 -19 0 -25z m-3694 7 c-3 -9 -8 -14 -10 -11 -3 3 -2
9 2 15 9 16 15 13 8 -4z m3175 -36 c-7 -4 -15 -6 -17 -3 -3 3 1 9 9 14 10 6
11 10 3 10 -7 0 -10 7 -6 17 5 14 8 12 15 -7 6 -16 5 -26 -4 -31z m-3235 -9
c6 -8 0 -5 -12 6 -16 15 -21 27 -15 35 7 11 9 9 12 -6 2 -11 9 -27 15 -35z
m464 10 c1 -17 -2 -30 -7 -30 -6 0 -10 -17 -11 -37 l-1 -38 -8 34 c-5 19 -4
41 0 50 5 9 11 24 14 34 8 24 11 21 13 -13z m3140 -2 c-3 -7 -5 -2 -5 12 0 14
2 19 5 13 2 -7 2 -19 0 -25z m-3432 12 c3 -5 1 -10 -4 -10 -6 0 -11 5 -11 10
0 6 2 10 4 10 3 0 8 -4 11 -10z m3398 -43 c3 -22 2 -35 -4 -32 -5 4 -9 22 -9
42 0 45 5 40 13 -10z m173 16 c2 -9 0 -21 -3 -27 -8 -13 -22 25 -15 42 5 15
15 8 18 -15z m-3596 -4 c0 -5 -4 -9 -10 -9 -5 0 -10 7 -10 16 0 8 5 12 10 9 6
-3 10 -10 10 -16z m353 10 c-8 -8 -8 -20 -3 -35 5 -13 7 -24 4 -24 -2 0 -8 10
-13 23 -8 20 2 47 17 47 3 0 1 -5 -5 -11z m2673 -15 c-4 -9 -9 -15 -11 -12 -3
3 -3 13 1 22 4 9 9 15 11 12 3 -3 3 -13 -1 -22z m484 -2 c0 -8 -1 -13 -3 -11
-1 2 -9 12 -16 22 -12 15 -12 17 3 11 9 -3 16 -13 16 -22z m-3546 2 c3 -8 2
-12 -4 -9 -6 3 -10 10 -10 16 0 14 7 11 14 -7z m77 -20 c-11 -15 -21 -21 -21
-14 0 15 31 52 38 46 2 -3 -5 -17 -17 -32z m3100 19 c13 -16 12 -17 -3 -4 -17
13 -22 21 -14 21 2 0 10 -8 17 -17z m244 -2 c-3 -6 -11 -11 -16 -11 -5 0 -4 6
3 14 14 16 24 13 13 -3z m-3872 -11 c3 -11 1 -18 -4 -14 -5 3 -9 12 -9 20 0
20 7 17 13 -6z m742 -22 c-4 -48 -4 -48 -16 -48 -8 0 -8 4 -1 13 5 6 9 26 7
44 -1 18 2 30 5 28 4 -3 6 -19 5 -37z m501 -12 c-2 -6 -5 -3 -5 7 -1 10 -5 16
-10 13 -8 -5 -8 9 -1 34 1 3 6 -6 11 -19 5 -13 8 -29 5 -35z m2364 28 c0 -8
-4 -12 -10 -9 -5 3 -10 13 -10 21 0 8 5 12 10 9 6 -3 10 -13 10 -21z m421 -15
c-8 -22 -9 -22 -9 9 1 19 5 29 10 24 5 -5 5 -19 -1 -33z m-3468 6 c-3 -9 -8
-14 -10 -11 -3 3 -2 9 2 15 9 16 15 13 8 -4z m2804 -7 c-3 -8 -6 -5 -6 6 -1
11 2 17 5 13 3 -3 4 -12 1 -19z m813 -13 c0 -5 -5 -3 -10 5 -5 8 -10 20 -10
25 0 6 5 3 10 -5 5 -8 10 -19 10 -25z m-590 11 c0 -2 -8 -10 -17 -17 -16 -13
-17 -12 -4 4 13 16 21 21 21 13z m46 -8 c4 -7 4 -10 -1 -6 -4 4 -15 2 -24 -5
-14 -11 -14 -10 -2 6 16 20 18 21 27 5z m94 2 c0 -5 -5 -10 -11 -10 -5 0 -7 5
-4 10 3 6 8 10 11 10 2 0 4 -4 4 -10z m104 -19 c-2 -3 -12 3 -22 13 -16 17
-16 18 5 5 12 -7 20 -15 17 -18z m-2678 -29 c-4 -3 -13 3 -21 14 -22 28 -18
37 6 13 11 -11 18 -23 15 -27z m133 39 c9 -6 10 -11 2 -15 -8 -5 -8 -13 0 -27
8 -17 7 -23 -8 -35 -10 -7 -23 -14 -30 -14 -6 0 -20 -3 -30 -7 -16 -6 -16 -5
-4 10 11 14 11 17 0 17 -8 0 -15 12 -16 30 -1 17 2 28 7 25 4 -3 10 0 12 6 2
7 9 5 17 -5 12 -14 12 -16 -3 -10 -20 8 -21 -14 -1 -40 9 -11 20 -16 31 -12
16 6 15 25 -2 70 -7 18 3 20 25 7z m-408 -14 c-6 -8 -8 -17 -4 -20 3 -4 -1 -7
-10 -7 -9 0 -17 2 -17 4 0 2 -3 11 -6 20 -5 12 0 16 21 16 22 0 25 -3 16 -13z
m3005 -19 c14 -28 15 -31 2 -20 -14 11 -31 52 -22 52 2 0 11 -15 20 -32z m97
12 c-3 -12 -8 -19 -11 -16 -5 6 5 36 12 36 2 0 2 -9 -1 -20z m-3169 -14 c-3
-9 -10 -16 -15 -16 -5 0 -4 9 3 20 14 22 21 20 12 -4z m2646 3 c0 -5 -4 -9
-10 -9 -5 0 -10 7 -10 16 0 8 5 12 10 9 6 -3 10 -10 10 -16z m455 12 c3 -5 1
-12 -5 -16 -5 -3 -10 1 -10 9 0 18 6 21 15 7z m-2135 -32 c0 -10 -6 -18 -12
-16 -9 1 -12 -8 -10 -28 8 -87 7 -88 -13 -91 -18 -2 -18 -1 -4 9 18 13 17 46
-1 57 -9 6 -9 9 -1 14 6 4 9 12 5 17 -7 12 18 69 28 63 4 -3 8 -14 8 -25z
m2015 11 c3 -5 1 -10 -4 -10 -6 0 -11 5 -11 10 0 6 2 10 4 10 3 0 8 -4 11 -10z
m-3085 -11 c0 -6 9 -8 21 -4 19 6 20 5 7 -17 -17 -29 -17 -50 2 -73 14 -17 13
-17 -6 -7 -12 6 -24 9 -27 6 -3 -4 -6 2 -5 12 1 11 -2 36 -5 57 -4 22 -3 37 3
37 6 0 10 -5 10 -11z m210 7 c0 -2 -7 -6 -15 -10 -8 -3 -15 -1 -15 4 0 6 7 10
15 10 8 0 15 -2 15 -4z m2640 -5 c0 -6 -4 -13 -10 -16 -5 -3 -10 1 -10 9 0 9
5 16 10 16 6 0 10 -4 10 -9z m471 -32 c-9 -22 -10 -22 -10 -3 -1 11 2 24 6 27
12 12 14 0 4 -24z m-3447 -13 c-3 -15 -8 -25 -11 -23 -2 3 -1 17 3 31 3 15 8
25 11 23 2 -3 1 -17 -3 -31z m543 2 c-3 -7 -5 -2 -5 12 0 14 2 19 5 13 2 -7 2
-19 0 -25z m35 -35 c-3 -9 -7 -9 -17 0 -7 7 -10 17 -7 22 4 6 7 13 8 18 1 4 3
13 4 20 1 6 5 -1 9 -18 4 -16 5 -35 3 -42z m2312 52 c-4 -8 -8 -15 -10 -15 -2
0 -4 7 -4 15 0 8 4 15 10 15 5 0 7 -7 4 -15z m-2705 -18 c12 -15 12 -17 -3
-11 -9 3 -16 13 -16 22 0 8 1 13 3 11 1 -2 9 -12 16 -22z m241 19 c0 -3 -4 -8
-10 -11 -5 -3 -10 -1 -10 4 0 6 5 11 10 11 6 0 10 -2 10 -4z m2507 -28 c-3 -7
-5 -2 -5 12 0 14 2 19 5 13 2 -7 2 -19 0 -25z m80 10 c-3 -8 -6 -5 -6 6 -1 11
2 17 5 13 3 -3 4 -12 1 -19z m-2750 -11 c18 -21 19 -26 6 -43 -15 -18 -15 -18
-9 2 4 14 1 28 -9 37 -14 14 -20 27 -12 27 2 0 13 -11 24 -23z m3124 -20 c-8
-8 -11 -3 -11 19 1 25 2 27 11 11 8 -14 8 -22 0 -30z m-4324 1 c-3 -8 -6 -5
-6 6 -1 11 2 17 5 13 3 -3 4 -12 1 -19z m2130 0 c-3 -8 -6 -5 -6 6 -1 11 2 17
5 13 3 -3 4 -12 1 -19z m1707 -1 c4 4 4 0 0 -10 -8 -22 -11 -22 -25 6 -11 19
-10 20 3 10 8 -7 18 -10 22 -6z m-2659 -7 c3 -5 1 -10 -4 -10 -6 0 -11 5 -11
10 0 6 2 10 4 10 3 0 8 -4 11 -10z m-210 -60 c0 -18 -6 -35 -12 -37 -10 -4
-10 3 -1 27 8 26 8 34 -3 42 -12 8 -11 9 1 5 10 -2 15 -16 15 -37z m109 22
c-13 -9 -28 -43 -25 -59 1 -7 -5 -13 -14 -13 -8 0 -15 9 -15 20 0 11 4 20 9
20 5 0 12 7 15 16 5 14 4 15 -9 4 -9 -7 -15 -8 -15 -2 0 12 13 17 44 20 11 0
16 -2 10 -6z m56 -24 c3 -1 16 4 29 11 16 9 21 9 16 1 -12 -20 -55 -31 -69
-18 -9 9 -10 15 -2 24 8 9 12 8 16 -3 3 -8 8 -15 10 -15z m3280 18 c0 -23 -16
-27 -17 -5 -1 10 2 19 8 19 5 0 9 -6 9 -14z m27 -18 c-3 -8 -6 -5 -6 6 -1 11
2 17 5 13 3 -3 4 -12 1 -19z m-4427 8 c0 -2 -8 -10 -17 -17 -16 -13 -17 -12
-4 4 13 16 21 21 21 13z m165 -16 c3 -5 2 -10 -4 -10 -5 0 -13 5 -16 10 -3 6
-2 10 4 10 5 0 13 -4 16 -10z m1255 -15 c0 -14 -4 -25 -10 -25 -11 0 -14 33
-3 43 11 11 13 8 13 -18z m627 7 c-9 -10 -14 -27 -11 -38 3 -12 -1 -26 -12
-35 -16 -13 -16 -12 -3 10 11 18 11 25 2 28 -9 3 -8 11 5 28 9 14 21 25 26 25
5 0 2 -8 -7 -18z m-142 -2 c-3 -5 -10 -10 -16 -10 -5 0 -9 5 -9 10 0 6 7 10
16 10 8 0 12 -4 9 -10z m-910 -10 c3 -5 1 -10 -4 -10 -6 0 -11 5 -11 10 0 6 2
10 4 10 3 0 8 -4 11 -10z m335 0 c0 -5 -8 -10 -17 -10 -15 0 -16 2 -3 10 19
12 20 12 20 0z m130 0 c0 -5 -5 -10 -11 -10 -5 0 -7 5 -4 10 3 6 8 10 11 10 2
0 4 -4 4 -10z m240 -1 c0 8 3 11 8 7 10 -11 10 -56 -1 -49 -5 3 -6 -5 -2 -18
7 -23 7 -23 -12 -7 -11 10 -18 28 -17 45 3 40 3 40 14 23 8 -12 10 -12 10 -1z
m134 -4 c-4 -8 -8 -15 -10 -15 -2 0 -4 7 -4 15 0 8 4 15 10 15 5 0 7 -7 4 -15z
m-24 -51 c0 -22 -8 -36 -30 -52 -28 -21 -30 -21 -39 -3 -14 25 -1 35 15 13 11
-15 13 -12 9 23 -4 39 -3 39 9 12 16 -37 25 -25 20 26 -3 31 -2 38 6 27 5 -8
10 -29 10 -46z m53 36 c-3 -12 -8 -19 -11 -16 -5 6 5 36 12 36 2 0 2 -9 -1
-20z m-226 -12 c-3 -8 -6 -5 -6 6 -1 11 2 17 5 13 3 -3 4 -12 1 -19z m110 0
c-3 -8 -6 -5 -6 6 -1 11 2 17 5 13 3 -3 4 -12 1 -19z m140 0 c-3 -8 -6 -5 -6
6 -1 11 2 17 5 13 3 -3 4 -12 1 -19z m-497 8 c0 -3 -4 -8 -10 -11 -5 -3 -10
-1 -10 4 0 6 5 11 10 11 6 0 10 -2 10 -4z m-990 -41 c0 -5 -5 -3 -10 5 -5 8
-10 20 -10 25 0 6 5 3 10 -5 5 -8 10 -19 10 -25z m1437 3 c-3 -8 -6 -5 -6 6
-1 11 2 17 5 13 3 -3 4 -12 1 -19z m109 -3 c1 -8 -2 -13 -7 -9 -5 3 -9 12 -9
21 0 19 13 9 16 -12z m-387 12 c-2 -1 -13 -9 -24 -17 -19 -14 -19 -14 -6 3 7
9 18 17 24 17 6 0 8 -1 6 -3z m-222 -29 c-3 -8 -6 -5 -6 6 -1 11 2 17 5 13 3
-3 4 -12 1 -19z m81 0 c-3 -7 -13 -15 -23 -16 -15 -4 -16 -2 -4 12 17 19 32
21 27 4z m207 2 c3 -6 -1 -7 -9 -4 -18 7 -21 14 -7 14 6 0 13 -4 16 -10z m45
-10 c0 -5 -5 -10 -11 -10 -5 0 -7 5 -4 10 3 6 8 10 11 10 2 0 4 -4 4 -10z
m231 -17 c-8 -15 -10 -15 -11 -2 0 17 10 32 18 25 2 -3 -1 -13 -7 -23z m-331
8 c0 -5 -6 -21 -14 -36 -8 -15 -12 -34 -9 -42 3 -7 2 -13 -3 -11 -5 1 -20 -3
-34 -10 l-25 -13 23 20 c12 10 22 25 22 33 0 7 7 22 15 32 8 10 12 23 9 27 -3
5 0 9 5 9 6 0 11 -4 11 -9z m270 -12 c0 -6 -4 -7 -10 -4 -5 3 -10 11 -10 16 0
6 5 7 10 4 6 -3 10 -11 10 -16z m30 1 c0 -11 -4 -20 -9 -20 -5 0 -7 9 -4 20 3
11 7 20 9 20 2 0 4 -9 4 -20z m-232 -35 c-1 -25 -5 -48 -10 -51 -4 -3 -7 18
-6 45 3 63 16 68 16 6z m2299 23 c-3 -8 -6 -5 -6 6 -1 11 2 17 5 13 3 -3 4
-12 1 -19z m-2203 -4 c9 -22 -3 -32 -14 -14 -12 19 -12 30 -1 30 5 0 12 -7 15
-16z m-231 -14 c-3 -11 -9 -20 -15 -20 -5 0 -4 9 2 20 6 11 12 20 14 20 2 0 2
-9 -1 -20z m203 -6 c-3 -9 -6 -18 -6 -20 0 -2 -4 -4 -9 -4 -5 0 -7 9 -4 20 3
11 10 20 15 20 6 0 7 -7 4 -16z m-119 -30 c-2 -13 0 -25 5 -26 10 -4 -13 -58
-26 -58 -5 0 -5 15 -1 33 5 17 9 44 9 59 1 14 5 24 9 21 5 -3 7 -16 4 -29z
m36 -54 c-5 -19 -23 -39 -23 -25 0 9 20 45 24 45 2 0 2 -9 -1 -20z m-79 -16
c3 -8 2 -12 -4 -9 -6 3 -10 10 -10 16 0 14 7 11 14 -7z m766 -4 c0 -5 -5 -10
-11 -10 -5 0 -7 5 -4 10 3 6 8 10 11 10 2 0 4 -4 4 -10z m-537 -62 c-17 -18
-32 -39 -35 -47 -3 -9 -10 -5 -22 13 -14 22 -15 30 -5 42 16 19 29 18 29 -3 0
-15 -2 -16 -10 -3 -8 12 -10 11 -10 -7 0 -13 3 -23 8 -23 10 0 42 38 42 50 0
6 8 10 17 10 13 0 10 -7 -14 -32z m-83 -8 c0 -5 -4 -10 -10 -10 -5 0 -10 5
-10 10 0 6 5 10 10 10 6 0 10 -4 10 -10z m359 -64 c-18 -36 -34 -64 -36 -62
-2 2 11 33 29 69 17 37 34 64 36 62 2 -2 -10 -34 -29 -69z m-4 53 c-4 -6 -10
-8 -13 -5 -3 3 -14 -2 -25 -11 -19 -18 -19 -17 -6 5 8 12 22 22 32 22 10 0 15
-5 12 -11z m-199 -15 c-3 -9 -6 -20 -6 -25 0 -6 -4 -8 -9 -5 -12 8 -2 46 11
46 6 0 7 -7 4 -16z m95 -7 c-10 -9 -11 -8 -5 6 3 10 9 15 12 12 3 -3 0 -11 -7
-18z m-241 -3 c0 -8 -4 -12 -10 -9 -5 3 -10 10 -10 16 0 5 5 9 10 9 6 0 10 -7
10 -16z m89 -56 c0 -10 -3 -18 -8 -18 -10 0 -19 61 -12 81 5 13 17 -27 20 -63z
m466 62 c3 -5 1 -10 -4 -10 -6 0 -11 5 -11 10 0 6 2 10 4 10 3 0 8 -4 11 -10z
m-368 -22 c-3 -8 -6 -5 -6 6 -1 11 2 17 5 13 3 -3 4 -12 1 -19z m-207 -18 c0
-11 -2 -20 -4 -20 -2 0 -6 9 -9 20 -3 11 -1 20 4 20 5 0 9 -9 9 -20z m326 -18
c-10 -11 -16 -12 -16 -4 0 7 5 12 10 12 6 0 10 8 11 18 0 11 2 13 6 4 3 -8 -2
-21 -11 -30z m-31 -9 c4 -14 2 -23 -4 -23 -6 0 -11 3 -11 8 0 4 -3 18 -6 32
-8 31 11 16 21 -17z m-65 6 c0 -11 -4 -18 -10 -14 -5 3 -7 12 -3 20 7 21 13
19 13 -6z m-150 -33 c0 -3 -4 -8 -10 -11 -5 -3 -10 -1 -10 4 0 6 5 11 10 11 6
0 10 -2 10 -4z m44 -12 c4 -10 -1 -22 -11 -29 -21 -15 -32 -10 -16 6 6 6 9 18
6 25 -3 8 -1 14 5 14 5 0 13 -7 16 -16z m-97 -36 c-3 -8 -6 -5 -6 6 -1 11 2
17 5 13 3 -3 4 -12 1 -19z m23 -32 c0 -2 -8 -10 -17 -17 -16 -13 -17 -12 -4 4
13 16 21 21 21 13z m27 -113 c-3 -10 -5 -4 -5 12 0 17 2 24 5 18 2 -7 2 -21 0
-30z m520 -30 c-3 -10 -5 -4 -5 12 0 17 2 24 5 18 2 -7 2 -21 0 -30z m-3747
-653 c0 -5 -5 -10 -11 -10 -5 0 -7 5 -4 10 3 6 8 10 11 10 2 0 4 -4 4 -10z
m4710 -1055 c7 -8 21 -15 31 -15 38 0 9 -39 -43 -59 -22 -8 -31 -7 -43 6 -14
14 -14 18 0 39 16 26 19 38 7 30 -4 -2 -14 -1 -20 3 -8 5 1 8 22 9 19 1 39 -5
46 -13z"/>
<path d="M9263 8062 c-25 -11 -25 -12 -3 -7 14 3 99 8 190 11 90 3 166 7 169
9 11 12 -329 -1 -356 -13z"/>
<path d="M9640 8070 c-13 -8 -13 -10 2 -10 9 0 20 5 23 10 8 13 -5 13 -25 0z"/>
<path d="M9054 8042 c4 -7 3 -19 -4 -27 -6 -8 -7 -16 -2 -19 14 -8 23 37 10
49 -8 7 -9 6 -4 -3z"/>
<path d="M8980 7976 c0 -8 4 -17 9 -21 6 -3 9 4 8 15 -1 23 -17 28 -17 6z"/>
<path d="M8980 7911 c0 -11 4 -22 9 -25 4 -3 6 6 3 19 -5 30 -12 33 -12 6z"/>
<path d="M8826 7827 c3 -10 9 -15 12 -12 3 3 0 11 -7 18 -10 9 -11 8 -5 -6z"/>
<path d="M8867 7799 c4 -13 8 -18 11 -10 2 7 -1 18 -6 23 -8 8 -9 4 -5 -13z"/>
<path d="M8893 7749 c-5 -16 -8 -18 -15 -7 -8 11 -9 11 -6 0 5 -20 21 -16 30
7 4 12 5 21 2 21 -3 0 -8 -9 -11 -21z"/>
<path d="M8747 7736 c-3 -8 0 -17 7 -19 10 -4 12 1 9 14 -6 23 -9 24 -16 5z"/>
<path d="M10639 7730 c30 -26 49 -26 26 0 -10 11 -25 20 -34 20 -12 -1 -10 -5
8 -20z"/>
<path d="M9107 7693 c-4 -3 -7 -17 -7 -29 0 -17 -5 -22 -20 -19 -21 4 -27 -9
-10 -20 6 -3 7 -18 3 -33 -6 -24 -5 -26 10 -13 10 7 17 23 17 36 0 12 3 25 8
29 4 4 7 19 7 32 1 27 1 27 -8 17z"/>
<path d="M9140 7695 c0 -5 5 -17 10 -25 5 -8 10 -10 10 -5 0 6 -5 17 -10 25
-5 8 -10 11 -10 5z"/>
<path d="M9890 7686 c4 -4 16 -4 26 2 16 9 14 10 -8 9 -15 -1 -23 -6 -18 -11z"/>
<path d="M8500 7645 c0 -8 2 -15 4 -15 2 0 6 7 10 15 3 8 1 15 -4 15 -6 0 -10
-7 -10 -15z"/>
<path d="M8577 7654 c-4 -4 -7 -14 -7 -23 0 -11 3 -12 11 -4 6 6 10 16 7 23
-2 6 -7 8 -11 4z"/>
<path d="M8750 7640 c-6 -11 -8 -20 -6 -20 3 0 10 9 16 20 6 11 8 20 6 20 -3
0 -10 -9 -16 -20z"/>
<path d="M9432 7638 c-25 -12 -25 -31 0 -36 10 -2 17 6 20 23 3 14 5 25 4 24
0 0 -11 -5 -24 -11z"/>
<path d="M9747 7643 c-16 -3 -26 -10 -24 -16 6 -17 68 -8 75 11 4 12 0 12 -51
5z"/>
<path d="M9845 7620 c-3 -5 1 -10 9 -10 9 0 16 5 16 10 0 6 -4 10 -9 10 -6 0
-13 -4 -16 -10z"/>
<path d="M8495 7600 c-10 -11 -15 -23 -12 -27 4 -3 7 -1 7 6 0 7 5 9 10 6 6
-3 13 1 16 10 10 25 -1 27 -21 5z"/>
<path d="M10005 7610 c3 -5 16 -10 28 -10 18 0 19 2 7 10 -20 13 -43 13 -35 0z"/>
<path d="M8506 7554 c-9 -8 -16 -20 -16 -26 0 -6 1 -9 3 -7 1 2 11 14 21 27
22 25 16 30 -8 6z"/>
<path d="M8452 7540 c-7 -11 -12 -30 -12 -42 0 -18 2 -20 9 -8 6 8 7 18 4 22
-2 5 1 16 8 24 6 8 10 16 8 19 -3 2 -10 -5 -17 -15z"/>
<path d="M8778 7534 c3 -15 8 -22 14 -16 9 9 1 42 -12 42 -4 0 -5 -12 -2 -26z"/>
<path d="M9030 7550 c0 -5 5 -10 11 -10 5 0 7 5 4 10 -3 6 -8 10 -11 10 -2 0
-4 -4 -4 -10z"/>
<path d="M8405 7540 c-3 -5 -1 -10 4 -10 6 0 11 5 11 10 0 6 -2 10 -4 10 -3 0
-8 -4 -11 -10z"/>
<path d="M10750 7510 c0 -5 5 -10 11 -10 5 0 7 5 4 10 -3 6 -8 10 -11 10 -2 0
-4 -4 -4 -10z"/>
<path d="M8389 7482 c-24 -27 -39 -79 -19 -67 6 3 10 16 10 28 0 18 2 20 11 7
9 -12 10 -12 5 4 -4 12 0 23 11 31 10 8 15 16 12 19 -3 3 -17 -6 -30 -22z"/>
<path d="M10850 7500 c0 -5 5 -10 10 -10 6 0 10 5 10 10 0 6 -4 10 -10 10 -5
0 -10 -4 -10 -10z"/>
<path d="M8320 7484 c0 -8 5 -12 10 -9 6 4 8 11 5 16 -9 14 -15 11 -15 -7z"/>
<path d="M8761 7484 c0 -11 3 -14 6 -6 3 7 2 16 -1 19 -3 4 -6 -2 -5 -13z"/>
<path d="M8420 7460 c0 -5 5 -10 11 -10 5 0 7 5 4 10 -3 6 -8 10 -11 10 -2 0
-4 -4 -4 -10z"/>
<path d="M8450 7460 c0 -5 5 -10 10 -10 6 0 10 5 10 10 0 6 -4 10 -10 10 -5 0
-10 -4 -10 -10z"/>
<path d="M8269 7417 c11 -14 11 -20 0 -34 -13 -15 -12 -15 8 -2 23 14 37 38
28 47 -3 3 -5 0 -5 -7 0 -9 -5 -9 -22 0 -21 11 -22 11 -9 -4z"/>
<path d="M8390 7385 c-7 -9 -8 -15 -2 -15 5 0 12 7 16 15 3 8 4 15 2 15 -2 0
-9 -7 -16 -15z"/>
<path d="M11000 7350 c6 -11 13 -20 16 -20 2 0 0 9 -6 20 -6 11 -13 20 -16 20
-2 0 0 -9 6 -20z"/>
<path d="M10986 7297 c3 -10 9 -15 12 -12 3 3 0 11 -7 18 -10 9 -11 8 -5 -6z"/>
<path d="M10965 7260 c-3 -5 -2 -10 4 -10 5 0 13 5 16 10 3 6 2 10 -4 10 -5 0
-13 -4 -16 -10z"/>
<path d="M10997 7244 c-4 -4 3 -15 15 -26 25 -22 29 -20 21 10 -5 21 -23 29
-36 16z"/>
<path d="M8450 7905 c0 -8 2 -15 4 -15 2 0 6 7 10 15 3 8 1 15 -4 15 -6 0 -10
-7 -10 -15z"/>
<path d="M8374 7876 c4 -18 1 -28 -11 -35 -10 -6 -12 -11 -6 -11 17 0 46 46
38 60 -12 20 -27 10 -21 -14z"/>
<path d="M8420 7849 c0 -5 5 -9 10 -9 15 0 7 -24 -10 -32 -11 -6 -10 -7 5 -5
11 2 19 9 18 15 -2 7 2 12 7 12 18 0 10 18 -10 23 -11 3 -20 1 -20 -4z"/>
<path d="M7946 7743 c-6 -14 -5 -15 5 -6 7 7 10 15 7 18 -3 3 -9 -2 -12 -12z"/>
<path d="M8071 7706 c-9 -11 -9 -16 1 -22 7 -4 10 -4 6 1 -4 4 -3 14 3 22 6 7
9 13 6 13 -2 0 -10 -6 -16 -14z"/>
<path d="M7910 7694 c0 -8 5 -12 10 -9 6 3 10 10 10 16 0 5 -4 9 -10 9 -5 0
-10 -7 -10 -16z"/>
<path d="M7965 7671 c1 -17 5 -34 9 -38 9 -10 7 40 -3 56 -6 9 -8 4 -6 -18z"/>
<path d="M7867 7666 c-4 -10 -5 -21 -2 -24 9 -9 17 6 13 25 -3 17 -4 17 -11
-1z"/>
<path d="M7907 7643 c-5 -8 9 -53 17 -53 2 0 6 6 9 13 5 15 -19 52 -26 40z"/>
<path d="M7790 7630 c-12 -7 -10 -9 7 -7 12 0 19 5 17 9 -6 10 -6 10 -24 -2z"/>
<path d="M8000 7594 c0 -8 5 -12 10 -9 6 3 10 10 10 16 0 5 -4 9 -10 9 -5 0
-10 -7 -10 -16z"/>
<path d="M7885 7574 c2 -32 10 -39 13 -9 1 13 -2 26 -6 29 -4 2 -7 -6 -7 -20z"/>
<path d="M7936 7581 c-10 -11 -16 -25 -14 -31 2 -6 11 3 21 20 21 34 18 39 -7
11z"/>
<path d="M8071 7574 c0 -11 3 -14 6 -6 3 7 2 16 -1 19 -3 4 -6 -2 -5 -13z"/>
<path d="M7704 7495 c8 -8 18 -15 22 -15 3 0 1 7 -6 15 -7 8 -17 15 -22 15 -5
0 -3 -7 6 -15z"/>
<path d="M7960 7503 c0 -16 16 -28 39 -31 l25 -2 -24 20 c-24 21 -40 26 -40
13z"/>
<path d="M7706 7456 c7 -17 -36 -58 -53 -52 -8 3 -15 -5 -19 -19 -3 -14 -10
-25 -15 -25 -5 0 -9 -7 -9 -15 0 -8 5 -15 10 -15 6 0 10 4 10 9 0 5 14 23 30
41 31 34 38 33 19 -2 -7 -13 2 -7 23 13 34 34 39 63 13 73 -9 3 -12 0 -9 -8z"/>
<path d="M7990 7449 c0 -5 5 -7 10 -4 6 3 10 8 10 11 0 2 -4 4 -10 4 -5 0 -10
-5 -10 -11z"/>
<path d="M7907 7437 c-3 -8 1 -14 8 -14 7 0 11 6 8 14 -3 7 -6 13 -8 13 -2 0
-5 -6 -8 -13z"/>
<path d="M7958 7428 c4 -16 2 -19 -8 -13 -9 5 -11 4 -6 -4 4 -6 12 -9 17 -6
12 8 12 45 0 45 -5 0 -7 -10 -3 -22z"/>
<path d="M7754 7386 c2 -15 6 -29 9 -32 3 -4 5 6 3 20 -1 14 -5 29 -9 32 -3 3
-4 -6 -3 -20z"/>
<path d="M7826 7395 c-9 -26 -7 -32 5 -12 6 10 9 21 6 23 -2 3 -7 -2 -11 -11z"/>
<path d="M7708 7369 c-23 -24 -23 -36 -1 -18 15 13 15 12 4 -10 -11 -19 -11
-23 0 -19 7 2 14 19 16 36 5 37 4 37 -19 11z"/>
<path d="M7661 7341 c-11 -7 -11 -10 0 -15 11 -5 11 -7 1 -12 -10 -5 -10 -9
-1 -20 9 -11 9 -18 -1 -29 -9 -11 -9 -15 -1 -15 7 0 9 -5 5 -12 -4 -6 -3 -8 3
-5 6 4 10 23 9 42 -1 19 3 37 9 40 6 3 5 7 -3 11 -6 3 -10 10 -6 15 7 11 3 11
-15 0z"/>
<path d="M7703 7242 c4 -18 2 -22 -9 -18 -21 8 -17 -2 5 -14 17 -8 19 -7 16
15 -1 14 -6 29 -10 33 -4 4 -5 -3 -2 -16z"/>
<path d="M7736 7231 c-4 -7 -5 -15 -2 -18 9 -9 19 4 14 18 -4 11 -6 11 -12 0z"/>
<path d="M7605 7211 c-3 -5 -1 -12 4 -15 5 -3 11 1 15 9 6 16 -9 21 -19 6z"/>
<path d="M10805 7920 c-3 -5 -2 -10 4 -10 5 0 13 5 16 10 3 6 2 10 -4 10 -5 0
-13 -4 -16 -10z"/>
<path d="M11245 7720 c3 -5 8 -10 11 -10 2 0 4 5 4 10 0 6 -5 10 -11 10 -5 0
-7 -4 -4 -10z"/>
<path d="M11268 7684 c8 -15 8 -24 -1 -34 -8 -9 -9 -11 0 -6 6 3 14 0 17 -6 3
-7 3 0 1 16 -2 16 -9 34 -16 40 -9 8 -9 6 -1 -10z"/>
<path d="M11403 7615 c-10 -11 -9 -15 8 -20 11 -4 24 -16 29 -28 l9 -22 0 23
c1 12 -4 22 -9 22 -6 0 -10 7 -8 16 4 22 -14 27 -29 9z"/>
<path d="M11190 7591 c0 -6 4 -13 10 -16 6 -3 7 1 4 9 -7 18 -14 21 -14 7z"/>
<path d="M11340 7557 c0 -8 -7 -20 -15 -27 -8 -7 -12 -16 -10 -21 7 -10 45 21
45 38 0 6 -4 15 -10 18 -5 3 -10 0 -10 -8z"/>
<path d="M11525 7480 c3 -5 8 -10 11 -10 2 0 4 5 4 10 0 6 -5 10 -11 10 -5 0
-7 -4 -4 -10z"/>
<path d="M11618 7445 c-6 -28 11 -38 29 -19 17 17 16 21 -6 33 -16 9 -20 7
-23 -14z"/>
<path d="M11585 7450 c-3 -5 -1 -10 4 -10 6 0 11 5 11 10 0 6 -2 10 -4 10 -3
0 -8 -4 -11 -10z"/>
<path d="M11410 7431 c0 -6 4 -13 10 -16 6 -3 7 1 4 9 -7 18 -14 21 -14 7z"/>
<path d="M11375 7420 c3 -5 11 -10 16 -10 6 0 7 5 4 10 -3 6 -11 10 -16 10 -6
0 -7 -4 -4 -10z"/>
<path d="M11820 7420 c0 -5 5 -10 11 -10 5 0 7 5 4 10 -3 6 -8 10 -11 10 -2 0
-4 -4 -4 -10z"/>
<path d="M11660 7410 c0 -5 5 -10 10 -10 6 0 10 5 10 10 0 6 -4 10 -10 10 -5
0 -10 -4 -10 -10z"/>
<path d="M11337 7375 c8 -22 32 -50 38 -43 2 2 -7 17 -20 33 -18 21 -23 24
-18 10z"/>
<path d="M11444 7366 c1 -8 5 -18 8 -22 4 -3 5 1 4 10 -1 8 -5 18 -8 22 -4 3
-5 -1 -4 -10z"/>
<path d="M11487 7350 c6 -22 23 -38 23 -21 0 17 -12 41 -20 41 -5 0 -6 -9 -3
-20z"/>
<path d="M11895 7250 c3 -5 8 -10 11 -10 2 0 4 5 4 10 0 6 -5 10 -11 10 -5 0
-7 -4 -4 -10z"/>
<path d="M12040 7238 c0 -8 10 -23 22 -34 l21 -19 -18 30 c-26 41 -25 40 -25
23z"/>
<path d="M12140 7206 c0 -8 5 -18 10 -21 6 -3 10 -17 10 -31 0 -13 4 -24 8
-24 7 0 9 51 2 58 -1 1 -3 7 -4 14 -2 17 -26 22 -26 4z"/>
<path d="M11760 7161 c0 -6 4 -13 10 -16 6 -3 7 1 4 9 -7 18 -14 21 -14 7z"/>
<path d="M12036 7157 c3 -10 9 -15 12 -12 3 3 0 11 -7 18 -10 9 -11 8 -5 -6z"/>
<path d="M12025 7119 c-4 -6 -5 -12 -2 -15 2 -3 7 2 10 11 7 17 1 20 -8 4z"/>
<path d="M11669 7037 c26 -28 31 -32 31 -19 0 4 -13 16 -28 26 l-27 19 24 -26z"/>
<path d="M12076 7044 c-9 -9 -14 -19 -11 -22 3 -3 13 2 22 11 9 9 14 19 11 22
-3 3 -13 -2 -22 -11z"/>
<path d="M11753 7024 c0 -17 2 -22 7 -13 5 6 6 18 3 26 -8 19 -10 16 -10 -13z"/>
<path d="M11811 7030 c14 -31 19 -36 19 -24 0 6 -7 19 -16 30 -14 18 -14 18
-3 -6z"/>
<path d="M11886 7034 c-9 -22 -7 -64 2 -64 4 0 7 18 7 40 0 45 0 47 -9 24z"/>
<path d="M11720 7000 c0 -5 5 -10 10 -10 6 0 10 5 10 10 0 6 -4 10 -10 10 -5
0 -10 -4 -10 -10z"/>
<path d="M12120 6994 c0 -11 -6 -26 -12 -33 -11 -10 -9 -11 6 -5 15 6 17 4 11
-6 -5 -8 -4 -11 3 -7 5 4 9 18 7 32 -3 31 -15 46 -15 19z"/>
<path d="M11792 6925 c-2 -18 2 -36 8 -40 6 -4 10 7 10 29 0 45 -15 55 -18 11z"/>
<path d="M11837 6943 c-4 -3 -7 -11 -7 -17 0 -6 5 -5 12 2 6 6 9 14 7 17 -3 3
-9 2 -12 -2z"/>
<path d="M11851 6876 c-9 -10 -8 -15 3 -19 10 -4 14 0 13 14 -2 23 -1 23 -16
5z"/>
<path d="M12017 6865 c-4 -8 -2 -17 3 -20 6 -4 10 3 10 14 0 25 -6 27 -13 6z"/>
<path d="M11880 6831 c0 -5 7 -14 15 -21 16 -14 18 -10 9 14 -6 17 -24 22 -24
7z"/>
<path d="M12085 6579 c-4 -6 -5 -12 -2 -15 2 -3 7 2 10 11 7 17 1 20 -8 4z"/>
<path d="M8199 7312 c-37 -46 -38 -48 -30 -78 l9 -29 1 36 c1 21 8 43 19 52
24 22 39 22 21 1 -11 -14 -10 -19 10 -35 13 -11 28 -19 35 -19 7 0 6 4 -3 9
-9 6 -10 11 -2 15 14 9 14 46 1 46 -6 0 -10 -6 -9 -12 3 -24 -1 -38 -11 -38
-6 0 -8 10 -5 23 9 33 -16 52 -36 29z"/>
<path d="M12375 6919 c-4 -6 -5 -12 -2 -15 2 -3 7 2 10 11 7 17 1 20 -8 4z"/>
<path d="M12382 6880 c-7 -11 -8 -20 -3 -20 9 0 24 30 18 36 -1 2 -8 -6 -15
-16z"/>
<path d="M9583 6675 c0 -14 3 -22 8 -19 5 3 9 11 9 19 0 8 -4 16 -9 19 -5 3
-8 -5 -8 -19z"/>
<path d="M12250 6676 c0 -8 -6 -16 -12 -19 -7 -2 -10 -8 -5 -12 4 -5 14 0 22
11 17 23 19 34 5 34 -5 0 -10 -6 -10 -14z"/>
<path d="M9936 6524 c-9 -23 -7 -46 3 -40 5 3 9 17 9 31 0 29 -3 31 -12 9z"/>
<path d="M9950 6450 c0 -5 -7 -10 -16 -10 -13 0 -14 -3 -5 -14 6 -7 8 -22 4
-31 -4 -13 -3 -16 6 -11 7 5 10 17 8 28 -3 11 0 21 9 25 16 6 19 23 4 23 -5 0
-10 -4 -10 -10z"/>
<path d="M12555 6470 c-3 -5 -1 -10 4 -10 6 0 11 5 11 10 0 6 -2 10 -4 10 -3
0 -8 -4 -11 -10z"/>
<path d="M10280 6441 c0 -5 5 -13 10 -16 6 -3 10 -2 10 4 0 5 -4 13 -10 16 -5
3 -10 2 -10 -4z"/>
<path d="M8300 10270 c6 -11 13 -20 16 -20 2 0 0 9 -6 20 -6 11 -13 20 -16 20
-2 0 0 -9 6 -20z"/>
<path d="M11017 10124 c-8 -8 1 -24 14 -24 5 0 9 7 9 15 0 15 -12 20 -23 9z"/>
<path d="M10852 10019 c2 -7 10 -15 17 -17 8 -3 12 1 9 9 -2 7 -10 15 -17 17
-8 3 -12 -1 -9 -9z"/>
<path d="M10540 9789 c0 -5 5 -7 10 -4 6 3 10 8 10 11 0 2 -4 4 -10 4 -5 0
-10 -5 -10 -11z"/>
<path d="M9840 9665 c0 -22 41 -65 62 -65 10 0 18 -7 18 -15 0 -22 20 -18 63
10 34 24 50 55 27 55 -5 0 -10 7 -10 15 0 11 -11 15 -40 15 -29 0 -40 -4 -40
-15 0 -8 -4 -15 -9 -15 -5 0 -14 7 -21 15 -16 19 -50 19 -50 0z"/>
<path d="M10025 9670 c3 -5 10 -10 16 -10 5 0 9 5 9 10 0 6 -7 10 -16 10 -8 0
-12 -4 -9 -10z"/>
<path d="M9580 9631 c0 -14 37 -23 61 -16 17 6 19 9 8 16 -19 12 -69 11 -69 0z"/>
</g>
</svg>
