<?xml version="1.0" standalone="no"?>
<!DOCTYPE svg PUBLIC "-//W3C//DTD SVG 20010904//EN"
 "http://www.w3.org/TR/2001/REC-SVG-20010904/DTD/svg10.dtd">
<svg version="1.0" xmlns="http://www.w3.org/2000/svg"
 width="256.000000pt" height="256.000000pt" viewBox="0 0 256.000000 256.000000"
 preserveAspectRatio="xMidYMid meet">

<g transform="translate(0.000000,256.000000) scale(0.100000,-0.100000)"
fill="#000000" stroke="none">
<path d="M1121 2550 c-94 -12 -235 -50 -329 -88 -333 -137 -609 -430 -722
-770 -51 -156 -63 -232 -63 -412 0 -180 12 -256 63 -412 58 -175 156 -333 290
-472 186 -193 406 -314 675 -372 124 -27 380 -24 510 5 263 60 470 176 653
365 493 510 478 1311 -34 1806 -179 173 -391 284 -638 335 -97 19 -305 27
-405 15z m-114 -581 c18 -11 47 -38 65 -60 l33 -40 45 18 c64 25 335 25 399 0
l43 -17 47 49 c43 47 126 95 143 85 25 -16 36 -147 17 -202 -10 -28 -7 -36 20
-74 47 -66 64 -149 59 -292 -3 -105 -7 -128 -29 -176 -50 -105 -159 -185 -291
-212 l-57 -12 17 -30 c14 -26 18 -68 20 -244 l3 -212 -190 0 -191 0 0 95 0 95
-82 0 c-138 0 -207 45 -279 182 -19 35 -53 82 -77 106 -23 24 -40 48 -36 54
10 15 83 3 113 -20 14 -10 46 -46 71 -78 58 -75 112 -104 193 -104 72 0 97 12
97 48 0 15 9 45 19 68 l18 41 -57 11 c-129 27 -241 108 -288 210 -24 50 -27
72 -30 179 -4 142 13 226 58 289 27 38 28 44 18 80 -12 45 -6 151 11 182 10
18 15 20 39 11 15 -6 41 -19 59 -30z"/>
</g>
</svg>
